SplineFontDB: 3.0
FontName: TaameyDavidCLM-Medium
FullName: Taamey David CLM Medium
FamilyName: Taamey David CLM
Weight: Medium
Copyright: Copyright(c) 2009-2010 by Yoram Gnat (yoram.gnat@gmail.com)\nDistributed under the terms of GNU General Public License version 2(http://www.gnu.org/licenses/gpl.html). \n\nHebrew glyphs copyright 2002-2008 by Maxim Iorsh (iorsh@math.technion.ac.il).\nDistributed under the terms of GNU General Public License version 2(http://www.gnu.org/licenses/gpl.html). \n\nHebrew OpenType Layout logic copyright (c) 2003 & 2007, Ralph Hancock & John Hudson. This layout logic for Biblical Hebrew is open source software under the MIT License; for details  contact copyright holders at <license@tiro.com>.\n\nImplementation of above layout logic by Yoram Gnat (yoram.gnat@gmail.com) All rights reserved.\n\nLatin glyphs and part of punctuation copyright 1990 as an unpublished work by Bitstream Inc.\n \n\n
UComments: "The average width of a character (not including narrow chars) is 945.4" 
Version: 0.110
ItalicAngle: 0
UnderlinePosition: -170
UnderlineWidth: 70
Ascent: 1638
Descent: 410
LayerCount: 2
Layer: 0 0 "Back"  1
Layer: 1 0 "Fore"  0
XUID: [1021 594 1227166039 8190246]
FSType: 0
OS2Version: 0
OS2_WeightWidthSlopeOnly: 0
OS2_UseTypoMetrics: 0
CreationTime: 1244295734
ModificationTime: 1284281762
PfmFamily: 17
TTFWeight: 500
TTFWidth: 5
LineGap: 184
VLineGap: 0
Panose: 2 0 0 0 0 0 0 0 0 0
OS2TypoAscent: 1638
OS2TypoAOffset: 0
OS2TypoDescent: -410
OS2TypoDOffset: 0
OS2TypoLinegap: 184
OS2WinAscent: 1638
OS2WinAOffset: 0
OS2WinDescent: 883
OS2WinDOffset: 0
HheadAscent: 1638
HheadAOffset: 0
HheadDescent: -883
HheadDOffset: 0
OS2SubXSize: 1433
OS2SubYSize: 1331
OS2SubXOff: 0
OS2SubYOff: 286
OS2SupXSize: 1433
OS2SupYSize: 1331
OS2SupXOff: 0
OS2SupYOff: 976
OS2StrikeYSize: 102
OS2StrikeYPos: 512
OS2Vendor: 'YGNT'
OS2CodePages: 00000021.00000000
OS2UnicodeRanges: 8000086f.4000204a.00000000.00000000

StartChar: .notdef
Encoding: 65536 -1 0
Width: 909
GlyphClass: 2
Flags: W
HStem: 0 98<49 860> 180 21G<425 470> 1067 127<271.455 491.065> 1313 99<49 860>
VStem: -49 98<98 1313> 359 152<603.62 768.987> 546 150<886.453 1016.66> 860 98<98 1313>
LayerCount: 2
Fore
SplineSet
283 1194 m 1
 452 1194 677 1182 696 1011 c 0
 696 1006 696 1003 696 999 c 0
 696 934 640 854 567 798 c 0
 528 767 511 744 511 720 c 0
 511 694 531 669 563 635 c 1
 522 595 474 564 422 541 c 1
 376 585 359 613 359 681 c 0
 359 787 546 841 546 944 c 0
 546 946 546 951 546 954 c 0
 534 1054 345 1067 210 1067 c 1
 229 1118 251 1159 283 1194 c 1
445 429 m 1
 495 388 526 349 557 299 c 1
 528 254 492 213 448 180 c 1
 402 217 363 254 330 304 c 1
 363 355 402 394 445 429 c 1
860 98 m 1
 860 1313 l 1
 49 1313 l 1
 49 98 l 1
 860 98 l 1
958 1412 m 1
 958 0 l 1
 -49 0 l 1
 -49 1412 l 1
 958 1412 l 1
EndSplineSet
Validated: 1
EndChar

StartChar: dotnosp
Encoding: 775 775 3
Width: 0
GlyphClass: 4
Flags: W
HStem: 1322 229
VStem: -115 230
AnchorPoint: "A-1" -1 0 mark 0
LayerCount: 2
Fore
SplineSet
-115 1438 m 1
 -84 1487 -48 1522 0 1551 c 1
 49 1522 83 1487 115 1438 c 1
 83 1387 49 1352 0 1322 c 1
 -48 1352 -84 1387 -115 1438 c 1
EndSplineSet
Validated: 1
LCarets2: 1 0 
EndChar

StartChar: ringnosp
Encoding: 778 778 5
Width: 0
GlyphClass: 4
Flags: W
HStem: 1272 82<-76.4958 72.9813> 1556 81<-77.108 73.5706>
VStem: -186 88<1372.49 1537.23> 94 92<1371.38 1539.45>
AnchorPoint: "A-1" -0.5 0 mark 0
LayerCount: 2
Fore
SplineSet
-98 1454 m 0
 -98 1400 -54 1354 -0 1354 c 0
 50 1354 94 1400 94 1454 c 0
 94 1510 50 1556 -0 1556 c 0
 -54 1556 -98 1510 -98 1454 c 0
-0 1272 m 0
 -118 1272 -186 1359 -186 1454 c 256
 -186 1552 -114 1637 -0 1637 c 256
 106 1637 186 1559 186 1454 c 0
 186 1357 110 1272 -0 1272 c 0
EndSplineSet
Validated: 1
EndChar

StartChar: atnah
Encoding: 1425 1425 7
Width: 0
GlyphClass: 4
Flags: W
HStem: -387 223<-47.3867 48.9667>
VStem: -187 88<-591.945 -421.918> -48 98<-325.251 -164.144> 99 88<-587.899 -419.919>
AnchorPoint: "A-42" -225 0 mark 0
AnchorPoint: "A-54" -390 0 basemark 0
AnchorPoint: "A-53" -450 0 basemark 0
AnchorPoint: "A-52" -450 0 basemark 0
AnchorPoint: "A-51" -450 0 basemark 0
AnchorPoint: "A-52" 0 0 mark 0
AnchorPoint: "A-50" -450 0 basemark 0
AnchorPoint: "A-49" -350 0 basemark 0
AnchorPoint: "A-44" 60 0 mark 0
AnchorPoint: "A-40" 0 0 mark 0
LayerCount: 2
Fore
SplineSet
-48 -176 m 17
 -31 -168 -15 -164 0 -164 c 0
 18 -164 34 -169 50 -176 c 9
 50 -308 l 17
 146 -333 187 -408 187 -519 c 0
 187 -538 185 -560 182 -581 c 1
 165 -586 151 -588 139 -588 c 0
 124 -588 112 -584 99 -581 c 1
 99 -572 99 -557 99 -536 c 0
 99 -496 95 -438 74 -419 c 1
 42 -387 17 -387 0 -387 c 1
 -17 -387 -42 -389 -71 -421 c 1
 -95 -440 -99 -496 -99 -538 c 0
 -99 -557 -97 -574 -97 -583 c 1
 -112 -589 -127 -592 -140 -592 c 0
 -155 -592 -169 -589 -182 -583 c 1
 -185 -562 -187 -540 -187 -521 c 0
 -187 -408 -144 -333 -48 -308 c 9
 -48 -176 l 17
EndSplineSet
Validated: 1
LCarets2: 1 0 
MultipleSubs2: "Add hairspace after last low mark subtable" atnah hairspace
MultipleSubs2: "Add thinspace before narrow letter subtable" atnah thinspace
MultipleSubs2: "Add hairspace before low marked Qof" atnah hairspace
EndChar

StartChar: segolta
Encoding: 1426 1426 8
Width: 0
GlyphClass: 4
Flags: W
HStem: 1184 375
VStem: -220 440
AnchorPoint: "A-55" -149 0 mark 0
AnchorPoint: "A-36" 1 0 mark 0
AnchorPoint: "A-35" 1 0 mark 0
AnchorPoint: "A-57" -499 0 basemark 0
AnchorPoint: "A-56" 1 0 basemark 0
AnchorPoint: "A-57" 1 0 mark 0
AnchorPoint: "A-25" 1 0 mark 0
LayerCount: 2
Fore
SplineSet
-88 1470 m 1
 -65 1510 -37 1537 0 1559 c 1
 38 1537 65 1510 89 1470 c 1
 65 1433 38 1406 0 1382 c 1
 -37 1406 -65 1433 -88 1470 c 1
45 1272 m 1
 67 1310 94 1337 133 1361 c 1
 171 1337 198 1310 220 1272 c 1
 198 1233 171 1206 133 1184 c 1
 94 1206 67 1233 45 1272 c 1
-220 1272 m 1
 -198 1310 -170 1337 -133 1361 c 1
 -94 1337 -66 1310 -44 1272 c 1
 -66 1233 -94 1206 -133 1184 c 1
 -170 1206 -198 1233 -220 1272 c 1
EndSplineSet
Validated: 1
LCarets2: 1 0 
EndChar

StartChar: shalshelet
Encoding: 1427 1427 9
Width: 0
VWidth: 1954
GlyphClass: 4
Flags: W
HStem: 1184 382
VStem: -144 288
AnchorPoint: "A-55" -2.5 0 mark 0
AnchorPoint: "A-57" -502.5 0 basemark 0
AnchorPoint: "A-56" -2.5 0 basemark 0
AnchorPoint: "A-57" -2.5 0 mark 0
AnchorPoint: "A-23" -2.5 0 mark 0
LayerCount: 2
Fore
SplineSet
144 1566 m 9
 0 1491 l 25
 0 1480 l 25
 104 1420 l 25
 104 1405 l 25
 4 1350 l 25
 4 1336 l 25
 114 1273 l 25
 114 1252 l 25
 0 1184 l 17
 -16 1182 -60 1180 -72 1180 c 0
 -98 1180 -120 1180 -144 1184 c 9
 -20 1256 l 25
 -20 1273 l 25
 -130 1334 l 25
 -124 1348 l 25
 -16 1407 l 25
 -16 1420 l 25
 -124 1480 l 25
 -124 1495 l 25
 0 1568 l 17
 16 1573 50 1573 64 1573 c 0
 86 1573 124 1568 144 1566 c 9
EndSplineSet
Validated: 1
LCarets2: 1 0 
EndChar

StartChar: zaqefqatan
Encoding: 1428 1428 10
Width: 0
VWidth: 1954
GlyphClass: 4
Flags: W
HStem: 1184 398
VStem: -88 176
AnchorPoint: "A-55" -0.5 0 mark 0
AnchorPoint: "A-57" -500.5 0 basemark 0
AnchorPoint: "A-56" -0.5 0 basemark 0
AnchorPoint: "A-57" -0.5 0 mark 0
AnchorPoint: "A-23" -0.5 0 mark 0
LayerCount: 2
Fore
SplineSet
-88 1273 m 1
 -64 1310 -38 1337 -0 1361 c 1
 38 1337 64 1310 88 1273 c 1
 64 1233 38 1206 -0 1184 c 1
 -38 1206 -64 1233 -88 1273 c 1
-88 1493 m 1
 -64 1532 -38 1559 -0 1582 c 1
 38 1559 64 1532 88 1493 c 1
 64 1455 38 1428 -0 1404 c 1
 -38 1428 -64 1455 -88 1493 c 1
EndSplineSet
Validated: 1
LCarets2: 1 0 
EndChar

StartChar: zaqefgadol
Encoding: 1429 1429 11
Width: 0
VWidth: 1954
GlyphClass: 4
Flags: W
HStem: 1222 331<-189 -69>
VStem: -189 120<1217.4 1557.6>
AnchorPoint: "A-55" -98 0 mark 0
AnchorPoint: "A-57" -528 0 basemark 0
AnchorPoint: "A-56" -28 0 basemark 0
AnchorPoint: "A-57" -28 0 mark 0
AnchorPoint: "A-23" -28 0 mark 0
LayerCount: 2
Fore
SplineSet
-69 1553 m 1
 -69 1222 l 1
 -90 1219 -108 1217 -129 1217 c 0
 -149 1217 -168 1219 -189 1222 c 1
 -189 1553 l 17
 -168 1556 -149 1558 -129 1558 c 0
 -108 1558 -90 1556 -69 1553 c 1
11 1273 m 1
 35 1311 62 1338 100 1362 c 1
 137 1338 165 1311 189 1273 c 1
 165 1234 137 1207 100 1184 c 1
 62 1207 35 1234 11 1273 c 1
11 1493 m 1
 35 1533 62 1560 100 1582 c 1
 137 1560 165 1533 189 1493 c 1
 165 1456 137 1428 100 1405 c 1
 62 1428 35 1456 11 1493 c 1
EndSplineSet
Validated: 1
LCarets2: 1 0 
EndChar

StartChar: tipeha
Encoding: 1430 1430 12
Width: 0
GlyphClass: 4
Flags: W
HStem: -587 92<29.804 83.2568>
VStem: -92 98<-476.336 -180.027>
AnchorPoint: "A-42" -265 0 mark 0
AnchorPoint: "A-54" -300 0 basemark 0
AnchorPoint: "A-53" -360 0 basemark 0
AnchorPoint: "A-52" -360 0 basemark 0
AnchorPoint: "A-51" -360 0 basemark 0
AnchorPoint: "A-51" -40 0 mark 0
AnchorPoint: "A-50" -380 0 basemark 0
AnchorPoint: "A-49" -290 0 basemark 0
AnchorPoint: "A-43" -40 0 mark 0
AnchorPoint: "A-40" -40 0 mark 0
LayerCount: 2
Fore
SplineSet
78 -587 m 1
 -33 -566 -92 -485 -92 -340 c 0
 -92 -295 -88 -240 -88 -183 c 1
 -79 -180 -50 -180 -40 -180 c 0
 -17 -180 -20 -184 0 -198 c 1
 0 -232 6 -289 6 -342 c 0
 6 -406 14 -482 92 -495 c 1
 92 -535 91 -555 78 -587 c 1
EndSplineSet
Validated: 1
LCarets2: 1 0 
MultipleSubs2: "Add hairspace after last low mark subtable" tipeha hairspace
MultipleSubs2: "Add thinspace before narrow letter subtable" tipeha thinspace
MultipleSubs2: "Add hairspace before low marked Qof" tipeha hairspace
EndChar

StartChar: revia
Encoding: 1431 1431 13
Width: 0
GlyphClass: 4
Flags: W
HStem: 1184 237
VStem: -110 220
AnchorPoint: "A-55" 1 0 mark 0
AnchorPoint: "A-57" -499 0 basemark 0
AnchorPoint: "A-56" 1 0 basemark 0
AnchorPoint: "A-57" 1 0 mark 0
AnchorPoint: "A-23" 1 0 mark 0
LayerCount: 2
Fore
SplineSet
0 1421 m 1
 46 1392 80 1342 110 1289 c 1
 66 1262 29 1230 0 1184 c 1
 -27 1231 -48 1259 -110 1293 c 1
 -77 1368 -46 1393 0 1421 c 1
EndSplineSet
Validated: 1
LCarets2: 1 0 
EndChar

StartChar: zarqa
Encoding: 1432 1432 14
Width: 0
VWidth: 1954
GlyphClass: 4
Flags: W
HStem: 1184 81<59.9464 169.23> 1380 71<-165.357 -64.1632>
VStem: -254 82<1236.57 1378.49> 173 81<1266.72 1379.8>
AnchorPoint: "A-55" -151 0 mark 0
AnchorPoint: "A-57" -501 0 basemark 0
AnchorPoint: "A-56" -1 0 basemark 0
AnchorPoint: "A-57" -1 0 mark 0
AnchorPoint: "A-31" -1 0 mark 0
LayerCount: 2
Fore
SplineSet
139 1380 m 0
 139 1380 135 1390 130 1400 c 25
 155 1448 l 25
 173 1451 l 17
 212 1426 254 1408 254 1310 c 1
 254 1238 191 1193 123 1184 c 1
 44 1184 26 1220 -10 1265 c 1
 -51 1328 -59 1358 -116 1380 c 1
 -123 1380 l 0
 -152 1380 -172 1344 -172 1315 c 11
 -172 1285 -134 1256 -134 1256 c 25
 -130 1234 l 25
 -152 1198 l 25
 -175 1190 l 17
 -213 1216 -254 1236 -254 1310 c 1
 -254 1397 -184 1451 -121 1451 c 1
 -75 1451 -39 1430 -8 1403 c 1
 28 1349 62 1288 100 1265 c 1
 107 1265 112 1265 121 1265 c 0
 153 1265 166 1288 173 1318 c 1
 173 1326 l 0
 173 1356 146 1376 139 1380 c 0
EndSplineSet
Validated: 1
LCarets2: 1 0 
EndChar

StartChar: pashta
Encoding: 1433 1433 15
Width: 0
GlyphClass: 4
Flags: W
HStem: 1503 92<-83.2568 -29.804>
VStem: -6 98<1188.03 1484.34>
AnchorPoint: "A-34" 376 0 mark 0
AnchorPoint: "A-29" 356 0 mark 0
LayerCount: 2
Fore
SplineSet
-78 1595 m 1
 33 1574 92 1493 92 1348 c 0
 92 1303 88 1248 88 1191 c 1
 79 1188 50 1188 40 1188 c 0
 17 1188 20 1192 0 1206 c 1
 0 1240 -6 1297 -6 1350 c 0
 -6 1414 -14 1490 -92 1503 c 1
 -92 1543 -91 1563 -78 1595 c 1
EndSplineSet
Validated: 1
LCarets2: 1 0 
EndChar

StartChar: yetiv
Encoding: 1434 1434 16
Width: 0
VWidth: 1954
GlyphClass: 4
Flags: W
HStem: -584 411
VStem: -154 307
AnchorPoint: "A-69" -344.458 0 mark 0
AnchorPoint: "A-68" -464.458 0 mark 0
AnchorPoint: "A-67" -574.458 0 mark 0
AnchorPoint: "A-66" -404.458 0 mark 0
AnchorPoint: "A-65" -534.458 0 mark 0
AnchorPoint: "A-64" -664.458 0 mark 0
AnchorPoint: "A-47" -474.458 0 mark 0
AnchorPoint: "A-41" -494.458 0 mark 0
LayerCount: 2
Fore
SplineSet
5 -394 m 1
 153 -496 l 1
 141 -519 118 -570 82 -584 c 1
 -154 -399 l 1
 -161 -386 -159 -376 -148 -363 c 1
 89 -173 l 1
 121 -184 153 -216 159 -252 c 1
 10 -360 l 1
 -1 -368 -10 -378 5 -394 c 1
EndSplineSet
Validated: 1
LCarets2: 1 0 
MultipleSubs2: "Add thinspace before narrow letter subtable" yetiv thinspace
EndChar

StartChar: tevir
Encoding: 1435 1435 17
Width: 0
VWidth: 1954
GlyphClass: 4
Flags: W
HStem: -584 92<-15.2568 51.1454>
VStem: 73 87<-468.717 -177.036>
AnchorPoint: "A-42" -207 0 mark 0
AnchorPoint: "A-54" -332 0 basemark 0
AnchorPoint: "A-53" -422 0 basemark 0
AnchorPoint: "A-52" -392 0 basemark 0
AnchorPoint: "A-51" -392 0 basemark 0
AnchorPoint: "A-51" 18 0 mark 0
AnchorPoint: "A-50" -452 0 basemark 0
AnchorPoint: "A-49" -312 0 basemark 0
AnchorPoint: "A-44" 78 0 mark 0
AnchorPoint: "A-40" 18 0 mark 0
LayerCount: 2
Fore
SplineSet
-10 -584 m 1
 -23 -552 -24 -532 -24 -492 c 1
 79 -469 70 -404 73 -340 c 0
 74 -321 73 -302 73 -284 c 0
 73 -248 73 -215 73 -192 c 1
 93 -178 85 -177 108 -177 c 0
 118 -177 147 -177 156 -180 c 1
 156 -237 160 -292 160 -337 c 0
 160 -482 101 -563 -10 -584 c 1
-160 -332 m 1
 -136 -293 -109 -266 -71 -243 c 1
 -33 -266 -6 -293 18 -332 c 1
 -6 -370 -33 -397 -71 -421 c 1
 -109 -397 -136 -370 -160 -332 c 1
EndSplineSet
Validated: 1
LCarets2: 1 0 
MultipleSubs2: "Add hairspace after last low mark subtable" tevir hairspace
MultipleSubs2: "Add thinspace before narrow letter subtable" tevir thinspace
MultipleSubs2: "Add hairspace before low marked Qof" tevir hairspace
EndChar

StartChar: gereshaccent
Encoding: 1436 1436 18
Width: 0
VWidth: 1954
GlyphClass: 4
Flags: W
HStem: 1500 92<29.804 83.2568>
VStem: -92 98<1185.03 1481.34>
AnchorPoint: "A-55" -39 0 mark 0
AnchorPoint: "A-57" -539 0 basemark 0
AnchorPoint: "A-56" -39 0 basemark 0
AnchorPoint: "A-57" -39 0 mark 0
AnchorPoint: "A-23" -39 0 mark 0
LayerCount: 2
Fore
SplineSet
78 1592 m 1
 91 1560 92 1540 92 1500 c 1
 14 1487 6 1411 6 1347 c 0
 6 1294 0 1237 0 1203 c 1
 -20 1189 -16 1185 -39 1185 c 0
 -49 1185 -79 1185 -88 1188 c 1
 -88 1245 -92 1300 -92 1345 c 0
 -92 1490 -33 1571 78 1592 c 1
EndSplineSet
Validated: 1
LCarets2: 1 0 
EndChar

StartChar: qarneypara
Encoding: 1439 1439 21
Width: 0
VWidth: 1954
GlyphClass: 4
Flags: W
HStem: 1334 79<-256.582 -127.553 131.978 256.973> 1585 84<-257.767 -112.265 114.498 260.01>
VStem: -354 82<1428.09 1569.83> -100 80<1426.48 1570.4> 22 80<1427.46 1570.4> 274 80<1428.09 1569.83>
AnchorPoint: "A-55" -380.5 0 mark 0
AnchorPoint: "A-57" -500.5 0 basemark 0
AnchorPoint: "A-56" -0.5 0 basemark 0
AnchorPoint: "A-57" -0.5 0 mark 0
AnchorPoint: "A-32" -0.5 0 mark 0
LayerCount: 2
Fore
SplineSet
102 1501 m 0
 102 1452 142 1413 186 1413 c 0
 232 1413 274 1452 274 1501 c 0
 274 1546 232 1585 186 1585 c 0
 142 1585 102 1546 102 1501 c 0
-38 1203 m 1
 -60 1216 l 1
 -140 1339 l 1
 -154 1336 -170 1334 -184 1334 c 0
 -276 1334 -354 1408 -354 1501 c 0
 -354 1592 -276 1669 -184 1669 c 0
 -92 1669 -20 1592 -20 1501 c 0
 -20 1449 -42 1406 -78 1375 c 1
 -12 1275 l 1
 -2 1270 8 1267 12 1275 c 1
 78 1375 l 1
 44 1406 22 1449 22 1501 c 0
 22 1592 94 1669 186 1669 c 0
 280 1669 354 1592 354 1501 c 0
 354 1408 280 1334 186 1334 c 0
 172 1334 156 1336 144 1339 c 1
 72 1214 l 1
 52 1201 l 1
 30 1196 16 1190 -0 1190 c 0
 -12 1190 -26 1196 -38 1203 c 1
-100 1501 m 0
 -100 1546 -138 1585 -184 1585 c 0
 -230 1585 -272 1546 -272 1501 c 0
 -272 1452 -230 1413 -184 1413 c 0
 -138 1413 -100 1452 -100 1501 c 0
EndSplineSet
Validated: 1
LCarets2: 1 0 
EndChar

StartChar: telishagedola
Encoding: 1440 1440 22
Width: 0
VWidth: 1954
GlyphClass: 4
Flags: W
HStem: 1304 92<-55.4442 86.9774> 1588 89<-71.3562 86.3384>
VStem: -179 90<1411.36 1572.07> 103 88<1412.99 1571.43>
AnchorPoint: "A-55" -178 0 mark 0
AnchorPoint: "A-39" -38 0 mark 0
AnchorPoint: "A-57" -878 0 basemark 0
AnchorPoint: "A-56" -378 0 basemark 0
AnchorPoint: "A-56" -378 0 mark 0
AnchorPoint: "A-26" -178 0 mark 0
LayerCount: 2
Fore
SplineSet
-127 1181 m 1
 -152 1184 -179 1193 -191 1220 c 1
 -186 1242 l 1
 -114 1349 l 1
 -155 1385 -179 1434 -179 1491 c 0
 -179 1593 -96 1677 6 1677 c 0
 108 1677 191 1593 191 1491 c 0
 191 1388 108 1304 6 1304 c 0
 -10 1304 -28 1306 -43 1311 c 1
 -102 1193 l 1
 -127 1181 l 1
-89 1491 m 0
 -89 1437 -46 1396 6 1396 c 0
 60 1396 103 1437 103 1491 c 0
 103 1545 60 1588 6 1588 c 0
 -46 1588 -89 1545 -89 1491 c 0
EndSplineSet
Validated: 1
LCarets2: 1 0 
EndChar

StartChar: pazer
Encoding: 1441 1441 23
Width: 0
VWidth: 1954
GlyphClass: 4
Flags: W
HStem: 1312 120<-46 57.3242>
VStem: -160 108<1202.08 1317 1432 1604> 62 98<1439.06 1615.86>
AnchorPoint: "A-55" -85.5 0 mark 0
AnchorPoint: "A-57" -545.5 0 basemark 0
AnchorPoint: "A-56" -45.5 0 basemark 0
AnchorPoint: "A-57" -45.5 0 mark 0
AnchorPoint: "A-23" -45.5 0 mark 0
LayerCount: 2
Fore
SplineSet
-160 1604 m 17
 -146 1612 -120 1614 -108 1614 c 0
 -52 1604 l 9
 -52 1438 l 17
 -34 1434 -20 1432 -8 1432 c 0
 54 1432 62 1468 62 1524 c 0
 62 1542 62 1560 62 1581 c 0
 62 1592 62 1599 62 1606 c 1
 72 1608 104 1617 118 1617 c 0
 128 1617 142 1612 160 1604 c 1
 160 1479 160 1312 14 1312 c 1
 -4 1312 -26 1312 -46 1317 c 9
 -46 1204 l 17
 -58 1202 -90 1202 -102 1202 c 0
 -120 1202 -146 1202 -160 1208 c 9
 -160 1604 l 17
EndSplineSet
Validated: 1
LCarets2: 1 0 
EndChar

StartChar: atnahhafukh
Encoding: 1442 1442 24
Width: 0
GlyphClass: 4
Flags: W
HStem: -596 220<-47.1525 49.4233>
VStem: -187 88<-344.945 -176.006> -48 98<-595.744 -441.142> 99 88<-343.036 -173.002>
AnchorPoint: "A-42" -224 0 mark 0
AnchorPoint: "A-54" -389 0 basemark 0
AnchorPoint: "A-53" -449 0 basemark 0
AnchorPoint: "A-52" -449 0 basemark 0
AnchorPoint: "A-51" -449 0 basemark 0
AnchorPoint: "A-52" 1 0 mark 0
AnchorPoint: "A-50" -449 0 basemark 0
AnchorPoint: "A-49" -349 0 basemark 0
AnchorPoint: "A-44" 61 0 mark 0
AnchorPoint: "A-40" 1 0 mark 0
LayerCount: 2
Fore
SplineSet
50 -589 m 17
 32 -593 15 -596 -4 -596 c 0
 -18 -596 -32 -594 -48 -589 c 9
 -48 -457 l 17
 -144 -431 -187 -356 -187 -245 c 0
 -187 -224 -185 -203 -182 -181 c 1
 -169 -177 -155 -176 -142 -176 c 0
 -127 -176 -113 -178 -99 -181 c 1
 -99 -192 -99 -207 -99 -226 c 0
 -99 -269 -95 -324 -72 -346 c 1
 -42 -376 -19 -376 0 -376 c 1
 15 -376 42 -376 74 -344 c 1
 95 -324 99 -267 99 -226 c 0
 99 -207 99 -190 99 -181 c 1
 115 -176 129 -173 143 -173 c 0
 156 -173 169 -175 182 -181 c 1
 184 -203 187 -224 187 -243 c 0
 187 -354 146 -431 50 -457 c 9
 50 -589 l 17
EndSplineSet
Validated: 1
MultipleSubs2: "Add hairspace after last low mark subtable" atnahhafukh hairspace
MultipleSubs2: "Add thinspace before narrow letter subtable" atnahhafukh thinspace
MultipleSubs2: "Add hairspace before low marked Qof" atnahhafukh hairspace
EndChar

StartChar: munah
Encoding: 1443 1443 25
Width: 0
GlyphClass: 4
Flags: W
HStem: -552 87<-143.943 58>
VStem: -144 288<-552 -465.795> 58 86<-463 -176.009>
AnchorPoint: "A-42" -228 0 mark 0
AnchorPoint: "A-54" -333 0 basemark 0
AnchorPoint: "A-53" -393 0 basemark 0
AnchorPoint: "A-52" -393 0 basemark 0
AnchorPoint: "A-51" -393 0 basemark 0
AnchorPoint: "A-52" -3 0 mark 0
AnchorPoint: "A-50" -343 0 basemark 0
AnchorPoint: "A-49" -253 0 basemark 0
AnchorPoint: "A-45" 57 0 mark 0
AnchorPoint: "A-40" -3 0 mark 0
LayerCount: 2
Fore
SplineSet
144 -552 m 1xc0
 -137 -552 l 1
 -139 -535 -144 -530 -144 -511 c 0xc0
 -144 -496 -140 -482 -138 -465 c 1
 58 -463 l 1
 58 -183 l 1
 73 -179 83 -176 100 -176 c 0
 122 -176 125 -180 144 -184 c 1xa0
 144 -552 l 1xc0
EndSplineSet
Validated: 1
LCarets2: 1 0 
MultipleSubs2: "Add hairspace after last low mark subtable" munah hairspace
MultipleSubs2: "Add thinspace before narrow letter subtable" munah thinspace
MultipleSubs2: "Add hairspace before low marked Qof" munah hairspace
EndChar

StartChar: mahapakh
Encoding: 1444 1444 26
Width: 0
VWidth: 1954
GlyphClass: 4
Flags: W
HStem: -585 410
VStem: -154 307
AnchorPoint: "A-42" -224.752 0 mark 0
AnchorPoint: "A-54" -339.752 0 basemark 0
AnchorPoint: "A-53" -399.752 0 basemark 0
AnchorPoint: "A-52" -399.752 0 basemark 0
AnchorPoint: "A-51" -399.752 0 basemark 0
AnchorPoint: "A-52" 0.248047 0 mark 0
AnchorPoint: "A-50" -419.752 0 basemark 0
AnchorPoint: "A-49" -349.752 0 basemark 0
AnchorPoint: "A-44" 60.248 0 mark 0
AnchorPoint: "A-40" 0.248047 0 mark 0
LayerCount: 2
Fore
SplineSet
4 -396 m 1
 153 -498 l 1
 140 -520 117 -572 81 -585 c 1
 -154 -400 l 1
 -163 -390 -157 -378 -149 -364 c 1
 88 -175 l 1
 119 -186 158 -218 158 -254 c 1
 9 -362 l 1
 -1 -372 -9 -380 4 -396 c 1
EndSplineSet
Validated: 1
LCarets2: 1 0 
MultipleSubs2: "Add hairspace after last low mark subtable" mahapakh hairspace
MultipleSubs2: "Add thinspace before narrow letter subtable" mahapakh thinspace
MultipleSubs2: "Add hairspace before low marked Qof" mahapakh hairspace
EndChar

StartChar: merkha
Encoding: 1445 1445 27
Width: 0
VWidth: 1954
GlyphClass: 4
Flags: W
HStem: -583 92<-83.2568 -16.8546>
VStem: 5 87<-467.717 -176.036>
AnchorPoint: "A-42" -179 0 mark 0
AnchorPoint: "A-54" -334 0 basemark 0
AnchorPoint: "A-53" -394 0 basemark 0
AnchorPoint: "A-52" -394 0 basemark 0
AnchorPoint: "A-51" -394 0 basemark 0
AnchorPoint: "A-51" -34 0 mark 0
AnchorPoint: "A-50" -314 0 basemark 0
AnchorPoint: "A-49" -304 0 basemark 0
AnchorPoint: "A-43" -4 0 mark 0
AnchorPoint: "A-40" 46 0 mark 0
LayerCount: 2
Fore
SplineSet
-78 -583 m 1
 -91 -551 -92 -531 -92 -491 c 1
 11 -468 2 -403 5 -339 c 0
 6 -320 5 -301 5 -283 c 0
 5 -247 5 -214 5 -191 c 1
 25 -177 17 -176 40 -176 c 0
 50 -176 79 -176 88 -179 c 1
 88 -236 92 -291 92 -336 c 0
 92 -481 33 -562 -78 -583 c 1
EndSplineSet
Validated: 1
LCarets2: 1 0 
MultipleSubs2: "Add hairspace after last low mark subtable" merkha hairspace
MultipleSubs2: "Add thinspace before narrow letter subtable" merkha thinspace
MultipleSubs2: "Add hairspace before low marked Qof" merkha hairspace
EndChar

StartChar: darga
Encoding: 1447 1447 29
Width: 0
GlyphClass: 4
Flags: W
HStem: -261 85<-25.9332 97.9541>
VStem: -126 90<-348.7 -281.664> 24 102<-511.146 -434.139>
AnchorPoint: "A-42" -227.5 0 mark 0
AnchorPoint: "A-54" -322.5 0 basemark 0
AnchorPoint: "A-53" -382.5 0 basemark 0
AnchorPoint: "A-52" -382.5 0 basemark 0
AnchorPoint: "A-51" -382.5 0 basemark 0
AnchorPoint: "A-52" -2.5 0 mark 0
AnchorPoint: "A-50" -392.5 0 basemark 0
AnchorPoint: "A-49" -302.5 0 basemark 0
AnchorPoint: "A-43" -2.5 0 mark 0
AnchorPoint: "A-40" -2.5 0 mark 0
LayerCount: 2
Fore
SplineSet
90 -261 m 1
 42 -274 -36 -280 -36 -329 c 1
 -36 -366 126 -329 126 -457 c 1
 126 -583 -38 -611 -90 -611 c 1
 -108 -611 l 1
 -112 -600 -114 -588 -114 -575 c 0
 -114 -560 -112 -547 -106 -532 c 1
 -78 -521 24 -526 24 -460 c 1
 18 -410 -126 -464 -126 -329 c 1
 -126 -204 36 -176 80 -176 c 0
 88 -176 92 -176 92 -178 c 0
 98 -191 98 -204 98 -216 c 0
 98 -233 94 -248 90 -261 c 1
EndSplineSet
Validated: 1
LCarets2: 1 0 
MultipleSubs2: "Add hairspace after last low mark subtable" darga hairspace
MultipleSubs2: "Add thinspace before narrow letter subtable" darga thinspace
MultipleSubs2: "Add hairspace before low marked Qof" darga hairspace
EndChar

StartChar: qadma
Encoding: 1448 1448 30
Width: 0
VWidth: 1954
GlyphClass: 4
Flags: W
HStem: 1502 92<-83.2568 -29.804>
VStem: -6 98<1187.03 1483.34>
AnchorPoint: "A-55" -18 0 mark 0
AnchorPoint: "A-57" -448 0 basemark 0
AnchorPoint: "A-56" 52 0 basemark 0
AnchorPoint: "A-57" 52 0 mark 0
AnchorPoint: "A-23" 52 0 mark 0
LayerCount: 2
Fore
SplineSet
-78 1594 m 1
 33 1573 92 1492 92 1347 c 0
 92 1302 88 1247 88 1190 c 1
 79 1187 49 1187 39 1187 c 0
 16 1187 20 1191 0 1205 c 1
 0 1239 -6 1296 -6 1349 c 0
 -6 1413 -14 1489 -92 1502 c 1
 -92 1542 -91 1562 -78 1594 c 1
EndSplineSet
Validated: 1
LCarets2: 1 0 
EndChar

StartChar: telishaqetana
Encoding: 1449 1449 31
Width: 0
VWidth: 1954
GlyphClass: 4
Flags: W
HStem: 1304 88<-83.1223 55.3403> 1584 92<-85.824 75.0782>
VStem: -191 90<1408.02 1567.47> 91 86<1409.35 1566.83>
AnchorPoint: "A-55" -119 0 mark 0
AnchorPoint: "A-36" 51 0 mark 0
AnchorPoint: "A-57" -109 0 basemark 0
AnchorPoint: "A-56" 391 0 basemark 0
AnchorPoint: "A-57" 391 0 mark 0
AnchorPoint: "A-30" 491 0 mark 0
LayerCount: 2
Fore
SplineSet
127 1179 m 1
 103 1191 l 1
 44 1310 l 1
 30 1306 12 1304 -4 1304 c 0
 -109 1304 -191 1387 -191 1489 c 0
 -191 1593 -109 1676 -4 1676 c 0
 96 1676 177 1593 177 1489 c 0
 177 1432 155 1383 116 1348 c 1
 188 1240 l 1
 191 1218 l 1
 177 1191 152 1184 127 1179 c 1
91 1489 m 0
 91 1540 47 1584 -4 1584 c 0
 -58 1584 -101 1540 -101 1489 c 0
 -101 1435 -58 1392 -4 1392 c 0
 47 1392 91 1435 91 1489 c 0
EndSplineSet
Validated: 1
LCarets2: 1 0 
EndChar

StartChar: yerahbenyomo
Encoding: 1450 1450 32
Width: 0
GlyphClass: 4
Flags: W
HStem: -590 218<-47.1525 49.4233>
VStem: -187 88<-338.945 -170.006> -48 98<-589.744 -435.142> 99 88<-337.036 -167.002>
AnchorPoint: "A-42" -224 0 mark 0
AnchorPoint: "A-54" -389 0 basemark 0
AnchorPoint: "A-53" -449 0 basemark 0
AnchorPoint: "A-52" -449 0 basemark 0
AnchorPoint: "A-51" -449 0 basemark 0
AnchorPoint: "A-52" 1 0 mark 0
AnchorPoint: "A-50" -469 0 basemark 0
AnchorPoint: "A-49" -399 0 basemark 0
AnchorPoint: "A-44" 61 0 mark 0
AnchorPoint: "A-40" 1 0 mark 0
LayerCount: 2
Fore
SplineSet
50 -583 m 17
 32 -587 15 -590 -4 -590 c 0
 -18 -590 -32 -588 -48 -583 c 9
 -48 -451 l 17
 -144 -425 -187 -350 -187 -240 c 0
 -187 -218 -185 -197 -182 -176 c 1
 -168 -172 -155 -170 -142 -170 c 0
 -127 -170 -113 -172 -99 -176 c 1
 -99 -186 -99 -201 -99 -220 c 0
 -99 -263 -95 -318 -72 -340 c 1
 -42 -370 -19 -372 0 -372 c 1
 15 -372 42 -370 74 -338 c 1
 95 -318 99 -261 99 -220 c 0
 99 -201 99 -184 99 -176 c 1
 115 -170 129 -167 143 -167 c 0
 156 -167 169 -170 182 -176 c 1
 184 -197 187 -218 187 -237 c 0
 187 -348 146 -425 50 -451 c 9
 50 -583 l 17
EndSplineSet
Validated: 1
LCarets2: 1 0 
MultipleSubs2: "Add hairspace after last low mark subtable" yerahbenyomo hairspace
MultipleSubs2: "Add thinspace before narrow letter subtable" yerahbenyomo thinspace
MultipleSubs2: "Add hairspace before low marked Qof" yerahbenyomo hairspace
EndChar

StartChar: ole
Encoding: 1451 1451 33
Width: 0
VWidth: 1954
GlyphClass: 4
Flags: W
HStem: 1210 410
VStem: -154 307
AnchorPoint: "A-55" -129.195 0 mark 0
AnchorPoint: "A-57" -559.195 0 basemark 0
AnchorPoint: "A-56" -59.1953 0 basemark 0
AnchorPoint: "A-57" -59.1953 0 mark 0
AnchorPoint: "A-23" -59.1953 0 mark 0
LayerCount: 2
Fore
SplineSet
4 1400 m 1
 153 1300 l 1
 140 1275 117 1223 81 1210 c 1
 -154 1395 l 1
 -161 1408 -157 1420 -149 1431 c 1
 89 1620 l 1
 119 1610 155 1580 158 1541 c 1
 10 1433 l 1
 -1 1426 -8 1415 4 1400 c 1
EndSplineSet
Validated: 1
LCarets2: 1 0 
EndChar

StartChar: iluy
Encoding: 1452 1452 34
Width: 0
VWidth: 1954
GlyphClass: 4
Flags: W
HStem: 1189 134<-143.365 28>
VStem: 28 118<1323 1606.94>
AnchorPoint: "A-55" -119.5 0 mark 0
AnchorPoint: "A-57" -529.5 0 basemark 0
AnchorPoint: "A-56" -29.5 0 basemark 0
AnchorPoint: "A-57" -29.5 0 mark 0
AnchorPoint: "A-23" -29.5 0 mark 0
LayerCount: 2
Fore
SplineSet
146 1189 m 1
 -146 1189 l 1
 -146 1195 -146 1202 -146 1212 c 0
 -146 1226 -146 1251 -146 1256 c 0
 -146 1277 -138 1297 -132 1323 c 1
 28 1323 l 1
 28 1601 l 1
 44 1606 74 1608 90 1608 c 0
 102 1608 132 1601 146 1595 c 1
 146 1189 l 1
EndSplineSet
Validated: 1
LCarets2: 1 0 
EndChar

StartChar: dehi
Encoding: 1453 1453 35
Width: 0
VWidth: 1954
GlyphClass: 4
Flags: W
HStem: -583 92<29.804 83.2568>
VStem: -92 98<-472.336 -176.027>
AnchorPoint: "A-69" -348 0 mark 0
AnchorPoint: "A-68" -468 0 mark 0
AnchorPoint: "A-67" -568 0 mark 0
AnchorPoint: "A-66" -408 0 mark 0
AnchorPoint: "A-65" -538 0 mark 0
AnchorPoint: "A-64" -668 0 mark 0
AnchorPoint: "A-46" -468 0 mark 0
AnchorPoint: "A-41" -468 0 mark 0
LayerCount: 2
Fore
SplineSet
78 -583 m 1
 -33 -562 -92 -481 -92 -336 c 0
 -92 -291 -88 -236 -88 -179 c 1
 -79 -176 -50 -176 -40 -176 c 0
 -17 -176 -20 -180 0 -194 c 1
 0 -228 6 -285 6 -338 c 0
 6 -402 14 -478 92 -491 c 1
 92 -531 91 -551 78 -583 c 1
EndSplineSet
Validated: 1
LCarets2: 1 0 
MultipleSubs2: "Add hairspace after last low mark subtable" dehi hairspace
MultipleSubs2: "Add thinspace before narrow letter subtable" dehi thinspace
EndChar

StartChar: tsinor
Encoding: 1454 1454 36
Width: 0
VWidth: 1954
GlyphClass: 4
Flags: W
HStem: 1192 80<57.8346 168.169> 1387 71<-165.283 -62.8538>
VStem: -253 79<1258.84 1385.48> 174 79<1274.61 1386.85>
AnchorPoint: "A-33" 476 0 mark 0
AnchorPoint: "A-28" 476 0 mark 0
LayerCount: 2
Fore
SplineSet
138 1387 m 0
 136 1387 133 1397 131 1408 c 25
 154 1456 l 25
 174 1458 l 17
 210 1433 253 1415 253 1318 c 1
 253 1246 192 1200 120 1192 c 1
 43 1192 23 1228 -13 1272 c 1
 -52 1336 -59 1366 -115 1387 c 1
 -118 1387 -120 1387 -126 1387 c 0
 -151 1387 -174 1351 -174 1322 c 11
 -174 1292 -136 1264 -136 1264 c 25
 -133 1241 l 25
 -154 1205 l 25
 -176 1198 l 17
 -212 1223 -253 1243 -253 1318 c 1
 -253 1404 -185 1458 -120 1458 c 1
 -77 1458 -41 1438 -11 1410 c 1
 25 1356 61 1295 100 1272 c 1
 108 1272 110 1272 118 1272 c 0
 151 1272 164 1295 174 1325 c 1
 174 1333 l 0
 174 1363 143 1384 138 1387 c 0
EndSplineSet
Validated: 1
LCarets2: 1 0 
EndChar

StartChar: masoracircle
Encoding: 1455 1455 37
Width: 0
VWidth: 1954
GlyphClass: 4
Flags: W
HStem: 1322 95<-78.3533 79.3348> 1618 93<-78.3533 79.3348>
VStem: -190 95<1432.58 1601.38> 97 93<1435.37 1600.71>
AnchorPoint: "A-55" -90 0 mark 0
AnchorPoint: "A-57" -500 0 basemark 0
AnchorPoint: "A-56" 0 0 basemark 0
AnchorPoint: "A-57" 0 0 mark 0
AnchorPoint: "A-24" 0 0 mark 0
LayerCount: 2
Fore
SplineSet
-95 1516 m 0
 -95 1462 -53 1417 0 1417 c 0
 52 1417 97 1462 97 1516 c 0
 97 1573 52 1618 0 1618 c 0
 -53 1618 -95 1573 -95 1516 c 0
-190 1516 m 0
 -190 1624 -104 1711 0 1711 c 0
 106 1711 190 1624 190 1516 c 0
 190 1410 106 1322 0 1322 c 0
 -104 1322 -190 1410 -190 1516 c 0
EndSplineSet
Validated: 1
LCarets2: 1 0 
EndChar

StartChar: sheva
Encoding: 1456 1456 38
Width: 0
VWidth: 1877
GlyphClass: 4
Flags: W
HStem: -574 398
VStem: -88 176
AnchorPoint: "A-17" -50.5 0 mark 0
AnchorPoint: "A-14" -50.5 0 mark 0
AnchorPoint: "A-11" -350.5 0 mark 0
AnchorPoint: "A-8" -175.5 0 mark 0
AnchorPoint: "A-70" -0.5 0 mark 0
AnchorPoint: "A-50" -0.5 0 basemark 0
AnchorPoint: "A-49" -250.5 0 basemark 0
AnchorPoint: "A-49" -0.5 0 mark 0
AnchorPoint: "A-48" -260.5 0 basemark 0
AnchorPoint: "A-47" -210.5 0 basemark 0
AnchorPoint: "A-46" -180.5 0 basemark 0
AnchorPoint: "A-45" -300.5 0 basemark 0
AnchorPoint: "A-44" -300.5 0 basemark 0
AnchorPoint: "A-43" -300.5 0 basemark 0
AnchorPoint: "A-4" -0.5 0 mark 0
LayerCount: 2
Fore
SplineSet
-88 -485 m 1
 -64 -447 -38 -420 -0 -396 c 1
 38 -420 64 -447 88 -485 c 1
 64 -524 38 -551 -0 -574 c 1
 -38 -551 -64 -524 -88 -485 c 1
-88 -265 m 1
 -64 -225 -38 -198 -0 -176 c 1
 38 -198 64 -225 88 -265 c 1
 64 -302 38 -329 -0 -353 c 1
 -38 -329 -64 -302 -88 -265 c 1
EndSplineSet
Validated: 1
LCarets2: 1 0 
MultipleSubs2: "Add hairspace after last low mark subtable" sheva hairspace
MultipleSubs2: "Add thinspace before narrow letter subtable" sheva thinspace
MultipleSubs2: "Add hairspace before low marked Qof" sheva hairspace
EndChar

StartChar: hatafsegol
Encoding: 1457 1457 39
Width: 0
VWidth: 1877
GlyphClass: 4
Flags: W
HStem: -590 414
AnchorPoint: "A-19" -56 0 mark 0
AnchorPoint: "A-16" -56 0 mark 0
AnchorPoint: "A-13" -356 0 mark 0
AnchorPoint: "A-10" -181 0 mark 0
AnchorPoint: "A-73" -6 0 mark 0
AnchorPoint: "A-50" -6 0 basemark 0
AnchorPoint: "A-49" -566 0 basemark 0
AnchorPoint: "A-48" -536 0 basemark 0
AnchorPoint: "A-47" 34 0 basemark 0
AnchorPoint: "A-46" 74 0 basemark 0
AnchorPoint: "A-45" -556 0 basemark 0
AnchorPoint: "A-44" -556 0 basemark 0
AnchorPoint: "A-43" -556 0 basemark 0
AnchorPoint: "A-6" -6 0 mark 0
LayerCount: 2
Fore
SplineSet
-232 -501 m 1
 -210 -464 -181 -437 -143 -413 c 1
 -106 -437 -78 -464 -54 -501 c 1
 -78 -541 -106 -568 -143 -590 c 1
 -181 -568 -210 -541 -232 -501 c 1
181 -501 m 1
 203 -464 231 -437 268 -413 c 1
 307 -437 335 -464 357 -501 c 1
 335 -541 307 -568 268 -590 c 1
 231 -568 203 -541 181 -501 c 1
190 -265 m 1
 212 -226 240 -199 277 -176 c 1
 316 -199 344 -226 366 -265 c 1
 344 -303 316 -330 277 -354 c 1
 240 -330 212 -303 190 -265 c 1
-95 -264 m 1
 -71 -224 -44 -197 -6 -175 c 1
 31 -197 60 -224 83 -264 c 1
 60 -301 31 -328 -6 -352 c 1
 -44 -328 -71 -301 -95 -264 c 1
-366 -265 m 1
 -344 -226 -317 -198 -277 -176 c 1
 -240 -198 -212 -226 -190 -265 c 1
 -212 -302 -240 -330 -277 -354 c 1
 -317 -330 -344 -302 -366 -265 c 1
EndSplineSet
Validated: 1
LCarets2: 1 0 
MultipleSubs2: "Add hairspace after last low mark subtable" hatafsegol hairspace
MultipleSubs2: "Add thinspace before narrow letter subtable" hatafsegol thinspace
MultipleSubs2: "Add hairspace before low marked Qof" hatafsegol hairspace
EndChar

StartChar: hatafpatah
Encoding: 1458 1458 40
Width: 0
VWidth: 1877
GlyphClass: 4
Flags: W
HStem: -290 97<-290.694 11.598>
VStem: -316 632
AnchorPoint: "A-19" -59 0 mark 0
AnchorPoint: "A-16" -59 0 mark 0
AnchorPoint: "A-13" -359 0 mark 0
AnchorPoint: "A-10" -184 0 mark 0
AnchorPoint: "A-73" -9 0 mark 0
AnchorPoint: "A-50" -9 0 basemark 0
AnchorPoint: "A-49" -519 0 basemark 0
AnchorPoint: "A-48" -499 0 basemark 0
AnchorPoint: "A-47" 31 0 basemark 0
AnchorPoint: "A-46" 51 0 basemark 0
AnchorPoint: "A-45" -539 0 basemark 0
AnchorPoint: "A-44" -529 0 basemark 0
AnchorPoint: "A-43" -539 0 basemark 0
AnchorPoint: "A-6" -9 0 mark 0
LayerCount: 2
Fore
SplineSet
-283 -193 m 1
 35 -193 l 1
 35 -228 21 -259 5 -290 c 1
 -316 -290 l 17
 -316 -253 -302 -224 -283 -193 c 1
139 -487 m 1
 163 -449 190 -422 227 -398 c 1
 265 -422 292 -449 316 -487 c 1
 292 -526 265 -553 227 -576 c 1
 190 -553 163 -526 139 -487 c 1
139 -267 m 1
 163 -227 190 -200 227 -178 c 1
 265 -200 292 -227 316 -267 c 1
 292 -304 265 -331 227 -355 c 1
 190 -331 163 -304 139 -267 c 1
EndSplineSet
Validated: 1
LCarets2: 1 0 
MultipleSubs2: "Add hairspace after last low mark subtable" hatafpatah hairspace
MultipleSubs2: "Add thinspace before narrow letter subtable" hatafpatah thinspace
MultipleSubs2: "Add hairspace before low marked Qof" hatafpatah hairspace
EndChar

StartChar: hatafqamats
Encoding: 1459 1459 41
Width: 0
GlyphClass: 4
Flags: W
HStem: -292 97<-295.855 -188 -92 21.1247>
VStem: -188 96<-534.996 -292>
AnchorPoint: "A-19" -46.5 0 mark 0
AnchorPoint: "A-16" -46.5 0 mark 0
AnchorPoint: "A-13" -346.5 0 mark 0
AnchorPoint: "A-10" -171.5 0 mark 0
AnchorPoint: "A-73" 3.5 0 mark 0
AnchorPoint: "A-50" 3.5 0 basemark 0
AnchorPoint: "A-49" -526.5 0 basemark 0
AnchorPoint: "A-48" -506.5 0 basemark 0
AnchorPoint: "A-47" 33.5 0 basemark 0
AnchorPoint: "A-46" 43.5 0 basemark 0
AnchorPoint: "A-45" -546.5 0 basemark 0
AnchorPoint: "A-44" -546.5 0 basemark 0
AnchorPoint: "A-43" -546.5 0 basemark 0
AnchorPoint: "A-6" 3.5 0 mark 0
LayerCount: 2
Fore
SplineSet
14 -292 m 1
 -92 -292 l 1
 -92 -532 l 1
 -108 -535 -126 -535 -142 -535 c 1
 -158 -535 -172 -535 -188 -532 c 1
 -188 -292 l 1
 -322 -292 l 17
 -318 -255 -308 -226 -288 -195 c 1
 46 -195 l 1
 42 -230 32 -261 14 -292 c 1
144 -487 m 1
 168 -449 196 -422 232 -398 c 1
 270 -422 298 -449 322 -487 c 1
 298 -526 270 -553 232 -576 c 1
 196 -553 168 -526 144 -487 c 1
144 -267 m 1
 168 -227 196 -200 232 -178 c 1
 270 -200 298 -227 322 -267 c 1
 298 -304 270 -331 232 -355 c 1
 196 -331 168 -304 144 -267 c 1
EndSplineSet
Validated: 1
LCarets2: 1 0 
MultipleSubs2: "Add hairspace after last low mark subtable" hatafqamats hairspace
MultipleSubs2: "Add thinspace before narrow letter subtable" hatafqamats thinspace
MultipleSubs2: "Add hairspace before low marked Qof" hatafqamats hairspace
EndChar

StartChar: hiriq
Encoding: 1460 1460 42
Width: 0
VWidth: 1877
GlyphClass: 4
Flags: W
HStem: -354 177
VStem: -88 176
AnchorPoint: "A-59" 272.5 0 mark 0
AnchorPoint: "A-17" -48.5 0 mark 0
AnchorPoint: "A-14" -48.5 0 mark 0
AnchorPoint: "A-11" -348.5 0 mark 0
AnchorPoint: "A-8" -173.5 0 mark 0
AnchorPoint: "A-70" 1.5 0 mark 0
AnchorPoint: "A-50" 1.5 0 basemark 0
AnchorPoint: "A-49" -248.5 0 basemark 0
AnchorPoint: "A-49" 1.5 0 mark 0
AnchorPoint: "A-48" -238.5 0 basemark 0
AnchorPoint: "A-47" -208.5 0 basemark 0
AnchorPoint: "A-46" -188.5 0 basemark 0
AnchorPoint: "A-45" -298.5 0 basemark 0
AnchorPoint: "A-44" -298.5 0 basemark 0
AnchorPoint: "A-43" -298.5 0 basemark 0
AnchorPoint: "A-4" 1.5 0 mark 0
LayerCount: 2
Fore
SplineSet
-88 -266 m 1
 -64 -226 -38 -199 -0 -177 c 1
 38 -199 64 -226 88 -266 c 1
 64 -303 38 -330 -0 -354 c 1
 -38 -330 -64 -303 -88 -266 c 1
EndSplineSet
Validated: 1
LCarets2: 1 0 
MultipleSubs2: "Add hairspace after last low mark subtable" hiriq hairspace
MultipleSubs2: "Add thinspace before narrow letter subtable" hiriq thinspace
MultipleSubs2: "Add hairspace before low marked Qof" hiriq hairspace
EndChar

StartChar: tsere
Encoding: 1461 1461 43
Width: 0
VWidth: 1877
GlyphClass: 4
Flags: W
HStem: -353 177
VStem: -217 434
AnchorPoint: "A-18" -50 0 mark 0
AnchorPoint: "A-15" -50 0 mark 0
AnchorPoint: "A-12" -350 0 mark 0
AnchorPoint: "A-9" -175 0 mark 0
AnchorPoint: "A-71" 0 0 mark 0
AnchorPoint: "A-50" 0 0 basemark 0
AnchorPoint: "A-49" -410 0 basemark 0
AnchorPoint: "A-48" -390 0 basemark 0
AnchorPoint: "A-47" -100 0 basemark 0
AnchorPoint: "A-46" -80 0 basemark 0
AnchorPoint: "A-45" -430 0 basemark 0
AnchorPoint: "A-44" -400 0 basemark 0
AnchorPoint: "A-43" -430 0 basemark 0
AnchorPoint: "A-5" 0 0 mark 0
LayerCount: 2
Fore
SplineSet
41 -265 m 1
 63 -225 91 -198 130 -176 c 1
 168 -198 195 -225 217 -265 c 1
 195 -302 168 -329 130 -353 c 1
 91 -329 63 -302 41 -265 c 1
-217 -265 m 1
 -195 -225 -168 -198 -130 -176 c 1
 -91 -198 -63 -225 -41 -265 c 1
 -63 -302 -91 -329 -130 -353 c 1
 -168 -329 -195 -302 -217 -265 c 1
EndSplineSet
Validated: 1
LCarets2: 1 0 
MultipleSubs2: "Add hairspace after last low mark subtable" tsere hairspace
MultipleSubs2: "Add thinspace before narrow letter subtable" tsere thinspace
MultipleSubs2: "Add hairspace before low marked Qof" tsere hairspace
EndChar

StartChar: segol
Encoding: 1462 1462 44
Width: 0
VWidth: 1877
GlyphClass: 4
Flags: W
HStem: -588 412
VStem: -226 452
AnchorPoint: "A-18" -50 0 mark 0
AnchorPoint: "A-15" -50 0 mark 0
AnchorPoint: "A-12" -350 0 mark 0
AnchorPoint: "A-9" -175 0 mark 0
AnchorPoint: "A-71" 0 0 mark 0
AnchorPoint: "A-50" 0 0 basemark 0
AnchorPoint: "A-49" -410 0 basemark 0
AnchorPoint: "A-48" -390 0 basemark 0
AnchorPoint: "A-47" -100 0 basemark 0
AnchorPoint: "A-46" -50 0 basemark 0
AnchorPoint: "A-45" -430 0 basemark 0
AnchorPoint: "A-44" -400 0 basemark 0
AnchorPoint: "A-43" -430 0 basemark 0
AnchorPoint: "A-5" 0 0 mark 0
LayerCount: 2
Fore
SplineSet
-89 -499 m 1
 -65 -461 -38 -434 0 -410 c 1
 37 -434 65 -461 89 -499 c 1
 65 -538 37 -565 0 -588 c 1
 -38 -565 -65 -538 -89 -499 c 1
50 -265 m 1
 72 -226 100 -198 139 -176 c 1
 177 -198 204 -226 226 -265 c 1
 204 -302 177 -330 139 -354 c 1
 100 -330 72 -302 50 -265 c 1
-226 -265 m 1
 -204 -225 -177 -198 -139 -176 c 1
 -100 -198 -72 -225 -50 -265 c 1
 -72 -302 -100 -329 -139 -353 c 1
 -177 -329 -204 -302 -226 -265 c 1
EndSplineSet
Validated: 1
LCarets2: 1 0 
MultipleSubs2: "Add hairspace after last low mark subtable" segol hairspace
MultipleSubs2: "Add thinspace before narrow letter subtable" segol thinspace
MultipleSubs2: "Add hairspace before low marked Qof" segol hairspace
EndChar

StartChar: patah
Encoding: 1463 1463 45
Width: 0
VWidth: 1877
GlyphClass: 4
Flags: W
HStem: -273 97<-150.059 152.598>
VStem: -176 352<-271.547 -177.452>
AnchorPoint: "A-18" -50.5 0 mark 0
AnchorPoint: "A-15" -50.5 0 mark 0
AnchorPoint: "A-12" -350.5 0 mark 0
AnchorPoint: "A-9" -175.5 0 mark 0
AnchorPoint: "A-71" -0.5 0 mark 0
AnchorPoint: "A-50" -0.5 0 basemark 0
AnchorPoint: "A-49" -380.5 0 basemark 0
AnchorPoint: "A-50" -0.5 0 mark 0
AnchorPoint: "A-48" -340.5 0 basemark 0
AnchorPoint: "A-47" -110.5 0 basemark 0
AnchorPoint: "A-46" -90.5 0 basemark 0
AnchorPoint: "A-45" -400.5 0 basemark 0
AnchorPoint: "A-44" -370.5 0 basemark 0
AnchorPoint: "A-43" -400.5 0 basemark 0
AnchorPoint: "A-5" -0.5 0 mark 0
LayerCount: 2
Fore
SplineSet
-142 -176 m 1
 176 -176 l 1
 176 -211 162 -242 146 -273 c 1
 -176 -273 l 17
 -176 -236 -162 -207 -142 -176 c 1
EndSplineSet
Validated: 1
LCarets2: 1 0 
MultipleSubs2: "Add hairspace after last low mark subtable" patah hairspace
MultipleSubs2: "Add thinspace before narrow letter subtable" patah thinspace
MultipleSubs2: "Add hairspace before low marked Qof" patah hairspace
EndChar

StartChar: qamats
Encoding: 1464 1464 46
Width: 0
VWidth: 1877
GlyphClass: 4
Flags: W
HStem: -291 97<-157.855 -50 46 159.125>
VStem: -50 96<-533.996 -291>
AnchorPoint: "A-18" -49.5 0 mark 0
AnchorPoint: "A-15" -49.5 0 mark 0
AnchorPoint: "A-12" -349.5 0 mark 0
AnchorPoint: "A-9" -174.5 0 mark 0
AnchorPoint: "A-71" 0.5 0 mark 0
AnchorPoint: "A-50" 0.5 0 basemark 0
AnchorPoint: "A-49" -379.5 0 basemark 0
AnchorPoint: "A-48" -339.5 0 basemark 0
AnchorPoint: "A-47" -109.5 0 basemark 0
AnchorPoint: "A-46" -69.5 0 basemark 0
AnchorPoint: "A-45" -399.5 0 basemark 0
AnchorPoint: "A-44" -359.5 0 basemark 0
AnchorPoint: "A-43" -399.5 0 basemark 0
AnchorPoint: "A-5" 0.5 0 mark 0
LayerCount: 2
Fore
SplineSet
152 -291 m 1
 46 -291 l 1
 46 -531 l 1
 30 -534 12 -534 -4 -534 c 1
 -20 -534 -34 -534 -50 -531 c 1
 -50 -291 l 1
 -184 -291 l 17
 -180 -254 -170 -225 -150 -194 c 1
 184 -194 l 1
 180 -229 170 -260 152 -291 c 1
EndSplineSet
Validated: 1
LCarets2: 1 0 
MultipleSubs2: "Add hairspace after last low mark subtable" qamats hairspace
MultipleSubs2: "Add thinspace before narrow letter subtable" qamats thinspace
MultipleSubs2: "Add hairspace before low marked Qof" qamats hairspace
EndChar

StartChar: holam
Encoding: 1465 1465 47
Width: 0
VWidth: 1774
GlyphClass: 4
Flags: W
HStem: 1208 175
VStem: -300 177
AnchorPoint: "A-35" -613 0 basemark 0
AnchorPoint: "A-34" 327 0 basemark 0
AnchorPoint: "A-33" 22 200 basemark 0
AnchorPoint: "A-22" -463 0 mark 0
AnchorPoint: "A-21" -395 0 mark 0
AnchorPoint: "A-20" -313 0 mark 0
LayerCount: 2
Fore
SplineSet
-300 1296 m 1
 -277 1334 -249 1361 -212 1383 c 1
 -174 1361 -147 1334 -123 1296 c 1
 -147 1257 -174 1230 -212 1208 c 1
 -249 1230 -277 1257 -300 1296 c 1
EndSplineSet
Validated: 1
LCarets2: 1 0 
Position2: "Move Holam to Left subtable" dx=-190 dy=0 dh=0 dv=0
EndChar

StartChar: qubuts
Encoding: 1467 1467 49
Width: 0
VWidth: 1877
GlyphClass: 4
Flags: W
HStem: -608 445
VStem: -273 546
AnchorPoint: "A-18" -50 0 mark 0
AnchorPoint: "A-15" -50 0 mark 0
AnchorPoint: "A-12" -350 0 mark 0
AnchorPoint: "A-9" -175 0 mark 0
AnchorPoint: "A-72" 0 0 mark 0
AnchorPoint: "A-50" 0 0 basemark 0
AnchorPoint: "A-49" -440 0 basemark 0
AnchorPoint: "A-48" -420 0 basemark 0
AnchorPoint: "A-47" -70 0 basemark 0
AnchorPoint: "A-46" -30 0 basemark 0
AnchorPoint: "A-45" -450 0 basemark 0
AnchorPoint: "A-44" -450 0 basemark 0
AnchorPoint: "A-43" -450 0 basemark 0
AnchorPoint: "A-5" 0 0 mark 0
LayerCount: 2
Fore
SplineSet
97 -519 m 1
 120 -481 147 -454 184 -430 c 1
 224 -454 251 -481 273 -519 c 1
 251 -558 224 -585 184 -608 c 1
 147 -585 120 -558 97 -519 c 1
-88 -384 m 1
 -64 -346 -37 -319 0 -297 c 1
 38 -319 65 -346 89 -384 c 1
 65 -423 38 -450 0 -473 c 1
 -37 -450 -64 -423 -88 -384 c 1
-273 -252 m 1
 -251 -212 -224 -185 -185 -163 c 1
 -147 -185 -120 -212 -98 -252 c 1
 -120 -289 -147 -316 -185 -340 c 1
 -224 -316 -251 -289 -273 -252 c 1
EndSplineSet
Validated: 1
LCarets2: 1 0 
MultipleSubs2: "Add hairspace after last low mark subtable" qubuts hairspace
MultipleSubs2: "Add thinspace before narrow letter subtable" qubuts thinspace
MultipleSubs2: "Add hairspace before low marked Qof" qubuts hairspace
EndChar

StartChar: dagesh
Encoding: 1468 1468 50
Width: 0
GlyphClass: 4
Flags: W
HStem: 414 208
VStem: -104 208
AnchorPoint: "A-3" 0 0 mark 0
LayerCount: 2
Fore
SplineSet
-104 518 m 1
 -75 557 -43 590 0 622 c 1
 41 591 73 559 104 518 c 1
 71 477 39 445 0 414 c 1
 -40 445 -72 477 -104 518 c 1
EndSplineSet
Validated: 1
LCarets2: 1 0 
EndChar

StartChar: meteg
Encoding: 1469 1469 51
Width: 0
VWidth: 1706
GlyphClass: 4
Flags: W
HStem: -573 397<-47.25 47.25>
VStem: -48 96<-572.977 -176.023>
AnchorPoint: "A-63" -180.5 0 mark 0
AnchorPoint: "A-62" -320.5 0 mark 0
AnchorPoint: "A-61" -450.5 0 mark 0
AnchorPoint: "A-17" -50.5 0 mark 0
AnchorPoint: "A-11" -375.5 0 mark 0
AnchorPoint: "A-8" -200.5 0 mark 0
AnchorPoint: "A-73" -500.5 0 basemark 0
AnchorPoint: "A-72" -400.5 0 basemark 0
AnchorPoint: "A-71" -360.5 0 basemark 0
AnchorPoint: "A-70" -280.5 0 basemark 0
AnchorPoint: "A-54" -300.5 0 basemark 0
AnchorPoint: "A-53" -350.5 0 basemark 0
AnchorPoint: "A-52" -350.5 0 basemark 0
AnchorPoint: "A-51" -350.5 0 basemark 0
AnchorPoint: "A-54" -30.5 0 mark 0
AnchorPoint: "A-50" -340.5 0 basemark 0
AnchorPoint: "A-49" -250.5 0 basemark 0
AnchorPoint: "A-48" -300.5 0 basemark 0
AnchorPoint: "A-47" -220.5 0 basemark 0
AnchorPoint: "A-46" -240.5 0 basemark 0
AnchorPoint: "A-45" -330.5 0 basemark 0
AnchorPoint: "A-44" -330.5 0 basemark 0
AnchorPoint: "A-43" -300.5 0 basemark 0
AnchorPoint: "A-48" -30.5 0 mark 0
AnchorPoint: "A-4" -0.5 0 mark 0
LayerCount: 2
Fore
SplineSet
48 -182 m 1
 48 -567 l 1
 32 -571 16 -573 -0 -573 c 0
 -16 -573 -32 -571 -48 -567 c 1
 -48 -182 l 17
 -32 -178 -16 -176 -0 -176 c 0
 16 -176 32 -178 48 -182 c 1
EndSplineSet
Validated: 1
LCarets2: 1 0 
MultipleSubs2: "Add hairspace after last low mark subtable" meteg hairspace
MultipleSubs2: "Add thinspace before narrow letter subtable" meteg thinspace
MultipleSubs2: "Add hairspace before low marked Qof" meteg hairspace
EndChar

StartChar: makaf
Encoding: 1470 1470 52
Width: 755
GlyphClass: 2
Flags: W
HStem: 838 178<135.508 619.492>
VStem: 100 555
AnchorPoint: "A-32" 382 0 basechar 0
AnchorPoint: "A-31" 382 0 basechar 0
AnchorPoint: "A-30" 482 0 basechar 0
AnchorPoint: "A-29" 482 0 basechar 0
AnchorPoint: "A-28" 562 0 basechar 0
AnchorPoint: "A-27" 62 0 basechar 0
AnchorPoint: "A-26" 562 0 basechar 0
AnchorPoint: "A-25" 62 0 basechar 0
AnchorPoint: "A-24" 382 0 basechar 0
AnchorPoint: "A-23" 382 0 basechar 0
LayerCount: 2
Fore
SplineSet
141 1016 m 1
 655 1016 l 1
 655 950 638 896 614 838 c 1
 100 838 l 17
 100 904 117 961 141 1016 c 1
EndSplineSet
EndChar

StartChar: rafe
Encoding: 1471 1471 53
Width: 0
VWidth: 1877
GlyphClass: 4
Flags: W
HStem: 1203 119<-206.449 207.452>
VStem: -240 482
AnchorPoint: "A-24" 0 0 mark 0
LayerCount: 2
Fore
SplineSet
-198 1322 m 1
 242 1322 l 1
 236 1278 224 1242 200 1203 c 1
 -240 1203 l 17
 -234 1247 -222 1285 -198 1322 c 1
EndSplineSet
Validated: 1
LCarets2: 1 0 
EndChar

StartChar: paseq
Encoding: 1472 1472 54
Width: 329
VWidth: 1826
GlyphClass: 2
Flags: W
VStem: 100 129<-105.138 1092.62>
LayerCount: 2
Fore
SplineSet
100 1085 m 1
 139 1109 182 1126 229 1132 c 1
 229 -97 l 1
 187 -123 146 -138 100 -143 c 1
 100 1085 l 1
EndSplineSet
EndChar

StartChar: shindot
Encoding: 1473 1473 55
Width: 0
VWidth: 1877
GlyphClass: 4
Flags: W
HStem: 1215 177
VStem: -89 178
AnchorPoint: "A-60" -390 0 mark 0
LayerCount: 2
Fore
SplineSet
-89 1304 m 1
 -66 1341 -37 1369 0 1392 c 1
 38 1369 65 1341 89 1304 c 1
 65 1266 38 1237 0 1215 c 1
 -37 1237 -66 1266 -89 1304 c 1
EndSplineSet
Validated: 1
EndChar

StartChar: sindot
Encoding: 1474 1474 56
Width: 0
VWidth: 1877
GlyphClass: 4
Flags: W
HStem: 1212 177
VStem: -88 176
AnchorPoint: "A-60" 419.5 0 mark 0
LayerCount: 2
Fore
SplineSet
-88 1301 m 1
 -66 1338 -40 1366 -0 1389 c 1
 38 1366 64 1338 88 1301 c 1
 64 1263 38 1234 -0 1212 c 1
 -40 1234 -66 1263 -88 1301 c 1
EndSplineSet
Validated: 1
EndChar

StartChar: sofpasuq
Encoding: 1475 1475 57
Width: 526
GlyphClass: 2
Flags: W
HStem: -20 21G<240 302.5>
VStem: 105 321
LayerCount: 2
Fore
SplineSet
267 333 m 1
 337 273 382 218 426 148 c 1
 385 82 333 26 272 -20 c 1
 208 32 151 84 105 154 c 1
 153 228 206 281 267 333 c 1
262 982 m 1
 332 922 377 867 420 797 c 1
 380 731 328 675 267 629 c 1
 203 681 146 734 100 803 c 1
 148 878 201 930 262 982 c 1
EndSplineSet
EndChar

StartChar: upperdot
Encoding: 1476 1476 58
Width: 0
VWidth: 1774
GlyphClass: 4
Flags: W
HStem: 1623 273
VStem: -138 276
AnchorPoint: "A-1" -2 -8 mark 0
LayerCount: 2
Fore
SplineSet
-138 1760 m 1
 -102 1819 -58 1861 0 1896 c 1
 59 1861 101 1819 138 1760 c 1
 101 1699 59 1657 0 1623 c 1
 -58 1657 -102 1699 -138 1760 c 1
EndSplineSet
Validated: 1
LCarets2: 1 0 
EndChar

StartChar: lowerdot
Encoding: 1477 1477 59
Width: 0
GlyphClass: 4
Flags: W
HStem: -883 273
VStem: -138 276
AnchorPoint: "A-1" -1 0 mark 0
LayerCount: 2
Fore
SplineSet
-138 -746 m 1
 -102 -686 -58 -644 0 -610 c 1
 59 -644 100 -686 138 -746 c 1
 100 -807 59 -849 0 -883 c 1
 -58 -849 -102 -807 -138 -746 c 1
EndSplineSet
Validated: 1
LCarets2: 1 0 
EndChar

StartChar: nunhapukha
Encoding: 1478 1478 60
Width: 698
GlyphClass: 2
Flags: W
HStem: 0 21G<27.5 558> 681 157<18.2115 80.6161>
VStem: 58 160<186 674.062> 82 136<186.047 680.5>
AnchorPoint: "A-32" 327 0 basechar 0
AnchorPoint: "A-31" 327 0 basechar 0
AnchorPoint: "A-30" 497 0 basechar 0
AnchorPoint: "A-29" 497 0 basechar 0
AnchorPoint: "A-28" 497 0 basechar 0
AnchorPoint: "A-27" 147 0 basechar 0
AnchorPoint: "A-26" 457 0 basechar 0
AnchorPoint: "A-25" -53 0 basechar 0
AnchorPoint: "A-24" 327 0 basechar 0
AnchorPoint: "A-23" 327 0 basechar 0
AnchorPoint: "A-2" 327 0 basechar 0
AnchorPoint: "A-1" 327 0 basechar 0
AnchorPoint: "A-0" 327 0 basechar 0
LayerCount: 2
Fore
SplineSet
0 838 m 1xd0
 17 838 113 870 177 906 c 1
 369 1026 l 1
 411 973 451 908 474 845 c 1
 382 811 365 799 309 751 c 16
 256 707 218 660 218 592 c 0
 218 463 218 345 218 186 c 1
 457 186 l 1
 532 143 546 65 558 0 c 1
 31 0 l 1
 24 29 17 58 17 85 c 0
 17 119 27 152 58 186 c 1
 58 188 58 188 58 189 c 0xe0
 58 203 82 218 82 234 c 0
 82 236 82 236 82 237 c 1
 82 384 82 538 82 681 c 1
 20 681 l 1
 7 761 0 823 0 838 c 1xd0
EndSplineSet
Validated: 1
EndChar

StartChar: qamatsqatan
Encoding: 1479 1479 61
Width: 0
VWidth: 1877
GlyphClass: 4
Flags: W
HStem: -291 97<-157.855 -52 46 159.125>
VStem: -52 96<-634.996 -291>
AnchorPoint: "A-18" -49.5 0 mark 0
AnchorPoint: "A-15" -49.5 0 mark 0
AnchorPoint: "A-12" -349.5 0 mark 0
AnchorPoint: "A-9" -174.5 0 mark 0
AnchorPoint: "A-50" 0.5 0 basemark 0
AnchorPoint: "A-49" -379.5 0 basemark 0
AnchorPoint: "A-48" -339.5 0 basemark 0
AnchorPoint: "A-47" 0.5 0 basemark 0
AnchorPoint: "A-46" 0.5 0 basemark 0
AnchorPoint: "A-45" 0.5 0 basemark 0
AnchorPoint: "A-44" 0.5 0 basemark 0
AnchorPoint: "A-43" 0.5 0 basemark 0
AnchorPoint: "A-5" 0.5 0 mark 0
LayerCount: 2
Fore
SplineSet
152 -291 m 1
 46 -291 l 1
 44 -632 l 1
 28 -635 10 -635 -6 -635 c 1
 -22 -635 -36 -635 -52 -632 c 1
 -52 -291 l 1
 -184 -291 l 1
 -180 -254 -170 -225 -150 -194 c 1
 184 -194 l 1
 180 -229 170 -260 152 -291 c 1
EndSplineSet
Validated: 1
MultipleSubs2: "Add hairspace after last low mark subtable" qamatsqatan hairspace
MultipleSubs2: "Add thinspace before narrow letter subtable" qamatsqatan thinspace
MultipleSubs2: "Add hairspace before low marked Qof" qamatsqatan hairspace
EndChar

StartChar: alef
Encoding: 1488 1488 62
Width: 1278
GlyphClass: 2
Flags: W
HStem: 0 21G<130 429.5>
VStem: 175 145<192.303 530.293> 956 168<694.687 987.869>
AnchorPoint: "A-69" 668 0 basechar 0
AnchorPoint: "A-68" 668 0 basechar 0
AnchorPoint: "A-67" 668 0 basechar 0
AnchorPoint: "A-66" 668 0 basechar 0
AnchorPoint: "A-65" 668 0 basechar 0
AnchorPoint: "A-64" 668 0 basechar 0
AnchorPoint: "A-63" 668 0 basechar 0
AnchorPoint: "A-62" 668 0 basechar 0
AnchorPoint: "A-61" 668 0 basechar 0
AnchorPoint: "A-59" 73 0 basechar 0
AnchorPoint: "A-55" 1013 0 basechar 0
AnchorPoint: "A-42" 693 0 basechar 0
AnchorPoint: "A-39" 668 0 basechar 0
AnchorPoint: "A-36" 668 0 basechar 0
AnchorPoint: "A-21" -357 0 basechar 0
AnchorPoint: "A-16" 668 0 basechar 0
AnchorPoint: "A-15" 668 0 basechar 0
AnchorPoint: "A-14" 668 0 basechar 0
AnchorPoint: "A-13" 668 0 basechar 0
AnchorPoint: "A-12" 668 0 basechar 0
AnchorPoint: "A-11" 668 0 basechar 0
AnchorPoint: "A-10" 668 0 basechar 0
AnchorPoint: "A-9" 668 0 basechar 0
AnchorPoint: "A-8" 668 0 basechar 0
AnchorPoint: "A-41" 668 0 basechar 0
AnchorPoint: "A-40" 668 0 basechar 0
AnchorPoint: "A-32" 668 0 basechar 0
AnchorPoint: "A-31" 668 0 basechar 0
AnchorPoint: "A-30" 668 0 basechar 0
AnchorPoint: "A-29" 668 0 basechar 0
AnchorPoint: "A-28" 558 0 basechar 0
AnchorPoint: "A-27" 668 0 basechar 0
AnchorPoint: "A-26" 1013 0 basechar 0
AnchorPoint: "A-25" 223 0 basechar 0
AnchorPoint: "A-24" 668 0 basechar 0
AnchorPoint: "A-23" 668 0 basechar 0
AnchorPoint: "A-20" 113 0 basechar 0
AnchorPoint: "A-7" 668 0 basechar 0
AnchorPoint: "A-6" 668 0 basechar 0
AnchorPoint: "A-5" 668 0 basechar 0
AnchorPoint: "A-4" 668 0 basechar 0
AnchorPoint: "A-2" 668 0 basechar 0
AnchorPoint: "A-1" 668 0 basechar 0
AnchorPoint: "A-0" 668 0 basechar 0
LayerCount: 2
Fore
SplineSet
356 759 m 1
 281 823 207 882 108 949 c 1
 124 993 168 1050 211 1091 c 1
 462 905 687 713 871 529 c 1
 929 621 956 713 956 792 c 0
 956 847 945 894 919 934 c 1
 956 998 1004 1051 1050 1091 c 1
 1103 1043 1124 976 1124 905 c 0
 1124 730 1006 522 946 454 c 1
 1064 340 1144 241 1223 147 c 1
 1204 87 1177 24 1143 -34 c 1
 921 229 665 493 436 691 c 1
 371 620 320 497 320 355 c 0
 320 321 323 283 330 247 c 8
 337 215 354 186 392 186 c 2
 496 186 l 1
 479 125 444 48 415 0 c 1
 130 0 l 1
 149 51 163 84 175 140 c 1
 175 290 177 408 209 505 c 8
 245 614 320 710 356 759 c 1
EndSplineSet
LCarets2: 1 0 
MultipleSubs2: "Add hairspace before low marked Qof" alef hairspace
Substitution2: "'jalt' Wide Letter Alternatives in Hebrew subtable" alef.wide
EndChar

StartChar: bet
Encoding: 1489 1489 63
Width: 1098
GlyphClass: 2
Flags: W
HStem: 0 21G<85 970> 838 186<322.003 749.533>
VStem: 771 142<186 824.531>
AnchorPoint: "A-69" 539 0 basechar 0
AnchorPoint: "A-68" 539 0 basechar 0
AnchorPoint: "A-67" 539 0 basechar 0
AnchorPoint: "A-66" 539 0 basechar 0
AnchorPoint: "A-65" 539 0 basechar 0
AnchorPoint: "A-64" 539 0 basechar 0
AnchorPoint: "A-63" 539 0 basechar 0
AnchorPoint: "A-62" 539 0 basechar 0
AnchorPoint: "A-61" 539 0 basechar 0
AnchorPoint: "A-59" 34 0 basechar 0
AnchorPoint: "A-55" 804 0 basechar 0
AnchorPoint: "A-42" 539 0 basechar 0
AnchorPoint: "A-39" 534 0 basechar 0
AnchorPoint: "A-36" 539 0 basechar 0
AnchorPoint: "A-21" -396 0 basechar 0
AnchorPoint: "A-16" 539 0 basechar 0
AnchorPoint: "A-15" 539 0 basechar 0
AnchorPoint: "A-14" 539 0 basechar 0
AnchorPoint: "A-13" 539 0 basechar 0
AnchorPoint: "A-12" 539 0 basechar 0
AnchorPoint: "A-11" 539 0 basechar 0
AnchorPoint: "A-10" 549 0 basechar 0
AnchorPoint: "A-9" 549 0 basechar 0
AnchorPoint: "A-8" 539 0 basechar 0
AnchorPoint: "A-41" 539 0 basechar 0
AnchorPoint: "A-40" 539 0 basechar 0
AnchorPoint: "A-32" 534 0 basechar 0
AnchorPoint: "A-31" 534 0 basechar 0
AnchorPoint: "A-30" 534 0 basechar 0
AnchorPoint: "A-29" 554 0 basechar 0
AnchorPoint: "A-28" 519 0 basechar 0
AnchorPoint: "A-27" 514 0 basechar 0
AnchorPoint: "A-26" 804 0 basechar 0
AnchorPoint: "A-25" 104 0 basechar 0
AnchorPoint: "A-24" 539 0 basechar 0
AnchorPoint: "A-23" 534 0 basechar 0
AnchorPoint: "A-20" 14 0 basechar 0
AnchorPoint: "A-7" 539 0 basechar 0
AnchorPoint: "A-6" 539 0 basechar 0
AnchorPoint: "A-5" 539 0 basechar 0
AnchorPoint: "A-4" 539 0 basechar 0
AnchorPoint: "A-2" 534 0 basechar 0
AnchorPoint: "A-1" 534 0 basechar 0
AnchorPoint: "A-0" 534 0 basechar 0
LayerCount: 2
Fore
SplineSet
913 186 m 25
 1070 186 l 1
 1041 123 998 61 942 0 c 1
 85 0 l 1
 123 72 157 126 203 186 c 1
 771 186 l 25
 759 751 l 2
 758 809 730 838 676 838 c 2
 114 838 l 1
 167 935 232 1024 316 1116 c 1
 319 1080 322 1024 360 1024 c 2
 648 1024 l 2
 744 1024 807 1002 850 957 c 0
 892 915 911 858 911 756 c 2
 913 186 l 25
EndSplineSet
LCarets2: 1 0 
MultipleSubs2: "Add hairspace before low marked Qof" bet hairspace
EndChar

StartChar: gimel
Encoding: 1490 1490 64
Width: 740
GlyphClass: 2
Flags: W
HStem: -30 208<130.093 242.321>
VStem: 585 95<80.1502 152.362>
AnchorPoint: "A-69" 383 0 basechar 0
AnchorPoint: "A-68" 353 0 basechar 0
AnchorPoint: "A-67" 383 0 basechar 0
AnchorPoint: "A-66" 383 0 basechar 0
AnchorPoint: "A-65" 383 0 basechar 0
AnchorPoint: "A-64" 383 0 basechar 0
AnchorPoint: "A-63" 383 0 basechar 0
AnchorPoint: "A-62" 383 0 basechar 0
AnchorPoint: "A-61" 383 0 basechar 0
AnchorPoint: "A-59" 23 0 basechar 0
AnchorPoint: "A-55" 478 0 basechar 0
AnchorPoint: "A-42" 383 0 basechar 0
AnchorPoint: "A-39" 368 0 basechar 0
AnchorPoint: "A-36" 365 0 basechar 0
AnchorPoint: "A-22" -127 0 basechar 0
AnchorPoint: "A-21" -407 0 basechar 0
AnchorPoint: "A-16" 383 0 basechar 0
AnchorPoint: "A-15" 383 0 basechar 0
AnchorPoint: "A-14" 383 0 basechar 0
AnchorPoint: "A-13" 383 0 basechar 0
AnchorPoint: "A-12" 383 0 basechar 0
AnchorPoint: "A-11" 383 0 basechar 0
AnchorPoint: "A-10" 383 0 basechar 0
AnchorPoint: "A-9" 383 0 basechar 0
AnchorPoint: "A-8" 383 0 basechar 0
AnchorPoint: "A-41" 223 10 basechar 0
AnchorPoint: "A-40" 383 0 basechar 0
AnchorPoint: "A-32" 368 0 basechar 0
AnchorPoint: "A-31" 368 0 basechar 0
AnchorPoint: "A-30" 548 0 basechar 0
AnchorPoint: "A-29" 548 0 basechar 0
AnchorPoint: "A-28" 408 0 basechar 0
AnchorPoint: "A-27" 188 0 basechar 0
AnchorPoint: "A-26" 478 0 basechar 0
AnchorPoint: "A-25" 43 0 basechar 0
AnchorPoint: "A-24" 368 0 basechar 0
AnchorPoint: "A-23" 368 0 basechar 0
AnchorPoint: "A-20" 113 0 basechar 0
AnchorPoint: "A-7" 383 0 basechar 0
AnchorPoint: "A-6" 383 0 basechar 0
AnchorPoint: "A-5" 383 0 basechar 0
AnchorPoint: "A-4" 383 0 basechar 0
AnchorPoint: "A-2" 468 0 basechar 0
AnchorPoint: "A-1" 468 0 basechar 0
AnchorPoint: "A-0" 468 0 basechar 0
LayerCount: 2
Fore
SplineSet
235 1090 m 1
 322 1040 395 989 465 933 c 0
 527 883 566 832 585 736 c 0
 619 547 655 327 680 112 c 1
 653 47 622 2 585 -44 c 1
 564 37 544 146 520 252 c 1
 448 130 250 -30 59 -30 c 1
 80 45 104 110 136 178 c 1
 307 197 441 289 482 374 c 1
 482 484 453 586 433 653 c 0
 394 782 291 830 121 924 c 1
 162 989 182 1030 235 1090 c 1
EndSplineSet
LCarets2: 1 0 
MultipleSubs2: "Add hairspace before narrowletter subtable subtable" hairspace gimel
MultipleSubs2: "Add hairspace before low marked Qof" gimel hairspace
EndChar

StartChar: dalet
Encoding: 1491 1491 65
Width: 1107
GlyphClass: 2
Flags: W
HStem: 838 186<308.785 691 842 953.526>
VStem: 691 151<83.4542 838>
AnchorPoint: "A-69" 635 0 basechar 0
AnchorPoint: "A-68" 555 0 basechar 0
AnchorPoint: "A-67" 435 0 basechar 0
AnchorPoint: "A-66" 635 0 basechar 0
AnchorPoint: "A-65" 535 0 basechar 0
AnchorPoint: "A-64" 435 0 basechar 0
AnchorPoint: "A-63" 635 0 basechar 0
AnchorPoint: "A-62" 535 0 basechar 0
AnchorPoint: "A-61" 435 0 basechar 0
AnchorPoint: "A-59" 65 0 basechar 0
AnchorPoint: "A-55" 865 -10 basechar 0
AnchorPoint: "A-42" 550 0 basechar 0
AnchorPoint: "A-39" 555 0 basechar 0
AnchorPoint: "A-36" 561 0 basechar 0
AnchorPoint: "A-21" -365 0 basechar 0
AnchorPoint: "A-19" 445 0 basechar 0
AnchorPoint: "A-18" 600 0 basechar 0
AnchorPoint: "A-17" 600 0 basechar 0
AnchorPoint: "A-16" 445 0 basechar 0
AnchorPoint: "A-15" 600 0 basechar 0
AnchorPoint: "A-14" 600 0 basechar 0
AnchorPoint: "A-13" 445 0 basechar 0
AnchorPoint: "A-12" 600 0 basechar 0
AnchorPoint: "A-11" 600 0 basechar 0
AnchorPoint: "A-10" 445 0 basechar 0
AnchorPoint: "A-9" 600 0 basechar 0
AnchorPoint: "A-8" 600 0 basechar 0
AnchorPoint: "A-41" 395 0 basechar 0
AnchorPoint: "A-40" 745 0 basechar 0
AnchorPoint: "A-32" 555 0 basechar 0
AnchorPoint: "A-31" 555 0 basechar 0
AnchorPoint: "A-30" 555 0 basechar 0
AnchorPoint: "A-29" 555 0 basechar 0
AnchorPoint: "A-28" 550 0 basechar 0
AnchorPoint: "A-27" 555 0 basechar 0
AnchorPoint: "A-26" 865 -10 basechar 0
AnchorPoint: "A-25" 45 0 basechar 0
AnchorPoint: "A-24" 561 0 basechar 0
AnchorPoint: "A-23" 555 0 basechar 0
AnchorPoint: "A-20" -35 0 basechar 0
AnchorPoint: "A-7" 545 0 basechar 0
AnchorPoint: "A-6" 610 0 basechar 0
AnchorPoint: "A-5" 750 0 basechar 0
AnchorPoint: "A-4" 750 0 basechar 0
AnchorPoint: "A-2" 555 0 basechar 0
AnchorPoint: "A-1" 555 0 basechar 0
AnchorPoint: "A-0" 555 0 basechar 0
LayerCount: 2
Fore
SplineSet
87 838 m 1
 145 934 212 1024 301 1116 c 1
 306 1080 309 1024 350 1024 c 2
 743 1024 l 1
 772 1058 806 1092 838 1116 c 1
 842 1085 842 1060 842 1024 c 1
 1036 1024 l 1
 1014 952 987 901 946 838 c 1
 842 838 l 1
 842 102 l 17
 802 44 748 0 691 -43 c 1
 691 838 l 1
 87 838 l 1
EndSplineSet
LCarets2: 1 0 
MultipleSubs2: "Add hairspace before low marked Qof" dalet hairspace
Substitution2: "'jalt' Wide Letter Alternatives in Hebrew subtable" dalet.wide
EndChar

StartChar: he
Encoding: 1492 1492 66
Width: 1219
GlyphClass: 2
Flags: W
HStem: 838 186<320.328 900.429>
VStem: 193 147<95.241 511.839> 955 141<87.4809 783.752>
AnchorPoint: "A-69" 643.75 0 basechar 0
AnchorPoint: "A-68" 643.75 0 basechar 0
AnchorPoint: "A-67" 643.75 0 basechar 0
AnchorPoint: "A-66" 643.75 0 basechar 0
AnchorPoint: "A-65" 643.75 0 basechar 0
AnchorPoint: "A-64" 643.75 0 basechar 0
AnchorPoint: "A-63" 643.75 0 basechar 0
AnchorPoint: "A-62" 643.75 0 basechar 0
AnchorPoint: "A-61" 643.75 0 basechar 0
AnchorPoint: "A-59" 58.75 0 basechar 0
AnchorPoint: "A-55" 978.75 0 basechar 0
AnchorPoint: "A-42" 643.75 0 basechar 0
AnchorPoint: "A-39" 648.75 0 basechar 0
AnchorPoint: "A-36" 641.75 0 basechar 0
AnchorPoint: "A-21" -371.25 0 basechar 0
AnchorPoint: "A-16" 643.75 0 basechar 0
AnchorPoint: "A-15" 643.75 0 basechar 0
AnchorPoint: "A-14" 643.75 0 basechar 0
AnchorPoint: "A-13" 643.75 0 basechar 0
AnchorPoint: "A-12" 643.75 0 basechar 0
AnchorPoint: "A-11" 643.75 0 basechar 0
AnchorPoint: "A-10" 643.75 0 basechar 0
AnchorPoint: "A-9" 643.75 0 basechar 0
AnchorPoint: "A-8" 643.75 0 basechar 0
AnchorPoint: "A-41" 608.75 0 basechar 0
AnchorPoint: "A-40" 643.75 0 basechar 0
AnchorPoint: "A-32" 648.75 0 basechar 0
AnchorPoint: "A-31" 648.75 0 basechar 0
AnchorPoint: "A-30" 648.75 0 basechar 0
AnchorPoint: "A-29" 648.75 0 basechar 0
AnchorPoint: "A-28" 543.75 0 basechar 0
AnchorPoint: "A-27" 648.75 0 basechar 0
AnchorPoint: "A-26" 978.75 0 basechar 0
AnchorPoint: "A-25" 138.75 0 basechar 0
AnchorPoint: "A-24" 641.75 0 basechar 0
AnchorPoint: "A-23" 648.75 0 basechar 0
AnchorPoint: "A-20" 58.75 0 basechar 0
AnchorPoint: "A-7" 643.75 0 basechar 0
AnchorPoint: "A-6" 643.75 0 basechar 0
AnchorPoint: "A-5" 643.75 0 basechar 0
AnchorPoint: "A-4" 643.75 0 basechar 0
AnchorPoint: "A-2" 648.75 0 basechar 0
AnchorPoint: "A-1" 648.75 0 basechar 0
AnchorPoint: "A-0" 648.75 0 basechar 0
LayerCount: 2
Fore
SplineSet
345 681 m 1
 345 449 340 329 340 106 c 1
 293 48 253 0 193 -43 c 1
 193 51 193 360 193 490 c 1
 234 556 297 628 345 681 c 1
1096 106 m 1
 1054 48 1013 5 955 -43 c 1
 955 172 941 686 941 686 c 1
 941 799 857 838 804 838 c 2
 113 838 l 1
 170 939 233 1024 313 1116 c 1
 318 1079 321 1024 362 1024 c 2
 820 1024 l 2
 968 1024 1096 911 1096 795 c 2
 1096 106 l 1
EndSplineSet
LCarets2: 1 0 
MultipleSubs2: "Add hairspace before low marked Qof" he hairspace
Substitution2: "'jalt' Wide Letter Alternatives in Hebrew subtable" he.wide
EndChar

StartChar: vav
Encoding: 1493 1493 67
Width: 588
GlyphClass: 2
Flags: W
VStem: 323 147<92.9597 776.348>
AnchorPoint: "A-69" 273 0 basechar 0
AnchorPoint: "A-68" 258 0 basechar 0
AnchorPoint: "A-67" 313 0 basechar 0
AnchorPoint: "A-66" 273 0 basechar 0
AnchorPoint: "A-65" 193 0 basechar 0
AnchorPoint: "A-64" 273 0 basechar 0
AnchorPoint: "A-63" 273 0 basechar 0
AnchorPoint: "A-62" 193 0 basechar 0
AnchorPoint: "A-61" 273 0 basechar 0
AnchorPoint: "A-59" 28 0 basechar 0
AnchorPoint: "A-55" 418 0 basechar 0
AnchorPoint: "A-42" 373 0 basechar 0
AnchorPoint: "A-39" 308 0 basechar 0
AnchorPoint: "A-36" 308 0 basechar 0
AnchorPoint: "A-21" 148 0 basechar 0
AnchorPoint: "A-16" 308 0 basechar 0
AnchorPoint: "A-15" 318 0 basechar 0
AnchorPoint: "A-14" 353 0 basechar 0
AnchorPoint: "A-13" 318 0 basechar 0
AnchorPoint: "A-12" 373 0 basechar 0
AnchorPoint: "A-11" 373 0 basechar 0
AnchorPoint: "A-10" 318 0 basechar 0
AnchorPoint: "A-9" 373 0 basechar 0
AnchorPoint: "A-8" 373 0 basechar 0
AnchorPoint: "A-41" 28 0 basechar 0
AnchorPoint: "A-40" 303 0 basechar 0
AnchorPoint: "A-32" 308 0 basechar 0
AnchorPoint: "A-31" 308 0 basechar 0
AnchorPoint: "A-30" 468 0 basechar 0
AnchorPoint: "A-29" 528 0 basechar 0
AnchorPoint: "A-28" 513 0 basechar 0
AnchorPoint: "A-27" 128 0 basechar 0
AnchorPoint: "A-26" 418 0 basechar 0
AnchorPoint: "A-25" 48 0 basechar 0
AnchorPoint: "A-24" 308 0 basechar 0
AnchorPoint: "A-23" 308 0 basechar 0
AnchorPoint: "A-20" 148 0 basechar 0
AnchorPoint: "A-7" 318 0 basechar 0
AnchorPoint: "A-6" 318 0 basechar 0
AnchorPoint: "A-5" 373 0 basechar 0
AnchorPoint: "A-4" 373 0 basechar 0
AnchorPoint: "A-2" 308 0 basechar 0
AnchorPoint: "A-1" 308 0 basechar 0
AnchorPoint: "A-0" 308 0 basechar 0
LayerCount: 2
Fore
SplineSet
185 1101 m 1
 263 1049 318 1007 384 954 c 0
 458 894 470 827 470 768 c 0
 470 556 466 362 466 106 c 1
 423 49 389 10 330 -33 c 1
 330 104 323 377 323 589 c 0
 323 723 311 758 239 809 c 8
 171 858 121 880 58 925 c 1
 98 991 137 1046 185 1101 c 1
EndSplineSet
LCarets2: 1 0 
MultipleSubs2: "Add hairspace before narrowletter subtable subtable" hairspace vav
MultipleSubs2: "Add hairspace before low marked Qof" vav hairspace
EndChar

StartChar: zain
Encoding: 1494 1494 68
Width: 650
GlyphClass: 2
Flags: W
VStem: 173 116<468.002 744.227>
AnchorPoint: "A-69" 284 0 basechar 0
AnchorPoint: "A-68" 264 0 basechar 0
AnchorPoint: "A-67" 284 0 basechar 0
AnchorPoint: "A-66" 284 0 basechar 0
AnchorPoint: "A-65" 284 0 basechar 0
AnchorPoint: "A-64" 284 0 basechar 0
AnchorPoint: "A-63" 284 0 basechar 0
AnchorPoint: "A-62" 284 0 basechar 0
AnchorPoint: "A-61" 284 0 basechar 0
AnchorPoint: "A-59" 94 0 basechar 0
AnchorPoint: "A-55" 594 0 basechar 0
AnchorPoint: "A-42" 394 0 basechar 0
AnchorPoint: "A-39" 399 0 basechar 0
AnchorPoint: "A-36" 414 0 basechar 0
AnchorPoint: "A-22" -166 0 basechar 0
AnchorPoint: "A-21" -336 0 basechar 0
AnchorPoint: "A-16" 364 0 basechar 0
AnchorPoint: "A-15" 324 0 basechar 0
AnchorPoint: "A-14" 374 0 basechar 0
AnchorPoint: "A-13" 384 0 basechar 0
AnchorPoint: "A-12" 394 0 basechar 0
AnchorPoint: "A-11" 394 0 basechar 0
AnchorPoint: "A-10" 384 0 basechar 0
AnchorPoint: "A-9" 394 0 basechar 0
AnchorPoint: "A-8" 394 0 basechar 0
AnchorPoint: "A-41" 34 0 basechar 0
AnchorPoint: "A-40" 334 0 basechar 0
AnchorPoint: "A-32" 414 0 basechar 0
AnchorPoint: "A-31" 414 0 basechar 0
AnchorPoint: "A-30" 534 0 basechar 0
AnchorPoint: "A-29" 554 0 basechar 0
AnchorPoint: "A-28" 579 0 basechar 0
AnchorPoint: "A-27" 314 0 basechar 0
AnchorPoint: "A-26" 594 0 basechar 0
AnchorPoint: "A-25" 124 0 basechar 0
AnchorPoint: "A-24" 414 0 basechar 0
AnchorPoint: "A-23" 399 0 basechar 0
AnchorPoint: "A-20" 44 0 basechar 0
AnchorPoint: "A-7" 384 0 basechar 0
AnchorPoint: "A-6" 384 0 basechar 0
AnchorPoint: "A-5" 394 0 basechar 0
AnchorPoint: "A-4" 394 0 basechar 0
AnchorPoint: "A-2" 399 0 basechar 0
AnchorPoint: "A-1" 399 0 basechar 0
AnchorPoint: "A-0" 399 0 basechar 0
LayerCount: 2
Fore
SplineSet
344 755 m 1
 313 725 289 695 289 649 c 16
 289 544 374 371 460 154 c 1
 437 83 407 23 366 -37 c 1
 233 276 173 455 173 567 c 0
 173 672 214 764 255 827 c 1
 89 950 l 1
 129 1004 171 1050 221 1097 c 1
 354 999 523 871 618 789 c 1
 591 731 555 680 518 637 c 1
 460 677 396 721 344 755 c 1
EndSplineSet
LCarets2: 1 0 
MultipleSubs2: "Add hairspace before narrowletter subtable subtable" hairspace zain
MultipleSubs2: "Add hairspace before low marked Qof" zain hairspace
EndChar

StartChar: het
Encoding: 1495 1495 69
Width: 1192
GlyphClass: 2
Flags: W
HStem: 838 186<343.529 802.266>
VStem: 201 142<260.109 834.493> 987 127<73.7988 418.792>
AnchorPoint: "A-69" 639 0 basechar 0
AnchorPoint: "A-68" 639 0 basechar 0
AnchorPoint: "A-67" 639 0 basechar 0
AnchorPoint: "A-66" 639 0 basechar 0
AnchorPoint: "A-65" 639 0 basechar 0
AnchorPoint: "A-64" 639 0 basechar 0
AnchorPoint: "A-63" 639 0 basechar 0
AnchorPoint: "A-62" 639 0 basechar 0
AnchorPoint: "A-61" 639 0 basechar 0
AnchorPoint: "A-59" 9 0 basechar 0
AnchorPoint: "A-55" 979 0 basechar 0
AnchorPoint: "A-42" 639 0 basechar 0
AnchorPoint: "A-39" 629 0 basechar 0
AnchorPoint: "A-36" 629 0 basechar 0
AnchorPoint: "A-21" -421 0 basechar 0
AnchorPoint: "A-16" 639 0 basechar 0
AnchorPoint: "A-15" 639 0 basechar 0
AnchorPoint: "A-14" 639 0 basechar 0
AnchorPoint: "A-13" 639 0 basechar 0
AnchorPoint: "A-12" 639 0 basechar 0
AnchorPoint: "A-11" 639 0 basechar 0
AnchorPoint: "A-10" 639 0 basechar 0
AnchorPoint: "A-9" 639 0 basechar 0
AnchorPoint: "A-8" 639 0 basechar 0
AnchorPoint: "A-41" 589 0 basechar 0
AnchorPoint: "A-40" 639 0 basechar 0
AnchorPoint: "A-32" 629 0 basechar 0
AnchorPoint: "A-31" 629 0 basechar 0
AnchorPoint: "A-30" 629 0 basechar 0
AnchorPoint: "A-29" 629 0 basechar 0
AnchorPoint: "A-28" 494 0 basechar 0
AnchorPoint: "A-27" 629 0 basechar 0
AnchorPoint: "A-26" 979 0 basechar 0
AnchorPoint: "A-25" 89 0 basechar 0
AnchorPoint: "A-24" 629 0 basechar 0
AnchorPoint: "A-23" 629 0 basechar 0
AnchorPoint: "A-20" 9 0 basechar 0
AnchorPoint: "A-7" 639 0 basechar 0
AnchorPoint: "A-6" 639 0 basechar 0
AnchorPoint: "A-5" 639 0 basechar 0
AnchorPoint: "A-4" 639 0 basechar 0
AnchorPoint: "A-3" 639 0 basechar 0
AnchorPoint: "A-2" 629 0 basechar 0
AnchorPoint: "A-1" 629 0 basechar 0
AnchorPoint: "A-0" 629 0 basechar 0
LayerCount: 2
Fore
SplineSet
328 1116 m 1
 333 1077 335 1024 377 1024 c 2
 377 1024 550 1024 659 1024 c 16
 941 1024 1075 833 1099 649 c 0
 1112 547 1114 451 1114 345 c 0
 1114 268 1113 187 1113 94 c 1
 1079 38 1043 0 987 -43 c 1
 987 162 978 311 963 461 c 0
 947 616 920 773 748 816 c 0
 683 831 509 838 343 838 c 1
 343 808 343 775 343 739 c 0
 343 521 342 208 321 94 c 1
 277 38 232 -3 178 -43 c 1
 191 101 201 253 201 404 c 0
 201 578 187 751 150 910 c 1
 195 990 253 1053 328 1116 c 1
EndSplineSet
LCarets2: 1 0 
MultipleSubs2: "Add hairspace before low marked Qof" het hairspace
EndChar

StartChar: tet
Encoding: 1496 1496 70
Width: 1277
GlyphClass: 2
Flags: W
HStem: -24 174<482.402 816.985> 865 196<645.606 948.902>
VStem: 1062 138<404.266 749.544>
AnchorPoint: "A-69" 690 0 basechar 0
AnchorPoint: "A-68" 690 0 basechar 0
AnchorPoint: "A-67" 690 0 basechar 0
AnchorPoint: "A-66" 690 0 basechar 0
AnchorPoint: "A-65" 690 0 basechar 0
AnchorPoint: "A-64" 690 0 basechar 0
AnchorPoint: "A-63" 690 0 basechar 0
AnchorPoint: "A-62" 690 0 basechar 0
AnchorPoint: "A-61" 690 0 basechar 0
AnchorPoint: "A-59" 100 0 basechar 0
AnchorPoint: "A-55" 1060 0 basechar 0
AnchorPoint: "A-42" 690 0 basechar 0
AnchorPoint: "A-39" 690 0 basechar 0
AnchorPoint: "A-36" 690 0 basechar 0
AnchorPoint: "A-21" -330 0 basechar 0
AnchorPoint: "A-16" 690 0 basechar 0
AnchorPoint: "A-15" 690 0 basechar 0
AnchorPoint: "A-14" 690 0 basechar 0
AnchorPoint: "A-13" 690 0 basechar 0
AnchorPoint: "A-12" 690 0 basechar 0
AnchorPoint: "A-11" 690 0 basechar 0
AnchorPoint: "A-10" 690 0 basechar 0
AnchorPoint: "A-9" 690 0 basechar 0
AnchorPoint: "A-8" 690 0 basechar 0
AnchorPoint: "A-41" 640 0 basechar 0
AnchorPoint: "A-40" 690 0 basechar 0
AnchorPoint: "A-32" 690 0 basechar 0
AnchorPoint: "A-31" 690 0 basechar 0
AnchorPoint: "A-30" 690 0 basechar 0
AnchorPoint: "A-29" 690 0 basechar 0
AnchorPoint: "A-28" 585 0 basechar 0
AnchorPoint: "A-27" 690 0 basechar 0
AnchorPoint: "A-26" 1060 0 basechar 0
AnchorPoint: "A-25" 160 0 basechar 0
AnchorPoint: "A-24" 690 0 basechar 0
AnchorPoint: "A-23" 690 0 basechar 0
AnchorPoint: "A-20" 80 0 basechar 0
AnchorPoint: "A-7" 690 0 basechar 0
AnchorPoint: "A-6" 690 0 basechar 0
AnchorPoint: "A-5" 690 0 basechar 0
AnchorPoint: "A-4" 690 0 basechar 0
AnchorPoint: "A-2" 690 0 basechar 0
AnchorPoint: "A-1" 690 0 basechar 0
AnchorPoint: "A-0" 690 0 basechar 0
LayerCount: 2
Fore
SplineSet
253 1089 m 1
 386 747 424 409 475 216 c 0
 487 170 509 150 603 150 c 0
 936 150 1062 319 1062 580 c 0
 1062 676 1026 764 965 810 c 0
 914 850 857 865 801 865 c 0
 705 865 612 821 548 771 c 1
 567 867 591 932 630 1007 c 1
 694 1049 743 1061 801 1061 c 0
 914 1061 1006 1036 1089 959 c 0
 1163 891 1200 798 1200 672 c 0
 1200 536 1165 385 1095 271 c 0
 1020 148 926 59 787 7 c 0
 743 -11 663 -24 584 -24 c 0
 490 -24 398 -4 371 56 c 0
 320 165 299 303 255 479 c 0
 212 648 182 759 113 879 c 1
 149 957 190 1015 253 1089 c 1
EndSplineSet
LCarets2: 1 0 
MultipleSubs2: "Add hairspace before low marked Qof" tet hairspace
EndChar

StartChar: yod
Encoding: 1497 1497 71
Width: 606
GlyphClass: 2
Flags: W
VStem: 342 172<612.526 768.139>
AnchorPoint: "A-69" 266 0 basechar 0
AnchorPoint: "A-68" 256 0 basechar 0
AnchorPoint: "A-67" 266 0 basechar 0
AnchorPoint: "A-66" 266 0 basechar 0
AnchorPoint: "A-65" 266 0 basechar 0
AnchorPoint: "A-64" 266 0 basechar 0
AnchorPoint: "A-63" 266 0 basechar 0
AnchorPoint: "A-62" 266 0 basechar 0
AnchorPoint: "A-61" 266 0 basechar 0
AnchorPoint: "A-59" 56 0 basechar 0
AnchorPoint: "A-55" 456 0 basechar 0
AnchorPoint: "A-42" 296 0 basechar 0
AnchorPoint: "A-39" 311 0 basechar 0
AnchorPoint: "A-36" 336 0 basechar 0
AnchorPoint: "A-22" -234 0 basechar 0
AnchorPoint: "A-21" -374 0 basechar 0
AnchorPoint: "A-16" 286 0 basechar 0
AnchorPoint: "A-15" 286 0 basechar 0
AnchorPoint: "A-14" 286 0 basechar 0
AnchorPoint: "A-13" 286 0 basechar 0
AnchorPoint: "A-12" 286 0 basechar 0
AnchorPoint: "A-11" 286 0 basechar 0
AnchorPoint: "A-10" 286 0 basechar 0
AnchorPoint: "A-9" 306 0 basechar 0
AnchorPoint: "A-8" 286 0 basechar 0
AnchorPoint: "A-41" -24 0 basechar 0
AnchorPoint: "A-40" 296 0 basechar 0
AnchorPoint: "A-32" 336 0 basechar 0
AnchorPoint: "A-31" 336 0 basechar 0
AnchorPoint: "A-30" 496 0 basechar 0
AnchorPoint: "A-29" 556 0 basechar 0
AnchorPoint: "A-28" 541 0 basechar 0
AnchorPoint: "A-27" 191 0 basechar 0
AnchorPoint: "A-26" 456 0 basechar 0
AnchorPoint: "A-25" 56 0 basechar 0
AnchorPoint: "A-24" 336 0 basechar 0
AnchorPoint: "A-23" 311 0 basechar 0
AnchorPoint: "A-20" -14 0 basechar 0
AnchorPoint: "A-7" 286 0 basechar 0
AnchorPoint: "A-6" 286 0 basechar 0
AnchorPoint: "A-5" 286 0 basechar 0
AnchorPoint: "A-4" 286 0 basechar 0
AnchorPoint: "A-2" 311 0 basechar 0
AnchorPoint: "A-1" 311 0 basechar 0
AnchorPoint: "A-0" 311 0 basechar 0
LayerCount: 2
Fore
SplineSet
224 1091 m 1
 291 1039 364 976 451 899 c 16
 492 864 514 811 514 754 c 0
 514 727 509 700 499 674 c 0
 458 577 391 468 333 398 c 1
 282 364 231 341 166 324 c 1
 238 451 297 561 333 650 c 0
 338 662 342 676 342 686 c 0
 342 720 320 751 287 778 c 8
 216 838 149 884 89 918 c 1
 127 983 173 1039 224 1091 c 1
EndSplineSet
LCarets2: 1 0 
MultipleSubs2: "Add hairspace before narrowletter subtable subtable" hairspace yod
MultipleSubs2: "Add hairspace before low marked Qof" yod hairspace
EndChar

StartChar: finalkaf
Encoding: 1498 1498 72
Width: 1036
GlyphClass: 2
Flags: W
HStem: 838 186<304.328 657 792 882.195>
VStem: 645 143<-248.722 838>
AnchorPoint: "A-69" 269 0 basechar 0
AnchorPoint: "A-68" 199 0 basechar 0
AnchorPoint: "A-67" 79 0 basechar 0
AnchorPoint: "A-66" 269 0 basechar 0
AnchorPoint: "A-65" 199 0 basechar 0
AnchorPoint: "A-64" 79 0 basechar 0
AnchorPoint: "A-63" 269 0 basechar 0
AnchorPoint: "A-62" 199 0 basechar 0
AnchorPoint: "A-61" 79 0 basechar 0
AnchorPoint: "A-59" 39 0 basechar 0
AnchorPoint: "A-55" 839 0 basechar 0
AnchorPoint: "A-42" 179 0 basechar 0
AnchorPoint: "A-39" 529 0 basechar 0
AnchorPoint: "A-36" 535 0 basechar 0
AnchorPoint: "A-21" -391 0 basechar 0
AnchorPoint: "A-16" 89 0 basechar 0
AnchorPoint: "A-15" 209 0 basechar 0
AnchorPoint: "A-14" 349 0 basechar 0
AnchorPoint: "A-13" -81 0 basechar 0
AnchorPoint: "A-12" 39 0 basechar 0
AnchorPoint: "A-11" 179 0 basechar 0
AnchorPoint: "A-10" 89 0 basechar 0
AnchorPoint: "A-9" 209 0 basechar 0
AnchorPoint: "A-8" 349 0 basechar 0
AnchorPoint: "A-41" 519 0 basechar 0
AnchorPoint: "A-40" 399 0 basechar 0
AnchorPoint: "A-32" 529 0 basechar 0
AnchorPoint: "A-31" 529 0 basechar 0
AnchorPoint: "A-30" 529 0 basechar 0
AnchorPoint: "A-29" 529 0 basechar 0
AnchorPoint: "A-28" 524 0 basechar 0
AnchorPoint: "A-27" 529 0 basechar 0
AnchorPoint: "A-26" 839 0 basechar 0
AnchorPoint: "A-25" 39 0 basechar 0
AnchorPoint: "A-24" 535 0 basechar 0
AnchorPoint: "A-23" 529 0 basechar 0
AnchorPoint: "A-20" -41 0 basechar 0
AnchorPoint: "A-7" 189 0 basechar 0
AnchorPoint: "A-6" 269 0 basechar 0
AnchorPoint: "A-5" 379 0 basechar 0
AnchorPoint: "A-4" 399 0 basechar 0
AnchorPoint: "A-2" 529 0 basechar 0
AnchorPoint: "A-1" 529 0 basechar 0
AnchorPoint: "A-0" 529 0 basechar 0
LayerCount: 2
Fore
SplineSet
83 838 m 1
 145 939 206 1017 297 1116 c 1
 302 1077 305 1024 346 1024 c 2
 969 1024 l 1
 943 956 913 894 873 838 c 1
 792 838 l 1
 792 649 788 142 788 -234 c 1
 751 -297 698 -358 645 -403 c 1
 645 106 657 522 657 838 c 1
 83 838 l 1
EndSplineSet
LCarets2: 1 0 
MultipleSubs2: "Add hairspace before low marked Qof" finalkaf hairspace
EndChar

StartChar: kaf
Encoding: 1499 1499 73
Width: 1025
GlyphClass: 2
Flags: W
HStem: 0 21G<92 652.5> 838 186<329.77 703.844>
VStem: 848 123<303.061 700.407>
AnchorPoint: "A-69" 503 0 basechar 0
AnchorPoint: "A-68" 503 0 basechar 0
AnchorPoint: "A-67" 503 0 basechar 0
AnchorPoint: "A-66" 503 0 basechar 0
AnchorPoint: "A-65" 503 0 basechar 0
AnchorPoint: "A-64" 503 0 basechar 0
AnchorPoint: "A-63" 503 0 basechar 0
AnchorPoint: "A-62" 503 0 basechar 0
AnchorPoint: "A-61" 503 0 basechar 0
AnchorPoint: "A-59" 43 0 basechar 0
AnchorPoint: "A-55" 803 0 basechar 0
AnchorPoint: "A-42" 503 0 basechar 0
AnchorPoint: "A-39" 533 0 basechar 0
AnchorPoint: "A-36" 533 0 basechar 0
AnchorPoint: "A-21" -387 0 basechar 0
AnchorPoint: "A-16" 503 0 basechar 0
AnchorPoint: "A-15" 503 0 basechar 0
AnchorPoint: "A-14" 503 0 basechar 0
AnchorPoint: "A-13" 503 0 basechar 0
AnchorPoint: "A-12" 503 0 basechar 0
AnchorPoint: "A-11" 503 0 basechar 0
AnchorPoint: "A-10" 503 0 basechar 0
AnchorPoint: "A-9" 503 0 basechar 0
AnchorPoint: "A-8" 503 0 basechar 0
AnchorPoint: "A-41" 423 0 basechar 0
AnchorPoint: "A-40" 503 0 basechar 0
AnchorPoint: "A-32" 533 0 basechar 0
AnchorPoint: "A-31" 533 0 basechar 0
AnchorPoint: "A-30" 553 0 basechar 0
AnchorPoint: "A-29" 573 0 basechar 0
AnchorPoint: "A-28" 528 0 basechar 0
AnchorPoint: "A-27" 493 0 basechar 0
AnchorPoint: "A-26" 803 0 basechar 0
AnchorPoint: "A-25" 103 0 basechar 0
AnchorPoint: "A-24" 533 0 basechar 0
AnchorPoint: "A-23" 533 0 basechar 0
AnchorPoint: "A-20" 3 0 basechar 0
AnchorPoint: "A-7" 503 0 basechar 0
AnchorPoint: "A-6" 503 0 basechar 0
AnchorPoint: "A-5" 503 0 basechar 0
AnchorPoint: "A-4" 503 0 basechar 0
AnchorPoint: "A-2" 533 0 basechar 0
AnchorPoint: "A-1" 533 0 basechar 0
AnchorPoint: "A-0" 533 0 basechar 0
LayerCount: 2
Fore
SplineSet
574 0 m 2
 92 0 l 1
 118 65 159 131 201 186 c 1
 649 186 l 2
 722 186 766 218 801 278 c 0
 831 333 848 403 848 481 c 0
 848 502 848 524 848 546 c 0
 848 672 777 751 713 792 c 0
 664 824 599 838 502 838 c 2
 118 838 l 1
 176 939 237 1021 323 1116 c 1
 328 1077 329 1024 372 1024 c 2
 560 1024 l 2
 773 1024 901 905 946 758 c 0
 963 698 971 633 971 567 c 0
 971 442 942 316 891 222 c 0
 821 96 731 0 574 0 c 2
EndSplineSet
LCarets2: 1 0 
MultipleSubs2: "Add hairspace before low marked Qof" kaf hairspace
Substitution2: "'jalt' Wide Letter Alternatives in Hebrew subtable" kaf.wide
EndChar

StartChar: lamed
Encoding: 1500 1500 74
Width: 984
GlyphClass: 2
Flags: W
HStem: -12 21G<197 251.5> 838 186<204.253 687.176>
VStem: 74 130<1024.14 1240.58> 718 148<523.177 810.326>
AnchorPoint: "A-69" 215 0 basechar 0
AnchorPoint: "A-68" 185 0 basechar 0
AnchorPoint: "A-67" 215 0 basechar 0
AnchorPoint: "A-66" 215 0 basechar 0
AnchorPoint: "A-65" 185 0 basechar 0
AnchorPoint: "A-64" 215 0 basechar 0
AnchorPoint: "A-63" 215 0 basechar 0
AnchorPoint: "A-62" 185 0 basechar 0
AnchorPoint: "A-61" 215 0 basechar 0
AnchorPoint: "A-59" -95 0 basechar 0
AnchorPoint: "A-55" 685 0 basechar 0
AnchorPoint: "A-42" 315 0 basechar 0
AnchorPoint: "A-39" 455 0 basechar 0
AnchorPoint: "A-36" 525 0 basechar 0
AnchorPoint: "A-21" -525 0 basechar 0
AnchorPoint: "A-16" 315 0 basechar 0
AnchorPoint: "A-15" 315 0 basechar 0
AnchorPoint: "A-14" 315 0 basechar 0
AnchorPoint: "A-13" 315 0 basechar 0
AnchorPoint: "A-12" 315 0 basechar 0
AnchorPoint: "A-11" 315 0 basechar 0
AnchorPoint: "A-10" 325 0 basechar 0
AnchorPoint: "A-9" 335 0 basechar 0
AnchorPoint: "A-8" 325 0 basechar 0
AnchorPoint: "A-41" 155 0 basechar 0
AnchorPoint: "A-40" 315 0 basechar 0
AnchorPoint: "A-32" 735 0 basechar 0
AnchorPoint: "A-31" 555 0 basechar 0
AnchorPoint: "A-30" 165 0 basechar 0
AnchorPoint: "A-29" 135 0 basechar 0
AnchorPoint: "A-28" 90 0 basechar 0
AnchorPoint: "A-27" 385 0 basechar 0
AnchorPoint: "A-26" 685 0 basechar 0
AnchorPoint: "A-25" -315 0 basechar 0
AnchorPoint: "A-24" 525 0 basechar 0
AnchorPoint: "A-23" 455 0 basechar 0
AnchorPoint: "A-20" -351 0 basechar 0
AnchorPoint: "A-7" 335 0 basechar 0
AnchorPoint: "A-6" 315 0 basechar 0
AnchorPoint: "A-5" 335 0 basechar 0
AnchorPoint: "A-4" 335 0 basechar 0
AnchorPoint: "A-2" 475 0 basechar 0
AnchorPoint: "A-1" 499 0 basechar 0
AnchorPoint: "A-0" 455 0 basechar 0
LayerCount: 2
Fore
SplineSet
171 1425 m 1
 200 1403 200 1333 200 1285 c 0
 200 1200 204 1157 204 1075 c 16
 204 1039 226 1024 250 1024 c 2
 683 1024 l 2
 852 1024 866 887 866 761 c 8
 866 511 733 323 586 184 c 0
 460 67 324 -12 179 -12 c 1
 215 68 249 135 295 202 c 1
 397 231 521 273 607 364 c 0
 700 463 718 546 718 672 c 0
 718 765 680 838 613 838 c 2
 168 838 l 2
 129 838 96 853 96 905 c 8
 96 981 74 1010 74 1099 c 0
 74 1161 57 1212 33 1242 c 1
 76 1318 117 1372 171 1425 c 1
EndSplineSet
LCarets2: 1 0 
MultipleSubs2: "Add hairspace before low marked Qof" lamed hairspace
MultipleSubs2: "Add thispace after Lamed subtable" lamed thinspace
Substitution2: "'jalt' Wide Letter Alternatives in Hebrew subtable" lamed.wide
EndChar

StartChar: finalmem
Encoding: 1501 1501 75
Width: 1261
GlyphClass: 2
Flags: W
HStem: 0 21G<327.5 997.5> 838 186<338.328 962.926>
VStem: 205 124<206.837 834.8> 1027 142<189.48 764.956>
AnchorPoint: "A-69" 672 0 basechar 0
AnchorPoint: "A-68" 672 0 basechar 0
AnchorPoint: "A-67" 672 0 basechar 0
AnchorPoint: "A-66" 672 0 basechar 0
AnchorPoint: "A-65" 672 0 basechar 0
AnchorPoint: "A-64" 672 0 basechar 0
AnchorPoint: "A-63" 672 0 basechar 0
AnchorPoint: "A-62" 672 0 basechar 0
AnchorPoint: "A-61" 672 0 basechar 0
AnchorPoint: "A-59" 107 0 basechar 0
AnchorPoint: "A-55" 1007 0 basechar 0
AnchorPoint: "A-42" 672 0 basechar 0
AnchorPoint: "A-39" 677 0 basechar 0
AnchorPoint: "A-36" 677 0 basechar 0
AnchorPoint: "A-21" -323 0 basechar 0
AnchorPoint: "A-16" 672 0 basechar 0
AnchorPoint: "A-15" 672 0 basechar 0
AnchorPoint: "A-14" 672 0 basechar 0
AnchorPoint: "A-13" 672 0 basechar 0
AnchorPoint: "A-12" 672 0 basechar 0
AnchorPoint: "A-11" 672 0 basechar 0
AnchorPoint: "A-10" 672 0 basechar 0
AnchorPoint: "A-9" 672 0 basechar 0
AnchorPoint: "A-8" 672 0 basechar 0
AnchorPoint: "A-41" 567 0 basechar 0
AnchorPoint: "A-40" 672 0 basechar 0
AnchorPoint: "A-32" 677 0 basechar 0
AnchorPoint: "A-31" 107 0 basechar 0
AnchorPoint: "A-30" 677 0 basechar 0
AnchorPoint: "A-29" 677 0 basechar 0
AnchorPoint: "A-28" 592 0 basechar 0
AnchorPoint: "A-27" 677 0 basechar 0
AnchorPoint: "A-26" 1007 0 basechar 0
AnchorPoint: "A-25" 147 0 basechar 0
AnchorPoint: "A-24" 677 0 basechar 0
AnchorPoint: "A-23" 677 0 basechar 0
AnchorPoint: "A-20" 67 0 basechar 0
AnchorPoint: "A-7" 672 0 basechar 0
AnchorPoint: "A-6" 672 0 basechar 0
AnchorPoint: "A-5" 672 0 basechar 0
AnchorPoint: "A-4" 672 0 basechar 0
AnchorPoint: "A-3" 687 0 basechar 0
AnchorPoint: "A-2" 677 0 basechar 0
AnchorPoint: "A-1" 677 0 basechar 0
AnchorPoint: "A-0" 677 0 basechar 0
LayerCount: 2
Fore
SplineSet
336 838 m 1
 336 686 329 526 329 326 c 16
 329 259 344 186 455 186 c 2
 957 186 l 2
 1027 186 1027 239 1027 287 c 16
 1027 410 1014 498 1014 614 c 0
 1014 722 976 838 877 838 c 2
 336 838 l 1
107 872 m 1
 174 964 242 1038 331 1116 c 1
 336 1077 339 1024 380 1024 c 2
 892 1024 l 2
 1056 1024 1138 911 1153 785 c 0
 1164 700 1169 608 1169 522 c 0
 1169 404 1160 299 1148 236 c 0
 1130 143 1043 0 952 0 c 10
 391 0 l 18
 264 0 205 135 205 236 c 0
 205 370 205 527 205 713 c 16
 205 817 176 824 107 872 c 1
EndSplineSet
LCarets2: 1 0 
MultipleSubs2: "Add hairspace before low marked Qof" finalmem hairspace
Substitution2: "'jalt' Wide Letter Alternatives in Hebrew subtable" finalmem.wide
EndChar

StartChar: mem
Encoding: 1502 1502 76
Width: 1223
GlyphClass: 2
Flags: W
HStem: 0 21G<436 1052> 863 193<638.764 890.155>
VStem: 1040 119<191.308 642.356>
AnchorPoint: "A-69" 651 0 basechar 0
AnchorPoint: "A-68" 651 0 basechar 0
AnchorPoint: "A-67" 651 0 basechar 0
AnchorPoint: "A-66" 651 0 basechar 0
AnchorPoint: "A-65" 651 0 basechar 0
AnchorPoint: "A-64" 651 0 basechar 0
AnchorPoint: "A-63" 651 0 basechar 0
AnchorPoint: "A-62" 651 0 basechar 0
AnchorPoint: "A-61" 651 0 basechar 0
AnchorPoint: "A-59" 81 0 basechar 0
AnchorPoint: "A-55" 1041 0 basechar 0
AnchorPoint: "A-42" 651 0 basechar 0
AnchorPoint: "A-39" 681 0 basechar 0
AnchorPoint: "A-36" 681 0 basechar 0
AnchorPoint: "A-21" -349 0 basechar 0
AnchorPoint: "A-16" 651 0 basechar 0
AnchorPoint: "A-15" 651 0 basechar 0
AnchorPoint: "A-14" 651 0 basechar 0
AnchorPoint: "A-13" 651 0 basechar 0
AnchorPoint: "A-12" 651 0 basechar 0
AnchorPoint: "A-11" 651 0 basechar 0
AnchorPoint: "A-10" 651 0 basechar 0
AnchorPoint: "A-9" 651 0 basechar 0
AnchorPoint: "A-8" 651 0 basechar 0
AnchorPoint: "A-41" 631 0 basechar 0
AnchorPoint: "A-40" 651 0 basechar 0
AnchorPoint: "A-32" 681 10 basechar 0
AnchorPoint: "A-31" 681 0 basechar 0
AnchorPoint: "A-30" 681 0 basechar 0
AnchorPoint: "A-29" 681 0 basechar 0
AnchorPoint: "A-28" 566 0 basechar 0
AnchorPoint: "A-27" 681 0 basechar 0
AnchorPoint: "A-26" 1041 0 basechar 0
AnchorPoint: "A-25" 201 0 basechar 0
AnchorPoint: "A-24" 681 0 basechar 0
AnchorPoint: "A-23" 681 0 basechar 0
AnchorPoint: "A-20" 121 0 basechar 0
AnchorPoint: "A-7" 651 0 basechar 0
AnchorPoint: "A-6" 651 0 basechar 0
AnchorPoint: "A-5" 651 0 basechar 0
AnchorPoint: "A-4" 651 0 basechar 0
AnchorPoint: "A-2" 681 0 basechar 0
AnchorPoint: "A-1" 681 0 basechar 0
AnchorPoint: "A-0" 681 0 basechar 0
LayerCount: 2
Fore
SplineSet
751 863 m 0
 575 863 472 670 444 597 c 0
 383 434 354 298 303 88 c 1
 246 33 204 1 135 -42 c 1
 204 175 231 266 263 469 c 16
 267 494 269 518 269 542 c 0
 269 692 195 800 113 899 c 1
 147 970 188 1035 236 1092 c 1
 356 950 374 824 409 711 c 1
 528 906 606 1056 791 1056 c 0
 1038 1056 1132 788 1151 619 c 0
 1158 562 1159 511 1159 462 c 0
 1159 365 1149 279 1137 187 c 1
 1108 122 1075 65 1029 0 c 1
 436 0 l 1
 475 72 515 133 561 186 c 1
 1040 186 l 1
 1040 365 1033 530 992 661 c 0
 955 779 888 862 751 863 c 0
EndSplineSet
LCarets2: 1 0 
MultipleSubs2: "Add hairspace before low marked Qof" mem hairspace
EndChar

StartChar: finalnun
Encoding: 1503 1503 77
Width: 667
GlyphClass: 2
Flags: W
VStem: 419 139<75.25 698.934> 440 124<-303.809 31.4271>
AnchorPoint: "A-69" -9 0 basechar 0
AnchorPoint: "A-68" -99 0 basechar 0
AnchorPoint: "A-67" -229 0 basechar 0
AnchorPoint: "A-66" -9 0 basechar 0
AnchorPoint: "A-65" -99 0 basechar 0
AnchorPoint: "A-64" -229 0 basechar 0
AnchorPoint: "A-63" -9 0 basechar 0
AnchorPoint: "A-62" -99 0 basechar 0
AnchorPoint: "A-61" -229 0 basechar 0
AnchorPoint: "A-59" 221 0 basechar 0
AnchorPoint: "A-55" 451 0 basechar 0
AnchorPoint: "A-42" -59 0 basechar 0
AnchorPoint: "A-39" 341 0 basechar 0
AnchorPoint: "A-36" 341 0 basechar 0
AnchorPoint: "A-21" -209 0 basechar 0
AnchorPoint: "A-16" -209 0 basechar 0
AnchorPoint: "A-15" -99 0 basechar 0
AnchorPoint: "A-14" 46 0 basechar 0
AnchorPoint: "A-13" -379 0 basechar 0
AnchorPoint: "A-12" -239 0 basechar 0
AnchorPoint: "A-11" -124 0 basechar 0
AnchorPoint: "A-10" -209 0 basechar 0
AnchorPoint: "A-9" -99 0 basechar 0
AnchorPoint: "A-8" 46 0 basechar 0
AnchorPoint: "A-41" 251 0 basechar 0
AnchorPoint: "A-40" 151 0 basechar 0
AnchorPoint: "A-32" 341 0 basechar 0
AnchorPoint: "A-31" 341 0 basechar 0
AnchorPoint: "A-30" 521 0 basechar 0
AnchorPoint: "A-29" 581 0 basechar 0
AnchorPoint: "A-28" 446 0 basechar 0
AnchorPoint: "A-27" 141 0 basechar 0
AnchorPoint: "A-26" 451 0 basechar 0
AnchorPoint: "A-25" 61 0 basechar 0
AnchorPoint: "A-24" 341 0 basechar 0
AnchorPoint: "A-23" 341 0 basechar 0
AnchorPoint: "A-20" 151 0 basechar 0
AnchorPoint: "A-7" -79 0 basechar 0
AnchorPoint: "A-6" -39 0 basechar 0
AnchorPoint: "A-5" 91 0 basechar 0
AnchorPoint: "A-4" 221 0 basechar 0
AnchorPoint: "A-3" 221 0 basechar 0
AnchorPoint: "A-2" 501 0 basechar 0
AnchorPoint: "A-1" 501 0 basechar 0
AnchorPoint: "A-0" 501 0 basechar 0
LayerCount: 2
Fore
SplineSet
186 1097 m 1x80
 273 1039 365 977 454 905 c 0
 529 844 558 771 558 651 c 0x80
 558 349 564 37 564 -277 c 1
 532 -344 496 -385 440 -431 c 1x40
 440 -50 419 211 419 550 c 0
 419 672 392 692 329 738 c 8
 227 813 146 863 59 922 c 1
 87 996 128 1047 186 1097 c 1x80
EndSplineSet
LCarets2: 1 0 
MultipleSubs2: "Add hairspace before narrowletter subtable subtable" hairspace finalnun
MultipleSubs2: "Add hairspace before low marked Qof" finalnun hairspace
EndChar

StartChar: nun
Encoding: 1504 1504 78
Width: 683
GlyphClass: 2
Flags: W
HStem: 0 21G<53 502.5>
VStem: 461 137<187.472 706.083>
AnchorPoint: "A-69" 273 0 basechar 0
AnchorPoint: "A-68" 273 0 basechar 0
AnchorPoint: "A-67" 273 0 basechar 0
AnchorPoint: "A-66" 273 0 basechar 0
AnchorPoint: "A-65" 273 0 basechar 0
AnchorPoint: "A-64" 273 0 basechar 0
AnchorPoint: "A-63" 273 0 basechar 0
AnchorPoint: "A-62" 273 0 basechar 0
AnchorPoint: "A-61" 273 0 basechar 0
AnchorPoint: "A-59" 23 0 basechar 0
AnchorPoint: "A-55" 573 0 basechar 0
AnchorPoint: "A-42" 343 0 basechar 0
AnchorPoint: "A-39" 403 0 basechar 0
AnchorPoint: "A-36" 423 0 basechar 0
AnchorPoint: "A-22" -157 0 basechar 0
AnchorPoint: "A-21" -382 0 basechar 0
AnchorPoint: "A-16" 343 0 basechar 0
AnchorPoint: "A-15" 343 0 basechar 0
AnchorPoint: "A-14" 343 0 basechar 0
AnchorPoint: "A-13" 343 0 basechar 0
AnchorPoint: "A-12" 343 0 basechar 0
AnchorPoint: "A-11" 343 0 basechar 0
AnchorPoint: "A-10" 343 0 basechar 0
AnchorPoint: "A-9" 343 0 basechar 0
AnchorPoint: "A-8" 343 0 basechar 0
AnchorPoint: "A-41" 103 0 basechar 0
AnchorPoint: "A-40" 343 0 basechar 0
AnchorPoint: "A-32" 423 0 basechar 0
AnchorPoint: "A-31" 423 0 basechar 0
AnchorPoint: "A-30" 573 0 basechar 0
AnchorPoint: "A-29" 593 0 basechar 0
AnchorPoint: "A-28" 508 0 basechar 0
AnchorPoint: "A-27" 283 0 basechar 0
AnchorPoint: "A-26" 573 0 basechar 0
AnchorPoint: "A-25" 143 0 basechar 0
AnchorPoint: "A-24" 423 0 basechar 0
AnchorPoint: "A-23" 403 0 basechar 0
AnchorPoint: "A-20" 83 0 basechar 0
AnchorPoint: "A-7" 343 0 basechar 0
AnchorPoint: "A-6" 343 0 basechar 0
AnchorPoint: "A-5" 343 0 basechar 0
AnchorPoint: "A-4" 343 0 basechar 0
AnchorPoint: "A-2" 403 0 basechar 0
AnchorPoint: "A-1" 403 0 basechar 0
AnchorPoint: "A-0" 403 0 basechar 0
LayerCount: 2
Fore
SplineSet
239 1091 m 1
 330 1031 427 964 502 906 c 0
 579 847 598 777 598 681 c 0
 598 538 594 384 594 237 c 1
 569 135 534 70 471 0 c 1
 53 0 l 1
 82 70 115 126 154 186 c 1
 461 186 l 1
 461 345 461 463 461 592 c 0
 461 660 424 707 371 751 c 8
 285 821 224 853 133 910 c 1
 157 973 197 1038 239 1091 c 1
EndSplineSet
LCarets2: 1 0 
MultipleSubs2: "Add hairspace before narrowletter subtable subtable" hairspace nun
MultipleSubs2: "Add hairspace before low marked Qof" nun hairspace
EndChar

StartChar: samekh
Encoding: 1505 1505 79
Width: 1318
GlyphClass: 2
Flags: W
HStem: -18 186<508.375 756.896> 837 186<351.443 1015.46>
VStem: 1048 156<505.964 813.078>
AnchorPoint: "A-69" 698 0 basechar 0
AnchorPoint: "A-68" 698 0 basechar 0
AnchorPoint: "A-67" 698 0 basechar 0
AnchorPoint: "A-66" 698 0 basechar 0
AnchorPoint: "A-65" 698 0 basechar 0
AnchorPoint: "A-64" 698 0 basechar 0
AnchorPoint: "A-63" 698 0 basechar 0
AnchorPoint: "A-62" 698 0 basechar 0
AnchorPoint: "A-61" 698 0 basechar 0
AnchorPoint: "A-59" 118 0 basechar 0
AnchorPoint: "A-55" 1038 0 basechar 0
AnchorPoint: "A-42" 698 0 basechar 0
AnchorPoint: "A-39" 688 0 basechar 0
AnchorPoint: "A-36" 698 0 basechar 0
AnchorPoint: "A-21" -302 0 basechar 0
AnchorPoint: "A-16" 698 0 basechar 0
AnchorPoint: "A-15" 698 0 basechar 0
AnchorPoint: "A-14" 698 0 basechar 0
AnchorPoint: "A-13" 698 0 basechar 0
AnchorPoint: "A-12" 698 0 basechar 0
AnchorPoint: "A-11" 698 0 basechar 0
AnchorPoint: "A-10" 698 0 basechar 0
AnchorPoint: "A-9" 698 0 basechar 0
AnchorPoint: "A-8" 698 0 basechar 0
AnchorPoint: "A-41" 618 0 basechar 0
AnchorPoint: "A-40" 698 0 basechar 0
AnchorPoint: "A-32" 688 0 basechar 0
AnchorPoint: "A-31" 688 0 basechar 0
AnchorPoint: "A-30" 688 0 basechar 0
AnchorPoint: "A-29" 688 0 basechar 0
AnchorPoint: "A-28" 603 0 basechar 0
AnchorPoint: "A-27" 688 0 basechar 0
AnchorPoint: "A-26" 1038 0 basechar 0
AnchorPoint: "A-25" 178 0 basechar 0
AnchorPoint: "A-24" 698 0 basechar 0
AnchorPoint: "A-23" 688 0 basechar 0
AnchorPoint: "A-20" 118 0 basechar 0
AnchorPoint: "A-7" 698 0 basechar 0
AnchorPoint: "A-6" 698 0 basechar 0
AnchorPoint: "A-5" 698 0 basechar 0
AnchorPoint: "A-4" 698 0 basechar 0
AnchorPoint: "A-2" 688 0 basechar 0
AnchorPoint: "A-1" 688 0 basechar 0
AnchorPoint: "A-0" 688 0 basechar 0
LayerCount: 2
Fore
SplineSet
350 837 m 1
 350 837 415 531 454 337 c 16
 477 228 524 168 610 168 c 0
 617 168 623 170 630 170 c 0
 881 197 992 316 1035 538 c 0
 1043 578 1048 622 1048 665 c 0
 1048 755 1023 837 939 837 c 2
 350 837 l 1
94 852 m 1
 159 958 217 1033 299 1115 c 1
 304 1076 318 1023 361 1023 c 2
 1002 1023 l 2
 1149 1023 1187 951 1200 821 c 0
 1204 797 1204 770 1204 748 c 0
 1204 542 1110 381 1038 277 c 0
 951 153 789 -18 576 -18 c 0
 430 -18 369 91 350 166 c 0
 301 361 268 525 227 673 c 0
 192 801 137 823 94 852 c 1
EndSplineSet
LCarets2: 1 0 
MultipleSubs2: "Add hairspace before low marked Qof" samekh hairspace
EndChar

StartChar: ayin
Encoding: 1506 1506 80
Width: 1058
GlyphClass: 2
Flags: W
VStem: 792 147<418.213 795.946>
AnchorPoint: "A-69" 558 0 basechar 0
AnchorPoint: "A-68" 558 0 basechar 0
AnchorPoint: "A-67" 558 0 basechar 0
AnchorPoint: "A-66" 558 0 basechar 0
AnchorPoint: "A-65" 558 0 basechar 0
AnchorPoint: "A-64" 558 0 basechar 0
AnchorPoint: "A-63" 558 0 basechar 0
AnchorPoint: "A-62" 558 0 basechar 0
AnchorPoint: "A-61" 558 0 basechar 0
AnchorPoint: "A-59" 48 0 basechar 0
AnchorPoint: "A-55" 978 0 basechar 0
AnchorPoint: "A-42" 558 0 basechar 0
AnchorPoint: "A-39" 588 0 basechar 0
AnchorPoint: "A-36" 588 0 basechar 0
AnchorPoint: "A-21" -382 0 basechar 0
AnchorPoint: "A-16" 598 0 basechar 0
AnchorPoint: "A-15" 558 0 basechar 0
AnchorPoint: "A-14" 558 0 basechar 0
AnchorPoint: "A-13" 598 0 basechar 0
AnchorPoint: "A-12" 558 0 basechar 0
AnchorPoint: "A-11" 558 0 basechar 0
AnchorPoint: "A-10" 598 0 basechar 0
AnchorPoint: "A-9" 558 0 basechar 0
AnchorPoint: "A-8" 558 0 basechar 0
AnchorPoint: "A-41" 398 0 basechar 0
AnchorPoint: "A-40" 558 0 basechar 0
AnchorPoint: "A-32" 588 0 basechar 0
AnchorPoint: "A-31" 588 0 basechar 0
AnchorPoint: "A-30" 588 0 basechar 0
AnchorPoint: "A-29" 588 0 basechar 0
AnchorPoint: "A-28" 533 0 basechar 0
AnchorPoint: "A-27" 588 0 basechar 0
AnchorPoint: "A-26" 978 0 basechar 0
AnchorPoint: "A-25" 118 0 basechar 0
AnchorPoint: "A-24" 588 0 basechar 0
AnchorPoint: "A-23" 588 0 basechar 0
AnchorPoint: "A-20" 28 0 basechar 0
AnchorPoint: "A-7" 518 0 basechar 0
AnchorPoint: "A-6" 598 0 basechar 0
AnchorPoint: "A-5" 558 0 basechar 0
AnchorPoint: "A-4" 558 0 basechar 0
AnchorPoint: "A-3" 613 40 basechar 0
AnchorPoint: "A-2" 588 0 basechar 0
AnchorPoint: "A-1" 588 0 basechar 0
AnchorPoint: "A-0" 588 0 basechar 0
LayerCount: 2
Fore
SplineSet
239 1090 m 1
 349 878 383 793 427 648 c 0
 463 523 506 344 543 207 c 1
 692 294 792 342 792 467 c 8
 792 646 741 839 712 921 c 1
 758 979 814 1037 876 1090 c 1
 919 975 939 846 939 719 c 0
 939 605 922 496 890 405 c 0
 784 107 560 -1 60 -219 c 1
 87 -127 111 -71 149 9 c 1
 253 55 359 103 437 149 c 1
 338 463 248 656 94 927 c 1
 140 991 180 1037 239 1090 c 1
EndSplineSet
LCarets2: 1 0 
Substitution2: "Automatic Alternate Ayin Subtable" ayin.alt
MultipleSubs2: "Add hairspace before low marked Qof" ayin hairspace
Substitution2: "'salt' Stylistic Alternatives in Hebrew subtable" ayin.alt
EndChar

StartChar: finalpe
Encoding: 1507 1507 81
Width: 1056
GlyphClass: 2
Flags: W
VStem: 147 149<621.405 807.161> 786 146<43.5612 704.967> 809 123<-295.121 56.8928>
AnchorPoint: "A-69" 419 0 basechar 0
AnchorPoint: "A-68" 309 0 basechar 0
AnchorPoint: "A-67" 199 0 basechar 0
AnchorPoint: "A-66" 419 0 basechar 0
AnchorPoint: "A-65" 309 0 basechar 0
AnchorPoint: "A-64" 199 0 basechar 0
AnchorPoint: "A-63" 419 0 basechar 0
AnchorPoint: "A-62" 309 0 basechar 0
AnchorPoint: "A-61" 199 0 basechar 0
AnchorPoint: "A-59" 79 0 basechar 0
AnchorPoint: "A-55" 829 0 basechar 0
AnchorPoint: "A-42" 339 0 basechar 0
AnchorPoint: "A-39" 579 0 basechar 0
AnchorPoint: "A-36" 579 0 basechar 0
AnchorPoint: "A-21" -351 0 basechar 0
AnchorPoint: "A-16" 169 0 basechar 0
AnchorPoint: "A-15" 319 0 basechar 0
AnchorPoint: "A-14" 449 0 basechar 0
AnchorPoint: "A-13" 39 0 basechar 0
AnchorPoint: "A-12" 159 0 basechar 0
AnchorPoint: "A-11" 299 0 basechar 0
AnchorPoint: "A-10" 169 0 basechar 0
AnchorPoint: "A-9" 319 0 basechar 0
AnchorPoint: "A-8" 449 0 basechar 0
AnchorPoint: "A-41" 649 0 basechar 0
AnchorPoint: "A-40" 539 0 basechar 0
AnchorPoint: "A-32" 579 0 basechar 0
AnchorPoint: "A-31" 579 0 basechar 0
AnchorPoint: "A-30" 619 0 basechar 0
AnchorPoint: "A-29" 639 0 basechar 0
AnchorPoint: "A-28" 564 0 basechar 0
AnchorPoint: "A-27" 519 0 basechar 0
AnchorPoint: "A-26" 829 0 basechar 0
AnchorPoint: "A-25" 169 0 basechar 0
AnchorPoint: "A-24" 579 0 basechar 0
AnchorPoint: "A-23" 579 0 basechar 0
AnchorPoint: "A-20" 79 0 basechar 0
AnchorPoint: "A-7" 339 0 basechar 0
AnchorPoint: "A-6" 399 0 basechar 0
AnchorPoint: "A-5" 509 0 basechar 0
AnchorPoint: "A-4" 539 0 basechar 0
AnchorPoint: "A-2" 579 0 basechar 0
AnchorPoint: "A-1" 579 0 basechar 0
AnchorPoint: "A-0" 579 0 basechar 0
LayerCount: 2
Fore
SplineSet
369 346 m 1xc0
 227 439 147 526 147 643 c 0
 147 652 147 662 147 671 c 0
 147 676 147 679 147 684 c 0
 168 828 313 985 429 1091 c 1
 553 1036 675 986 791 920 c 0
 888 864 932 799 932 635 c 0xc0
 932 365 932 49 932 -276 c 1
 896 -329 859 -365 809 -406 c 1xa0
 809 75 786 207 786 529 c 0
 786 655 779 676 724 727 c 0
 656 788 461 864 386 893 c 1
 332 840 296 785 296 727 c 0
 296 683 318 635 371 587 c 0
 402 560 437 532 477 500 c 1
 441 440 408 393 369 346 c 1xc0
EndSplineSet
LCarets2: 1 0 
MultipleSubs2: "Add hairspace before low marked Qof" finalpe hairspace
EndChar

StartChar: pe
Encoding: 1508 1508 82
Width: 1022
GlyphClass: 2
Flags: W
HStem: 0 21G<72 834.5>
VStem: 161 160<622 799.539> 803 129<191.428 705.843>
AnchorPoint: "A-69" 488 0 basechar 0
AnchorPoint: "A-68" 488 0 basechar 0
AnchorPoint: "A-67" 488 0 basechar 0
AnchorPoint: "A-66" 488 0 basechar 0
AnchorPoint: "A-65" 488 0 basechar 0
AnchorPoint: "A-64" 488 0 basechar 0
AnchorPoint: "A-63" 488 0 basechar 0
AnchorPoint: "A-62" 488 0 basechar 0
AnchorPoint: "A-61" 488 0 basechar 0
AnchorPoint: "A-59" -2 0 basechar 0
AnchorPoint: "A-55" 838 0 basechar 0
AnchorPoint: "A-42" 488 0 basechar 0
AnchorPoint: "A-39" 568 0 basechar 0
AnchorPoint: "A-36" 569 0 basechar 0
AnchorPoint: "A-21" -432 0 basechar 0
AnchorPoint: "A-16" 498 0 basechar 0
AnchorPoint: "A-15" 498 0 basechar 0
AnchorPoint: "A-14" 498 0 basechar 0
AnchorPoint: "A-13" 498 0 basechar 0
AnchorPoint: "A-12" 498 0 basechar 0
AnchorPoint: "A-11" 498 0 basechar 0
AnchorPoint: "A-10" 498 0 basechar 0
AnchorPoint: "A-9" 498 0 basechar 0
AnchorPoint: "A-8" 498 0 basechar 0
AnchorPoint: "A-41" 408 0 basechar 0
AnchorPoint: "A-40" 488 0 basechar 0
AnchorPoint: "A-32" 568 0 basechar 0
AnchorPoint: "A-31" 568 0 basechar 0
AnchorPoint: "A-30" 618 0 basechar 0
AnchorPoint: "A-29" 638 0 basechar 0
AnchorPoint: "A-28" 483 0 basechar 0
AnchorPoint: "A-27" 498 0 basechar 0
AnchorPoint: "A-26" 838 0 basechar 0
AnchorPoint: "A-25" 148 0 basechar 0
AnchorPoint: "A-24" 569 0 basechar 0
AnchorPoint: "A-23" 568 0 basechar 0
AnchorPoint: "A-20" 78 0 basechar 0
AnchorPoint: "A-7" 498 0 basechar 0
AnchorPoint: "A-6" 498 0 basechar 0
AnchorPoint: "A-5" 498 0 basechar 0
AnchorPoint: "A-4" 498 0 basechar 0
AnchorPoint: "A-2" 568 0 basechar 0
AnchorPoint: "A-1" 568 0 basechar 0
AnchorPoint: "A-0" 568 0 basechar 0
LayerCount: 2
Fore
SplineSet
415 1091 m 1
 540 1048 670 1007 813 918 c 16
 895 867 944 809 944 683 c 0
 944 526 932 382 932 210 c 1
 912 147 866 49 803 0 c 1
 72 0 l 1
 111 67 156 128 202 186 c 1
 741 186 l 1
 779 186 803 217 803 253 c 16
 803 290 803 331 803 375 c 0
 803 452 794 532 794 601 c 0
 794 681 760 724 687 768 c 8
 579 833 460 867 385 886 c 1
 344 843 321 783 321 732 c 0
 321 712 325 693 332 678 c 0
 347 642 396 608 458 573 c 1
 429 514 396 457 357 408 c 1
 279 439 185 492 166 582 c 0
 163 597 161 614 161 630 c 0
 161 729 217 831 257 889 c 0
 313 969 354 1024 415 1091 c 1
EndSplineSet
LCarets2: 1 0 
MultipleSubs2: "Add hairspace before low marked Qof" pe hairspace
EndChar

StartChar: finaltsadi
Encoding: 1509 1509 83
Width: 1058
GlyphClass: 2
Flags: W
VStem: 677 114<-298.426 -31.783> 731 195<719.428 949.305>
AnchorPoint: "A-69" 952 0 basechar 0
AnchorPoint: "A-68" 1002 0 basechar 0
AnchorPoint: "A-67" 1002 0 basechar 0
AnchorPoint: "A-66" 952 0 basechar 0
AnchorPoint: "A-65" 1002 0 basechar 0
AnchorPoint: "A-64" 1002 0 basechar 0
AnchorPoint: "A-63" 952 0 basechar 0
AnchorPoint: "A-62" 1002 0 basechar 0
AnchorPoint: "A-61" 1002 0 basechar 0
AnchorPoint: "A-59" 422 0 basechar 0
AnchorPoint: "A-55" 894 0 basechar 0
AnchorPoint: "A-42" 1102 0 basechar 0
AnchorPoint: "A-39" 544 0 basechar 0
AnchorPoint: "A-36" 544 0 basechar 0
AnchorPoint: "A-21" -8 0 basechar 0
AnchorPoint: "A-16" 1312 0 basechar 0
AnchorPoint: "A-15" 1202 0 basechar 0
AnchorPoint: "A-14" 1062 0 basechar 0
AnchorPoint: "A-13" 1312 0 basechar 0
AnchorPoint: "A-12" 1202 0 basechar 0
AnchorPoint: "A-11" 1062 0 basechar 0
AnchorPoint: "A-10" 1312 0 basechar 0
AnchorPoint: "A-9" 1202 0 basechar 0
AnchorPoint: "A-8" 1062 0 basechar 0
AnchorPoint: "A-41" 792 0 basechar 0
AnchorPoint: "A-40" 1072 0 basechar 0
AnchorPoint: "A-32" 544 0 basechar 0
AnchorPoint: "A-31" 544 0 basechar 0
AnchorPoint: "A-30" 554 0 basechar 0
AnchorPoint: "A-29" 554 0 basechar 0
AnchorPoint: "A-28" 559 0 basechar 0
AnchorPoint: "A-27" 514 0 basechar 0
AnchorPoint: "A-26" 894 0 basechar 0
AnchorPoint: "A-25" 74 0 basechar 0
AnchorPoint: "A-24" 544 0 basechar 0
AnchorPoint: "A-23" 544 0 basechar 0
AnchorPoint: "A-20" 352 0 basechar 0
AnchorPoint: "A-7" 1292 0 basechar 0
AnchorPoint: "A-6" 1232 0 basechar 0
AnchorPoint: "A-5" 1112 0 basechar 0
AnchorPoint: "A-4" 1002 0 basechar 0
AnchorPoint: "A-3" 452 0 basechar 0
AnchorPoint: "A-2" 902 0 basechar 0
AnchorPoint: "A-1" 902 0 basechar 0
AnchorPoint: "A-0" 902 0 basechar 0
LayerCount: 2
Fore
SplineSet
593 536 m 1x80
 697 618 731 698 731 783 c 0
 731 826 723 870 711 918 c 1
 772 984 827 1036 892 1089 c 1
 914 1025 926 967 926 909 c 0x40
 926 740 827 592 639 435 c 1
 718 249 791 -11 791 -278 c 1
 760 -328 728 -366 677 -408 c 1
 677 -166 620 121 468 416 c 16
 364 618 177 831 62 928 c 1
 112 991 161 1044 211 1089 c 1
 339 961 497 737 593 536 c 1x80
EndSplineSet
LCarets2: 1 0 
MultipleSubs2: "Add hairspace before low marked Qof" finaltsadi hairspace
EndChar

StartChar: tsadi
Encoding: 1510 1510 84
Width: 1091
GlyphClass: 2
Flags: W
HStem: 0 21G<66 842.5>
VStem: 764 191<711.148 949.144> 827 127<186 276.894>
AnchorPoint: "A-69" 527 0 basechar 0
AnchorPoint: "A-68" 527 0 basechar 0
AnchorPoint: "A-67" 527 0 basechar 0
AnchorPoint: "A-66" 527 0 basechar 0
AnchorPoint: "A-65" 527 0 basechar 0
AnchorPoint: "A-64" 527 0 basechar 0
AnchorPoint: "A-63" 527 0 basechar 0
AnchorPoint: "A-62" 527 0 basechar 0
AnchorPoint: "A-61" 527 0 basechar 0
AnchorPoint: "A-59" 67 0 basechar 0
AnchorPoint: "A-55" 917 0 basechar 0
AnchorPoint: "A-42" 527 0 basechar 0
AnchorPoint: "A-39" 567 0 basechar 0
AnchorPoint: "A-36" 567 0 basechar 0
AnchorPoint: "A-21" -363 0 basechar 0
AnchorPoint: "A-16" 527 0 basechar 0
AnchorPoint: "A-15" 527 0 basechar 0
AnchorPoint: "A-14" 527 0 basechar 0
AnchorPoint: "A-13" 527 0 basechar 0
AnchorPoint: "A-12" 527 0 basechar 0
AnchorPoint: "A-11" 527 0 basechar 0
AnchorPoint: "A-10" 527 0 basechar 0
AnchorPoint: "A-9" 527 0 basechar 0
AnchorPoint: "A-8" 527 0 basechar 0
AnchorPoint: "A-41" 387 0 basechar 0
AnchorPoint: "A-40" 527 0 basechar 0
AnchorPoint: "A-32" 567 0 basechar 0
AnchorPoint: "A-31" 567 0 basechar 0
AnchorPoint: "A-30" 567 0 basechar 0
AnchorPoint: "A-29" 587 0 basechar 0
AnchorPoint: "A-28" 552 0 basechar 0
AnchorPoint: "A-27" 527 0 basechar 0
AnchorPoint: "A-26" 917 0 basechar 0
AnchorPoint: "A-25" 107 0 basechar 0
AnchorPoint: "A-24" 567 0 basechar 0
AnchorPoint: "A-23" 567 0 basechar 0
AnchorPoint: "A-20" 7 0 basechar 0
AnchorPoint: "A-7" 527 0 basechar 0
AnchorPoint: "A-6" 527 0 basechar 0
AnchorPoint: "A-5" 527 0 basechar 0
AnchorPoint: "A-4" 527 0 basechar 0
AnchorPoint: "A-2" 567 0 basechar 0
AnchorPoint: "A-1" 567 0 basechar 0
AnchorPoint: "A-0" 567 0 basechar 0
LayerCount: 2
Fore
SplineSet
273 1091 m 1xa0
 375 862 530 715 698 563 c 1
 747 635 764 700 764 753 c 0
 764 811 745 857 723 891 c 1
 764 957 822 1029 879 1091 c 1
 931 1007 955 937 955 870 c 0
 955 751 877 645 764 498 c 1xc0
 844 422 954 338 954 213 c 0
 954 205 954 195 952 186 c 1
 918 121 868 55 817 0 c 1
 66 0 l 1
 99 63 146 133 191 186 c 1
 827 186 l 1
 829 191 827 198 827 205 c 0
 827 220 821 236 809 251 c 0
 735 340 549 463 418 579 c 0
 331 654 204 766 126 905 c 1
 170 971 223 1039 273 1091 c 1xa0
EndSplineSet
LCarets2: 1 0 
MultipleSubs2: "Add hairspace before low marked Qof" tsadi hairspace
EndChar

StartChar: kof
Encoding: 1511 1511 85
Width: 1270
GlyphClass: 2
Flags: W
HStem: -15 21G<478 540.5> 838 186<312.109 961.396>
VStem: 201 136<237.539 532.768> 261 119<-262.101 58.4481> 991 161<554.404 809.418>
AnchorPoint: "A-69" 616 0 basechar 0
AnchorPoint: "A-68" 616 0 basechar 0
AnchorPoint: "A-67" 616 0 basechar 0
AnchorPoint: "A-66" 616 0 basechar 0
AnchorPoint: "A-65" 616 0 basechar 0
AnchorPoint: "A-64" 616 0 basechar 0
AnchorPoint: "A-63" 616 0 basechar 0
AnchorPoint: "A-62" 616 0 basechar 0
AnchorPoint: "A-61" 616 0 basechar 0
AnchorPoint: "A-59" 76 0 basechar 0
AnchorPoint: "A-55" 996 0 basechar 0
AnchorPoint: "A-42" 846 0 basechar 0
AnchorPoint: "A-39" 646 0 basechar 0
AnchorPoint: "A-36" 646 0 basechar 0
AnchorPoint: "A-21" -354 0 basechar 0
AnchorPoint: "A-16" 886 0 basechar 0
AnchorPoint: "A-15" 776 0 basechar 0
AnchorPoint: "A-14" 656 0 basechar 0
AnchorPoint: "A-13" 886 0 basechar 0
AnchorPoint: "A-12" 776 0 basechar 0
AnchorPoint: "A-11" 656 0 basechar 0
AnchorPoint: "A-10" 896 0 basechar 0
AnchorPoint: "A-9" 886 0 basechar 0
AnchorPoint: "A-8" 816 0 basechar 0
AnchorPoint: "A-41" 476 0 basechar 0
AnchorPoint: "A-40" 676 0 basechar 0
AnchorPoint: "A-32" 646 0 basechar 0
AnchorPoint: "A-31" 646 0 basechar 0
AnchorPoint: "A-30" 646 0 basechar 0
AnchorPoint: "A-29" 646 0 basechar 0
AnchorPoint: "A-28" 561 0 basechar 0
AnchorPoint: "A-27" 646 0 basechar 0
AnchorPoint: "A-26" 996 0 basechar 0
AnchorPoint: "A-25" 126 0 basechar 0
AnchorPoint: "A-24" 646 0 basechar 0
AnchorPoint: "A-23" 646 0 basechar 0
AnchorPoint: "A-20" 56 0 basechar 0
AnchorPoint: "A-7" 886 0 basechar 0
AnchorPoint: "A-6" 826 0 basechar 0
AnchorPoint: "A-5" 736 0 basechar 0
AnchorPoint: "A-4" 616 0 basechar 0
AnchorPoint: "A-2" 646 0 basechar 0
AnchorPoint: "A-1" 646 0 basechar 0
AnchorPoint: "A-0" 646 0 basechar 0
LayerCount: 2
Fore
SplineSet
337 708 m 1xe8
 337 259 380 114 380 -236 c 1
 348 -300 310 -348 261 -398 c 1xd8
 261 0 201 152 201 509 c 1
 235 572 283 638 337 708 c 1xe8
100 838 m 1
 160 939 218 1021 305 1116 c 1
 310 1079 312 1024 355 1024 c 2
 945 1024 l 2
 1063 1024 1152 981 1152 800 c 0
 1152 592 1041 335 889 183 c 0
 795 89 614 0 467 -15 c 1
 489 61 522 131 566 195 c 1
 831 258 991 335 991 689 c 0
 991 785 943 838 868 838 c 2
 100 838 l 1
EndSplineSet
LCarets2: 1 0 
MultipleSubs2: "Add hairspace before low marked Qof" kof hairspace
EndChar

StartChar: resh
Encoding: 1512 1512 86
Width: 1052
GlyphClass: 2
Flags: W
HStem: 838 186<301.667 741.54>
AnchorPoint: "A-69" 748 0 basechar 0
AnchorPoint: "A-68" 648 0 basechar 0
AnchorPoint: "A-67" 548 0 basechar 0
AnchorPoint: "A-66" 748 0 basechar 0
AnchorPoint: "A-65" 648 0 basechar 0
AnchorPoint: "A-64" 548 0 basechar 0
AnchorPoint: "A-63" 748 0 basechar 0
AnchorPoint: "A-62" 648 0 basechar 0
AnchorPoint: "A-61" 548 0 basechar 0
AnchorPoint: "A-59" 58 0 basechar 0
AnchorPoint: "A-55" 838 0 basechar 0
AnchorPoint: "A-42" 658 0 basechar 0
AnchorPoint: "A-39" 508 0 basechar 0
AnchorPoint: "A-36" 508 0 basechar 0
AnchorPoint: "A-21" -372 0 basechar 0
AnchorPoint: "A-19" 568 0 basechar 0
AnchorPoint: "A-18" 658 0 basechar 0
AnchorPoint: "A-17" 708 0 basechar 0
AnchorPoint: "A-16" 568 0 basechar 0
AnchorPoint: "A-15" 658 0 basechar 0
AnchorPoint: "A-14" 708 0 basechar 0
AnchorPoint: "A-13" 538 0 basechar 0
AnchorPoint: "A-12" 628 0 basechar 0
AnchorPoint: "A-11" 678 0 basechar 0
AnchorPoint: "A-10" 568 0 basechar 0
AnchorPoint: "A-9" 658 0 basechar 0
AnchorPoint: "A-8" 708 0 basechar 0
AnchorPoint: "A-41" 508 0 basechar 0
AnchorPoint: "A-40" 758 0 basechar 0
AnchorPoint: "A-32" 508 0 basechar 0
AnchorPoint: "A-31" 508 0 basechar 0
AnchorPoint: "A-30" 508 0 basechar 0
AnchorPoint: "A-29" 508 0 basechar 0
AnchorPoint: "A-28" 543 0 basechar 0
AnchorPoint: "A-27" 508 0 basechar 0
AnchorPoint: "A-26" 838 0 basechar 0
AnchorPoint: "A-25" 58 0 basechar 0
AnchorPoint: "A-24" 508 0 basechar 0
AnchorPoint: "A-23" 508 0 basechar 0
AnchorPoint: "A-20" -32 0 basechar 0
AnchorPoint: "A-7" 613 0 basechar 0
AnchorPoint: "A-6" 678 0 basechar 0
AnchorPoint: "A-5" 818 0 basechar 0
AnchorPoint: "A-4" 858 0 basechar 0
AnchorPoint: "A-2" 508 0 basechar 0
AnchorPoint: "A-1" 508 0 basechar 0
AnchorPoint: "A-0" 508 0 basechar 0
LayerCount: 2
Fore
SplineSet
796 679 m 0
 789 742 774 780 743 804 c 0
 712 829 672 838 620 838 c 2
 91 838 l 1
 149 942 200 1012 294 1116 c 1
 299 1077 303 1024 344 1024 c 2
 603 1024 l 2
 709 1024 791 998 849 947 c 0
 910 891 941 816 941 681 c 0
 941 433 962 104 962 104 c 1
 917 44 875 2 815 -43 c 1
 815 201 811 546 796 679 c 0
EndSplineSet
LCarets2: 1 0 
MultipleSubs2: "Add hairspace before low marked Qof" resh hairspace
Substitution2: "'jalt' Wide Letter Alternatives in Hebrew subtable" resh.wide
EndChar

StartChar: shin
Encoding: 1513 1513 87
Width: 1329
GlyphClass: 2
Flags: W
HStem: -17 183<554.412 765.515>
VStem: 618 163<617.254 960.47> 1046 162<492.244 890.92>
AnchorPoint: "A-69" 692 0 basechar 0
AnchorPoint: "A-68" 692 0 basechar 0
AnchorPoint: "A-67" 692 0 basechar 0
AnchorPoint: "A-66" 692 0 basechar 0
AnchorPoint: "A-65" 692 0 basechar 0
AnchorPoint: "A-64" 692 0 basechar 0
AnchorPoint: "A-63" 692 0 basechar 0
AnchorPoint: "A-62" 692 0 basechar 0
AnchorPoint: "A-61" 692 0 basechar 0
AnchorPoint: "A-59" 27 0 basechar 0
AnchorPoint: "A-55" 1277 0 basechar 0
AnchorPoint: "A-42" 692 0 basechar 0
AnchorPoint: "A-39" 717 0 basechar 0
AnchorPoint: "A-36" 717 0 basechar 0
AnchorPoint: "A-21" -403 0 basechar 0
AnchorPoint: "A-16" 692 0 basechar 0
AnchorPoint: "A-15" 692 0 basechar 0
AnchorPoint: "A-14" 692 0 basechar 0
AnchorPoint: "A-13" 692 0 basechar 0
AnchorPoint: "A-12" 692 0 basechar 0
AnchorPoint: "A-11" 692 0 basechar 0
AnchorPoint: "A-10" 692 0 basechar 0
AnchorPoint: "A-9" 692 0 basechar 0
AnchorPoint: "A-8" 692 0 basechar 0
AnchorPoint: "A-41" 692 0 basechar 0
AnchorPoint: "A-40" 692 0 basechar 0
AnchorPoint: "A-32" 717 0 basechar 0
AnchorPoint: "A-31" 717 0 basechar 0
AnchorPoint: "A-30" 527 0 basechar 0
AnchorPoint: "A-29" 627 0 basechar 0
AnchorPoint: "A-28" 512 0 basechar 0
AnchorPoint: "A-27" 807 0 basechar 0
AnchorPoint: "A-26" 1277 0 basechar 0
AnchorPoint: "A-25" 77 0 basechar 0
AnchorPoint: "A-24" 717 0 basechar 0
AnchorPoint: "A-23" 717 0 basechar 0
AnchorPoint: "A-20" -53 0 basechar 0
AnchorPoint: "A-7" 692 0 basechar 0
AnchorPoint: "A-6" 692 0 basechar 0
AnchorPoint: "A-5" 692 0 basechar 0
AnchorPoint: "A-4" 692 0 basechar 0
AnchorPoint: "A-2" 717 0 basechar 0
AnchorPoint: "A-1" 717 0 basechar 0
AnchorPoint: "A-0" 717 0 basechar 0
LayerCount: 2
Fore
SplineSet
476 401 m 1
 512 275 539 166 655 166 c 0
 722 166 821 212 903 276 c 0
 1002 353 1046 464 1046 635 c 0
 1046 775 1008 867 986 940 c 1
 1029 998 1080 1044 1143 1091 c 1
 1174 1007 1208 882 1208 746 c 0
 1208 696 1203 647 1193 596 c 0
 1165 461 1090 311 998 215 c 0
 882 89 742 -17 607 -17 c 0
 541 -17 476 14 425 113 c 0
 370 218 326 355 280 505 c 0
 237 640 199 754 95 920 c 1
 129 980 179 1048 232 1091 c 1
 295 983 447 498 447 498 c 17
 512 536 597 602 612 683 c 0
 616 701 618 722 618 739 c 0
 618 824 583 896 558 944 c 1
 592 997 638 1050 687 1091 c 1
 735 1041 781 922 781 799 c 0
 781 759 776 719 764 679 c 0
 728 556 612 478 476 401 c 1
EndSplineSet
LCarets2: 1 0 
MultipleSubs2: "Add hairspace before low marked Qof" shin hairspace
EndChar

StartChar: tav
Encoding: 1514 1514 88
Width: 1262
GlyphClass: 2
Flags: W
HStem: 0 21G<73 452> 838 186<456 950.718>
VStem: 406 109<189.793 551.692> 1002 140<181.643 791.653> 1029 113<79.595 410.14>
AnchorPoint: "A-69" 686 0 basechar 0
AnchorPoint: "A-68" 686 0 basechar 0
AnchorPoint: "A-67" 686 0 basechar 0
AnchorPoint: "A-66" 686 0 basechar 0
AnchorPoint: "A-65" 686 0 basechar 0
AnchorPoint: "A-64" 686 0 basechar 0
AnchorPoint: "A-63" 686 0 basechar 0
AnchorPoint: "A-62" 686 0 basechar 0
AnchorPoint: "A-61" 686 0 basechar 0
AnchorPoint: "A-59" 41 0 basechar 0
AnchorPoint: "A-55" 1051 0 basechar 0
AnchorPoint: "A-42" 686 0 basechar 0
AnchorPoint: "A-39" 711 0 basechar 0
AnchorPoint: "A-36" 727 0 basechar 0
AnchorPoint: "A-21" -364 0 basechar 0
AnchorPoint: "A-16" 686 0 basechar 0
AnchorPoint: "A-15" 686 0 basechar 0
AnchorPoint: "A-14" 686 0 basechar 0
AnchorPoint: "A-13" 686 0 basechar 0
AnchorPoint: "A-12" 686 0 basechar 0
AnchorPoint: "A-11" 686 0 basechar 0
AnchorPoint: "A-10" 686 0 basechar 0
AnchorPoint: "A-9" 686 0 basechar 0
AnchorPoint: "A-8" 686 0 basechar 0
AnchorPoint: "A-41" 661 0 basechar 0
AnchorPoint: "A-40" 686 0 basechar 0
AnchorPoint: "A-32" 711 0 basechar 0
AnchorPoint: "A-31" 711 0 basechar 0
AnchorPoint: "A-30" 711 0 basechar 0
AnchorPoint: "A-29" 711 0 basechar 0
AnchorPoint: "A-28" 526 0 basechar 0
AnchorPoint: "A-27" 711 0 basechar 0
AnchorPoint: "A-26" 1051 0 basechar 0
AnchorPoint: "A-25" 161 0 basechar 0
AnchorPoint: "A-24" 727 0 basechar 0
AnchorPoint: "A-23" 711 0 basechar 0
AnchorPoint: "A-20" 81 0 basechar 0
AnchorPoint: "A-7" 686 0 basechar 0
AnchorPoint: "A-6" 686 0 basechar 0
AnchorPoint: "A-5" 686 0 basechar 0
AnchorPoint: "A-4" 686 0 basechar 0
AnchorPoint: "A-2" 711 0 basechar 0
AnchorPoint: "A-1" 711 0 basechar 0
AnchorPoint: "A-0" 711 0 basechar 0
LayerCount: 2
Fore
SplineSet
456 838 m 17xf0
 483 674 515 404 515 314 c 0
 515 227 481 137 423 0 c 1
 73 0 l 1
 104 68 136 125 177 186 c 1
 406 186 l 1
 406 428 300 838 300 838 c 25
 111 838 l 1
 176 937 258 1026 350 1116 c 1
 355 1077 357 1024 399 1024 c 2
 858 1024 l 2
 1080 1024 1142 869 1142 734 c 2xf0
 1142 104 l 1
 1108 44 1080 0 1029 -43 c 1xe8
 1029 196 1002 657 1002 657 c 1
 1002 797 921 838 821 838 c 2
 456 838 l 17xf0
EndSplineSet
LCarets2: 1 0 
MultipleSubs2: "Add hairspace before low marked Qof" tav hairspace
Substitution2: "'jalt' Wide Letter Alternatives in Hebrew subtable" tav.wide
EndChar

StartChar: zerononjoin
Encoding: 8204 8204 96
Width: 0
GlyphClass: 2
Flags: W
HStem: 1613 281
VStem: -141 281
LayerCount: 2
Fore
SplineSet
-108 1894 m 1
 0 1786 l 1
 106 1893 l 1
 140 1860 l 1
 33 1753 l 1
 140 1646 l 1
 106 1613 l 1
 0 1719 l 1
 -108 1612 l 1
 -141 1646 l 1
 -34 1753 l 1
 -141 1860 l 1
 -108 1894 l 1
EndSplineSet
Validated: 1
EndChar

StartChar: zerojoin
Encoding: 8205 8205 97
Width: 0
GlyphClass: 2
Flags: W
HStem: 1637 140<-203 -156 157 204> 1730 47<-156 157>
VStem: -203 47<1637 1730> 157 47<1637 1730>
LayerCount: 2
Fore
SplineSet
157 1637 m 1xb0
 157 1730 l 1
 -156 1730 l 1x70
 -156 1637 l 1
 -203 1637 l 1
 -203 1777 l 1
 204 1777 l 1
 204 1637 l 1
 157 1637 l 1xb0
EndSplineSet
Validated: 1
EndChar

StartChar: lrm
Encoding: 8206 8206 98
Width: 0
GlyphClass: 2
Flags: W
HStem: 1730 47<-154 104>
VStem: -154 349
LayerCount: 2
Fore
SplineSet
21 1860 m 1
 54 1894 l 1
 195 1753 l 1
 54 1612 l 1
 21 1646 l 1
 105 1730 l 1
 -154 1730 l 1
 -154 1777 l 1
 104 1777 l 1
 21 1860 l 1
EndSplineSet
Validated: 1
EndChar

StartChar: rlm
Encoding: 8207 8207 99
Width: 0
GlyphClass: 2
Flags: W
HStem: 1730 47<-103 155>
VStem: -194 349
LayerCount: 2
Fore
SplineSet
-20 1647 m 1
 -53 1613 l 1
 -194 1754 l 1
 -53 1895 l 1
 -20 1861 l 1
 -104 1777 l 1
 155 1777 l 1
 155 1730 l 1
 -103 1730 l 1
 -20 1647 l 1
EndSplineSet
Validated: 1
EndChar

StartChar: quoteleft
Encoding: 8216 8216 100
Width: 416
GlyphClass: 2
Flags: W
HStem: 703 659
VStem: 60 185<1004.1 1257.41>
LayerCount: 2
Fore
SplineSet
132 1362 m 1
 187 1324 235 1278 274 1212 c 1
 253 1171 245 1126 245 1080 c 0
 245 973 289 852 335 720 c 1
 328 712 306 703 293 703 c 1
 192 833 60 1026 60 1188 c 0
 60 1253 81 1312 132 1362 c 1
EndSplineSet
Validated: 1
EndChar

StartChar: newshekel
Encoding: 8362 8362 106
Width: 1628
VWidth: 1706
GlyphClass: 2
Flags: W
HStem: -17 21G<701.5 1017> 838 186<355.094 813.895>
VStem: 201 154<262.818 834.08> 579 138<204.273 635.187> 975 153<388.239 680.5> 1364 146<405.578 835.484>
LayerCount: 2
Fore
SplineSet
340 1116 m 1
 345 1077 346 1024 389 1024 c 2
 389 1024 560 1024 671 1024 c 16
 952 1024 1087 833 1111 649 c 0
 1120 579 1128 510 1128 439 c 1
 1091 387 1041 350 986 317 c 1
 986 367 975 415 975 461 c 0
 975 616 932 773 759 816 c 0
 695 831 521 838 355 838 c 1
 355 812 355 783 355 753 c 0
 355 534 353 208 333 92 c 1
 282 29 229 -17 189 -43 c 1
 189 130 201 311 201 486 c 0
 201 633 193 777 162 910 c 1
 207 1004 263 1055 340 1116 c 1
719 620 m 1
 719 531 717 439 717 329 c 0
 717 263 736 172 858 172 c 0
 1021 172 1130 198 1217 261 c 0
 1292 316 1364 398 1364 512 c 0
 1364 534 1364 555 1364 577 c 0
 1364 720 1318 857 1283 934 c 1
 1328 995 1377 1041 1446 1091 c 1
 1490 971 1510 836 1510 708 c 0
 1510 608 1498 510 1473 427 c 0
 1428 276 1244 -17 790 -17 c 2
 761 -17 l 2
 642 -17 579 118 579 218 c 0
 579 338 579 476 579 635 c 1
 594 638 609 640 626 640 c 0
 659 640 691 633 719 620 c 1
EndSplineSet
Validated: 1
EndChar

StartChar: Euro
Encoding: 8364 8364 107
Width: 1044
VWidth: 1706
GlyphClass: 2
Flags: W
HStem: -22 157<553.229 857.101> 413 109<343 672.615> 618 109<321 755.22> 1021 191<551.675 865.748>
VStem: 166 150<523.453 617.982>
LayerCount: 2
Fore
SplineSet
166 495 m 1
 166 555 166 614 174 674 c 0
 207 882 365 1091 573 1179 c 0
 621 1200 686 1212 758 1212 c 0
 811 1212 869 1205 925 1191 c 1
 910 1125 887 1068 853 1014 c 1
 819 1019 795 1021 759 1021 c 0
 596 1021 459 990 375 886 c 0
 352 855 331 794 321 727 c 1
 812 727 l 1
 795 686 771 647 742 618 c 1
 316 618 l 1
 316 584 317 553 321 522 c 1
 729 522 l 1
 713 481 689 442 659 413 c 1
 343 413 l 1
 352 387 360 362 374 336 c 0
 444 200 613 135 771 135 c 0
 816 135 858 140 899 150 c 1
 899 96 877 44 852 -5 c 1
 811 -15 770 -22 719 -22 c 0
 594 -22 432 15 311 135 c 16
 242 201 196 297 176 413 c 1
 119 413 l 1
 131 442 147 469 166 495 c 1
EndSplineSet
Validated: 1
EndChar

StartChar: dottedcircle
Encoding: 9676 9676 108
Width: 1244
GlyphClass: 2
Flags: W
HStem: -12 143<554.435 690.555> 48 143<320.435 456.555 788.435 924.555> 222 143<146.435 282.555 962.435 1098.55> 456 143<86.4348 222.555 1022.43 1158.55> 690 143<146.435 282.555 962.435 1098.55> 864 143<320.435 456.555 788.435 924.555> 924 143<554.435 690.555>
VStem: 83 143<459.435 595.555> 143 143<225.435 361.555 693.435 829.555> 317 143<51.4348 187.555 867.435 1003.55> 551 143<-8.56516 127.555 927.435 1063.55> 785 143<51.4348 187.555 867.435 1003.55> 959 143<225.435 361.555 693.435 829.555> 1019 143<459.435 595.555>
AnchorPoint: "A-69" 662 0 basechar 0
AnchorPoint: "A-68" 662 0 basechar 0
AnchorPoint: "A-67" 662 0 basechar 0
AnchorPoint: "A-66" 662 0 basechar 0
AnchorPoint: "A-65" 662 0 basechar 0
AnchorPoint: "A-64" 662 0 basechar 0
AnchorPoint: "A-63" 662 0 basechar 0
AnchorPoint: "A-62" 662 0 basechar 0
AnchorPoint: "A-61" 662 0 basechar 0
AnchorPoint: "A-59" 0 0 basechar 0
AnchorPoint: "A-55" 1032 0 basechar 0
AnchorPoint: "A-42" 662 0 basechar 0
AnchorPoint: "A-39" 622 0 basechar 0
AnchorPoint: "A-36" 622 0 basechar 0
AnchorPoint: "A-21" -430 0 basechar 0
AnchorPoint: "A-16" 622 0 basechar 0
AnchorPoint: "A-15" 622 0 basechar 0
AnchorPoint: "A-14" 622 0 basechar 0
AnchorPoint: "A-13" 622 0 basechar 0
AnchorPoint: "A-12" 622 0 basechar 0
AnchorPoint: "A-11" 622 0 basechar 0
AnchorPoint: "A-10" 622 0 basechar 0
AnchorPoint: "A-9" 622 0 basechar 0
AnchorPoint: "A-8" 622 0 basechar 0
AnchorPoint: "A-60" 622 0 basechar 0
AnchorPoint: "A-41" 630 0 basechar 0
AnchorPoint: "A-40" 662 0 basechar 0
AnchorPoint: "A-32" 622 0 basechar 0
AnchorPoint: "A-31" 622 0 basechar 0
AnchorPoint: "A-30" 500 0 basechar 0
AnchorPoint: "A-29" 622 0 basechar 0
AnchorPoint: "A-28" 485 0 basechar 0
AnchorPoint: "A-27" 622 0 basechar 0
AnchorPoint: "A-26" 1032 0 basechar 0
AnchorPoint: "A-25" 150 0 basechar 0
AnchorPoint: "A-24" 622 0 basechar 0
AnchorPoint: "A-23" 622 0 basechar 0
AnchorPoint: "A-20" -80 0 basechar 0
AnchorPoint: "A-7" 622 0 basechar 0
AnchorPoint: "A-6" 622 0 basechar 0
AnchorPoint: "A-5" 622 0 basechar 0
AnchorPoint: "A-4" 622 0 basechar 0
AnchorPoint: "A-3" 622 0 basechar 0
AnchorPoint: "A-2" 622 0 basechar 0
AnchorPoint: "A-1" 622 0 basechar 0
AnchorPoint: "A-0" 622 0 basechar 0
LayerCount: 2
Fore
SplineSet
83 527 m 0x3970
 83 575 107 599 154 599 c 0
 202 599 226 575 226 527 c 0
 226 480 202 456 154 456 c 0
 107 456 83 480 83 527 c 0x3970
1019 527 m 0x3874
 1019 575 1043 599 1090 599 c 0
 1138 599 1162 575 1162 527 c 0
 1162 480 1138 456 1090 456 c 0
 1043 456 1019 480 1019 527 c 0x3874
551 995 m 0
 551 1043 575 1067 622 1067 c 0
 670 1067 694 1043 694 995 c 0
 694 948 670 924 622 924 c 0x3a70
 575 924 551 948 551 995 c 0
551 59 m 0
 551 107 575 131 622 131 c 0
 670 131 694 107 694 59 c 0
 694 12 670 -12 622 -12 c 0xb870
 575 -12 551 12 551 59 c 0
959 761 m 0x3878
 959 809 983 833 1030 833 c 0
 1078 833 1102 809 1102 761 c 0
 1102 714 1078 690 1030 690 c 0
 983 690 959 714 959 761 c 0x3878
959 293 m 0
 959 341 983 365 1030 365 c 0
 1078 365 1102 341 1102 293 c 0
 1102 246 1078 222 1030 222 c 0
 983 222 959 246 959 293 c 0
143 761 m 0x38f0
 143 809 167 833 214 833 c 0
 262 833 286 809 286 761 c 0
 286 714 262 690 214 690 c 0
 167 690 143 714 143 761 c 0x38f0
143 293 m 0
 143 341 167 365 214 365 c 0
 262 365 286 341 286 293 c 0
 286 246 262 222 214 222 c 0
 167 222 143 246 143 293 c 0
317 935 m 0
 317 983 341 1007 388 1007 c 0
 436 1007 460 983 460 935 c 0
 460 888 436 864 388 864 c 0x3c70
 341 864 317 888 317 935 c 0
785 935 m 0
 785 983 809 1007 856 1007 c 0
 904 1007 928 983 928 935 c 0
 928 888 904 864 856 864 c 0
 809 864 785 888 785 935 c 0
317 119 m 0
 317 167 341 191 388 191 c 0
 436 191 460 167 460 119 c 0
 460 72 436 48 388 48 c 0x7870
 341 48 317 72 317 119 c 0
785 119 m 0
 785 167 809 191 856 191 c 0
 904 191 928 167 928 119 c 0
 928 72 904 48 856 48 c 0
 809 48 785 72 785 119 c 0
EndSplineSet
Validated: 1
LCarets2: 1 0 
MultipleSubs2: "Add hairspace before low marked Qof" dottedcircle hairspace
EndChar

StartChar: jsvarika
Encoding: 64286 64286 110
Width: 0
GlyphClass: 4
Flags: W
HStem: 1188 102<-113.131 106.5>
VStem: -198 396
AnchorPoint: "A-55" -229.5 0 mark 0
AnchorPoint: "A-57" -509.5 0 basemark 0
AnchorPoint: "A-56" -9.5 0 basemark 0
AnchorPoint: "A-57" -9.5 0 mark 0
AnchorPoint: "A-24" -9.5 0 mark 0
LayerCount: 2
Fore
SplineSet
184 1304 m 1
 146 1267 82 1188 -10 1188 c 0
 -94 1188 -144 1263 -180 1306 c 1
 -198 1380 l 1
 -140 1329 -60 1290 -6 1290 c 0
 64 1290 154 1338 198 1380 c 1
 184 1304 l 1
EndSplineSet
Validated: 1
LCarets2: 1 0 
EndChar

StartChar: yodyodpatah
Encoding: 64287 64287 111
Width: 1024
GlyphClass: 2
Flags: W
HStem: 158 97<117.994 903.598>
VStem: 331 172<617.526 773.139> 833 172<607.526 763.139>
AnchorPoint: "A-69" 520 0 basechar 0
AnchorPoint: "A-68" 520 0 basechar 0
AnchorPoint: "A-67" 520 0 basechar 0
AnchorPoint: "A-66" 520 0 basechar 0
AnchorPoint: "A-65" 520 0 basechar 0
AnchorPoint: "A-64" 520 0 basechar 0
AnchorPoint: "A-63" 520 0 basechar 0
AnchorPoint: "A-62" 520 0 basechar 0
AnchorPoint: "A-61" 520 0 basechar 0
AnchorPoint: "A-59" 0 0 basechar 0
AnchorPoint: "A-55" 900 0 basechar 0
AnchorPoint: "A-42" 520 0 basechar 0
AnchorPoint: "A-39" 510 0 basechar 0
AnchorPoint: "A-36" 510 0 basechar 0
AnchorPoint: "A-21" -430 0 basechar 0
AnchorPoint: "A-16" 510 0 basechar 0
AnchorPoint: "A-15" 510 0 basechar 0
AnchorPoint: "A-14" 510 0 basechar 0
AnchorPoint: "A-13" 510 0 basechar 0
AnchorPoint: "A-12" 510 0 basechar 0
AnchorPoint: "A-11" 510 0 basechar 0
AnchorPoint: "A-10" 510 0 basechar 0
AnchorPoint: "A-9" 510 0 basechar 0
AnchorPoint: "A-8" 510 0 basechar 0
AnchorPoint: "A-41" 440 0 basechar 0
AnchorPoint: "A-40" 520 0 basechar 0
AnchorPoint: "A-32" 510 0 basechar 0
AnchorPoint: "A-31" 510 0 basechar 0
AnchorPoint: "A-30" 510 0 basechar 0
AnchorPoint: "A-29" 510 0 basechar 0
AnchorPoint: "A-28" 485 0 basechar 0
AnchorPoint: "A-27" 510 0 basechar 0
AnchorPoint: "A-26" 900 0 basechar 0
AnchorPoint: "A-25" 0 0 basechar 0
AnchorPoint: "A-24" 510 0 basechar 0
AnchorPoint: "A-23" 510 0 basechar 0
AnchorPoint: "A-20" -70 0 basechar 0
AnchorPoint: "A-7" 510 0 basechar 0
AnchorPoint: "A-6" 510 0 basechar 0
AnchorPoint: "A-5" 510 0 basechar 0
AnchorPoint: "A-4" 510 0 basechar 0
AnchorPoint: "A-2" 510 0 basechar 0
AnchorPoint: "A-1" 510 0 basechar 0
AnchorPoint: "A-0" 510 0 basechar 0
LayerCount: 2
Fore
SplineSet
213 1096 m 1
 280 1044 353 981 440 904 c 16
 481 869 503 816 503 759 c 0
 503 732 498 705 488 679 c 0
 447 582 380 473 322 403 c 1
 271 369 220 346 155 329 c 1
 227 456 286 566 322 655 c 0
 327 667 331 681 331 691 c 0
 331 725 309 756 276 783 c 8
 205 843 138 889 78 923 c 1
 116 988 162 1044 213 1096 c 1
715 1086 m 1
 782 1034 855 971 942 894 c 16
 983 859 1005 806 1005 749 c 0
 1005 722 1000 695 990 669 c 0
 949 572 882 463 824 393 c 1
 773 359 722 336 657 319 c 1
 729 446 788 556 824 645 c 0
 829 657 833 671 833 681 c 0
 833 715 811 746 778 773 c 8
 707 833 640 879 580 913 c 1
 618 978 664 1034 715 1086 c 1
126 255 m 1
 927 255 l 1
 927 220 913 189 897 158 c 1
 93 158 l 17
 93 195 106 224 126 255 c 1
EndSplineSet
Validated: 1
LCarets2: 1 3 
MultipleSubs2: "Add hairspace before low marked Qof" yodyodpatah hairspace
EndChar

StartChar: ayin.alt
Encoding: 64288 64288 112
Width: 1051
GlyphClass: 2
Flags: W
HStem: -9 21G<51 428>
VStem: 792 142<420.079 786.726>
AnchorPoint: "A-69" 490 0 basechar 0
AnchorPoint: "A-68" 490 0 basechar 0
AnchorPoint: "A-67" 490 0 basechar 0
AnchorPoint: "A-66" 490 0 basechar 0
AnchorPoint: "A-65" 490 0 basechar 0
AnchorPoint: "A-64" 490 0 basechar 0
AnchorPoint: "A-63" 490 0 basechar 0
AnchorPoint: "A-62" 490 0 basechar 0
AnchorPoint: "A-61" 490 0 basechar 0
AnchorPoint: "A-59" 0 0 basechar 0
AnchorPoint: "A-55" 940 0 basechar 0
AnchorPoint: "A-42" 490 0 basechar 0
AnchorPoint: "A-39" 570 0 basechar 0
AnchorPoint: "A-36" 570 0 basechar 0
AnchorPoint: "A-21" -430 0 basechar 0
AnchorPoint: "A-16" 490 0 basechar 0
AnchorPoint: "A-15" 490 0 basechar 0
AnchorPoint: "A-14" 490 0 basechar 0
AnchorPoint: "A-13" 490 0 basechar 0
AnchorPoint: "A-12" 490 0 basechar 0
AnchorPoint: "A-11" 490 0 basechar 0
AnchorPoint: "A-10" 490 0 basechar 0
AnchorPoint: "A-9" 490 0 basechar 0
AnchorPoint: "A-8" 490 0 basechar 0
AnchorPoint: "A-41" 350 0 basechar 0
AnchorPoint: "A-40" 490 0 basechar 0
AnchorPoint: "A-32" 570 0 basechar 0
AnchorPoint: "A-31" 0 0 basechar 0
AnchorPoint: "A-30" 570 0 basechar 0
AnchorPoint: "A-29" 570 0 basechar 0
AnchorPoint: "A-28" 485 0 basechar 0
AnchorPoint: "A-27" 570 0 basechar 0
AnchorPoint: "A-26" 940 0 basechar 0
AnchorPoint: "A-25" 80 0 basechar 0
AnchorPoint: "A-24" 570 0 basechar 0
AnchorPoint: "A-23" 570 0 basechar 0
AnchorPoint: "A-20" 0 0 basechar 0
AnchorPoint: "A-7" 490 0 basechar 0
AnchorPoint: "A-6" 490 0 basechar 0
AnchorPoint: "A-5" 490 0 basechar 0
AnchorPoint: "A-4" 490 0 basechar 0
AnchorPoint: "A-3" 595 0 basechar 0
AnchorPoint: "A-2" 570 0 basechar 0
AnchorPoint: "A-1" 570 0 basechar 0
AnchorPoint: "A-0" 570 0 basechar 0
LayerCount: 2
Fore
SplineSet
411 184 m 1
 331 468 258 633 89 935 c 1
 138 1004 164 1033 229 1091 c 1
 309 939 364 817 413 655 c 0
 456 517 497 355 524 205 c 1
 625 237 792 319 792 466 c 0
 792 527 l 0
 792 684 732 836 703 918 c 1
 758 988 804 1039 872 1091 c 1
 916 969 934 848 934 732 c 0
 934 616 916 505 887 410 c 0
 843 259 655 -9 201 -9 c 2
 51 -9 l 1
 80 60 116 116 172 177 c 1
 307 177 l 2
 348 177 411 184 411 184 c 1
EndSplineSet
Validated: 1
LCarets2: 1 0 
MultipleSubs2: "Add hairspace before low marked Qof" ayin.alt hairspace
EndChar

StartChar: alef.wide
Encoding: 64289 64289 113
Width: 1821
GlyphClass: 2
Flags: W
HStem: 0 9G<136 505.5 1485.5 1677.5>
VStem: 204 131<200.75 491.22> 1463 164<735.704 940.5>
AnchorPoint: "A-69" 974 0 basechar 0
AnchorPoint: "A-68" 974 0 basechar 0
AnchorPoint: "A-67" 974 0 basechar 0
AnchorPoint: "A-66" 974 0 basechar 0
AnchorPoint: "A-65" 974 0 basechar 0
AnchorPoint: "A-64" 974 0 basechar 0
AnchorPoint: "A-63" 974 0 basechar 0
AnchorPoint: "A-62" 974 0 basechar 0
AnchorPoint: "A-61" 974 0 basechar 0
AnchorPoint: "A-59" 44 0 basechar 0
AnchorPoint: "A-55" 1594 0 basechar 0
AnchorPoint: "A-42" 974 0 basechar 0
AnchorPoint: "A-39" 954 0 basechar 0
AnchorPoint: "A-36" 954 0 basechar 0
AnchorPoint: "A-21" -386 0 basechar 0
AnchorPoint: "A-16" 974 0 basechar 0
AnchorPoint: "A-15" 974 0 basechar 0
AnchorPoint: "A-14" 974 0 basechar 0
AnchorPoint: "A-13" 974 0 basechar 0
AnchorPoint: "A-12" 974 0 basechar 0
AnchorPoint: "A-11" 974 0 basechar 0
AnchorPoint: "A-10" 974 0 basechar 0
AnchorPoint: "A-9" 974 0 basechar 0
AnchorPoint: "A-8" 974 0 basechar 0
AnchorPoint: "A-41" 1274 0 basechar 0
AnchorPoint: "A-40" 974 0 basechar 0
AnchorPoint: "A-32" 954 0 basechar 0
AnchorPoint: "A-31" 954 0 basechar 0
AnchorPoint: "A-30" 654 0 basechar 0
AnchorPoint: "A-29" 754 0 basechar 0
AnchorPoint: "A-28" 529 0 basechar 0
AnchorPoint: "A-27" 1154 0 basechar 0
AnchorPoint: "A-26" 1594 0 basechar 0
AnchorPoint: "A-25" 194 0 basechar 0
AnchorPoint: "A-24" 954 0 basechar 0
AnchorPoint: "A-23" 954 0 basechar 0
AnchorPoint: "A-20" 54 0 basechar 0
AnchorPoint: "A-7" 974 0 basechar 0
AnchorPoint: "A-6" 974 0 basechar 0
AnchorPoint: "A-5" 974 0 basechar 0
AnchorPoint: "A-4" 974 0 basechar 0
AnchorPoint: "A-3" 994 -450 basechar 0
AnchorPoint: "A-2" 954 0 basechar 0
AnchorPoint: "A-1" 954 0 basechar 0
AnchorPoint: "A-0" 954 0 basechar 0
LayerCount: 2
Fore
SplineSet
480 793 m 1
 368 857 257 916 108 983 c 1
 132 1027 193 1050 258 1091 c 1
 634 905 1040 676 1316 492 c 1
 1403 584 1463 725 1463 804 c 1
 1461 845 1414 917 1375 961 c 1
 1430 1025 1447 1051 1516 1091 c 1
 1596 1043 1627 976 1627 905 c 0
 1627 730 1450 522 1360 454 c 1
 1537 340 1648 229 1766 135 c 1
 1738 75 1703 46 1652 -12 c 1
 1319 251 912 549 569 747 c 1
 472 676 335 497 335 355 c 0
 335 321 340 283 350 247 c 8
 362 205 386 186 443 186 c 2
 605 186 l 1
 580 125 527 48 484 0 c 1
 136 0 l 1
 164 51 186 84 204 140 c 1
 204 290 206 408 254 505 c 8
 318 633 426 744 480 793 c 1
EndSplineSet
LCarets2: 1 0 
MultipleSubs2: "Add hairspace before low marked Qof" alef.wide hairspace
EndChar

StartChar: dalet.wide
Encoding: 64290 64290 114
Width: 1800
GlyphClass: 2
Flags: W
HStem: 838 186<308.785 1384 1535 1646.53>
VStem: 1384 151<83.4542 838>
AnchorPoint: "A-69" 1347 0 basechar 0
AnchorPoint: "A-68" 1247 0 basechar 0
AnchorPoint: "A-67" 1147 0 basechar 0
AnchorPoint: "A-66" 1347 0 basechar 0
AnchorPoint: "A-65" 1247 0 basechar 0
AnchorPoint: "A-64" 1147 0 basechar 0
AnchorPoint: "A-63" 1347 0 basechar 0
AnchorPoint: "A-62" 1247 0 basechar 0
AnchorPoint: "A-61" 1147 0 basechar 0
AnchorPoint: "A-59" 87 0 basechar 0
AnchorPoint: "A-55" 1467 0 basechar 0
AnchorPoint: "A-42" 1227 0 basechar 0
AnchorPoint: "A-39" 907 0 basechar 0
AnchorPoint: "A-36" 907 0 basechar 0
AnchorPoint: "A-21" -343 0 basechar 0
AnchorPoint: "A-19" 1137 0 basechar 0
AnchorPoint: "A-18" 1287 0 basechar 0
AnchorPoint: "A-17" 1277 0 basechar 0
AnchorPoint: "A-16" 1137 0 basechar 0
AnchorPoint: "A-15" 1287 0 basechar 0
AnchorPoint: "A-14" 1277 0 basechar 0
AnchorPoint: "A-13" 987 0 basechar 0
AnchorPoint: "A-12" 1137 0 basechar 0
AnchorPoint: "A-11" 1127 0 basechar 0
AnchorPoint: "A-10" 1137 0 basechar 0
AnchorPoint: "A-9" 1287 0 basechar 0
AnchorPoint: "A-8" 1277 0 basechar 0
AnchorPoint: "A-41" 1087 0 basechar 0
AnchorPoint: "A-40" 1447 0 basechar 0
AnchorPoint: "A-32" 907 0 basechar 0
AnchorPoint: "A-31" 907 0 basechar 0
AnchorPoint: "A-30" 607 0 basechar 0
AnchorPoint: "A-29" 707 0 basechar 0
AnchorPoint: "A-28" 572 0 basechar 0
AnchorPoint: "A-27" 1107 0 basechar 0
AnchorPoint: "A-26" 1467 0 basechar 0
AnchorPoint: "A-25" 67 0 basechar 0
AnchorPoint: "A-24" 907 0 basechar 0
AnchorPoint: "A-23" 907 0 basechar 0
AnchorPoint: "A-20" -13 0 basechar 0
AnchorPoint: "A-7" 1242 0 basechar 0
AnchorPoint: "A-6" 1307 0 basechar 0
AnchorPoint: "A-5" 1457 0 basechar 0
AnchorPoint: "A-4" 1457 0 basechar 0
AnchorPoint: "A-3" 837 0 basechar 0
AnchorPoint: "A-2" 907 0 basechar 0
AnchorPoint: "A-1" 907 0 basechar 0
AnchorPoint: "A-0" 907 0 basechar 0
LayerCount: 2
Fore
SplineSet
87 838 m 1
 145 934 212 1024 301 1116 c 1
 306 1080 309 1024 350 1024 c 2
 1436 1024 l 1
 1465 1058 1499 1092 1531 1116 c 1
 1535 1085 1535 1060 1535 1024 c 1
 1729 1024 l 1
 1707 952 1680 901 1639 838 c 1
 1535 838 l 1
 1535 102 l 17
 1495 44 1441 0 1384 -43 c 1
 1384 838 l 1
 87 838 l 1
EndSplineSet
LCarets2: 1 0 
MultipleSubs2: "Add hairspace before low marked Qof" dalet.wide hairspace
EndChar

StartChar: he.wide
Encoding: 64291 64291 115
Width: 1799
GlyphClass: 2
Flags: W
HStem: 838 186<320.328 1480.43>
VStem: 144 147<95.241 511.839> 1535 141<87.4809 783.752>
AnchorPoint: "A-69" 916 0 basechar 0
AnchorPoint: "A-68" 916 0 basechar 0
AnchorPoint: "A-67" 916 0 basechar 0
AnchorPoint: "A-66" 916 0 basechar 0
AnchorPoint: "A-65" 916 0 basechar 0
AnchorPoint: "A-64" 916 0 basechar 0
AnchorPoint: "A-63" 916 0 basechar 0
AnchorPoint: "A-62" 916 0 basechar 0
AnchorPoint: "A-61" 916 0 basechar 0
AnchorPoint: "A-59" -4 0 basechar 0
AnchorPoint: "A-55" 1576 0 basechar 0
AnchorPoint: "A-42" 916 0 basechar 0
AnchorPoint: "A-39" 916 0 basechar 0
AnchorPoint: "A-36" 916 0 basechar 0
AnchorPoint: "A-21" -434 0 basechar 0
AnchorPoint: "A-16" 896 0 basechar 0
AnchorPoint: "A-15" 896 0 basechar 0
AnchorPoint: "A-14" 896 0 basechar 0
AnchorPoint: "A-13" 896 0 basechar 0
AnchorPoint: "A-12" 896 0 basechar 0
AnchorPoint: "A-11" 896 0 basechar 0
AnchorPoint: "A-10" 896 0 basechar 0
AnchorPoint: "A-9" 896 0 basechar 0
AnchorPoint: "A-8" 896 0 basechar 0
AnchorPoint: "A-41" 1196 0 basechar 0
AnchorPoint: "A-40" 916 0 basechar 0
AnchorPoint: "A-32" 916 0 basechar 0
AnchorPoint: "A-31" 916 0 basechar 0
AnchorPoint: "A-30" 616 0 basechar 0
AnchorPoint: "A-29" 716 0 basechar 0
AnchorPoint: "A-28" 481 0 basechar 0
AnchorPoint: "A-27" 1116 0 basechar 0
AnchorPoint: "A-26" 1576 0 basechar 0
AnchorPoint: "A-25" 76 0 basechar 0
AnchorPoint: "A-24" 916 0 basechar 0
AnchorPoint: "A-23" 916 0 basechar 0
AnchorPoint: "A-20" -4 0 basechar 0
AnchorPoint: "A-7" 896 0 basechar 0
AnchorPoint: "A-6" 896 0 basechar 0
AnchorPoint: "A-5" 896 0 basechar 0
AnchorPoint: "A-4" 896 0 basechar 0
AnchorPoint: "A-3" 896 0 basechar 0
AnchorPoint: "A-2" 916 0 basechar 0
AnchorPoint: "A-1" 916 0 basechar 0
AnchorPoint: "A-0" 916 0 basechar 0
LayerCount: 2
Fore
SplineSet
296 681 m 1
 296 449 291 329 291 106 c 1
 244 48 204 0 144 -43 c 1
 144 51 144 360 144 490 c 1
 185 556 248 628 296 681 c 1
1676 106 m 1
 1634 48 1593 5 1535 -43 c 1
 1535 172 1521 686 1521 686 c 1
 1521 799 1437 838 1384 838 c 2
 113 838 l 1
 170 939 233 1024 313 1116 c 1
 318 1079 321 1024 362 1024 c 2
 1400 1024 l 2
 1548 1024 1676 911 1676 795 c 2
 1676 106 l 1
EndSplineSet
LCarets2: 1 0 
MultipleSubs2: "Add hairspace before low marked Qof" he.wide hairspace
EndChar

StartChar: kaf.wide
Encoding: 64292 64292 116
Width: 1630
GlyphClass: 2
Flags: W
HStem: 0 21G<92 1257.5> 166 20G<180 1254> 838 186<353.77 1308.84>
VStem: 1453 123<302.061 699.407>
AnchorPoint: "A-69" 790 0 basechar 0
AnchorPoint: "A-68" 790 0 basechar 0
AnchorPoint: "A-67" 790 0 basechar 0
AnchorPoint: "A-66" 790 0 basechar 0
AnchorPoint: "A-65" 790 0 basechar 0
AnchorPoint: "A-64" 790 0 basechar 0
AnchorPoint: "A-63" 790 0 basechar 0
AnchorPoint: "A-62" 790 0 basechar 0
AnchorPoint: "A-61" 790 0 basechar 0
AnchorPoint: "A-59" 30 0 basechar 0
AnchorPoint: "A-55" 1410 0 basechar 0
AnchorPoint: "A-42" 790 0 basechar 0
AnchorPoint: "A-39" 830 0 basechar 0
AnchorPoint: "A-36" 830 0 basechar 0
AnchorPoint: "A-21" -400 0 basechar 0
AnchorPoint: "A-16" 790 0 basechar 0
AnchorPoint: "A-15" 790 0 basechar 0
AnchorPoint: "A-14" 790 0 basechar 0
AnchorPoint: "A-13" 790 0 basechar 0
AnchorPoint: "A-12" 790 0 basechar 0
AnchorPoint: "A-11" 790 0 basechar 0
AnchorPoint: "A-10" 790 0 basechar 0
AnchorPoint: "A-9" 790 0 basechar 0
AnchorPoint: "A-8" 790 0 basechar 0
AnchorPoint: "A-41" 1040 0 basechar 0
AnchorPoint: "A-40" 790 0 basechar 0
AnchorPoint: "A-32" 830 0 basechar 0
AnchorPoint: "A-31" 830 0 basechar 0
AnchorPoint: "A-30" 630 0 basechar 0
AnchorPoint: "A-29" 630 0 basechar 0
AnchorPoint: "A-28" 515 0 basechar 0
AnchorPoint: "A-27" 1030 0 basechar 0
AnchorPoint: "A-26" 1410 0 basechar 0
AnchorPoint: "A-25" 90 0 basechar 0
AnchorPoint: "A-24" 830 0 basechar 0
AnchorPoint: "A-23" 830 0 basechar 0
AnchorPoint: "A-20" 10 0 basechar 0
AnchorPoint: "A-7" 790 0 basechar 0
AnchorPoint: "A-6" 790 0 basechar 0
AnchorPoint: "A-5" 790 0 basechar 0
AnchorPoint: "A-4" 790 0 basechar 0
AnchorPoint: "A-3" 810 0 basechar 0
AnchorPoint: "A-2" 830 0 basechar 0
AnchorPoint: "A-1" 830 0 basechar 0
AnchorPoint: "A-0" 830 0 basechar 0
LayerCount: 2
Fore
SplineSet
1179 0 m 2
 92 0 l 1
 118 65 159 131 201 186 c 1
 1254 185 l 2
 1327 185 1371 217 1406 277 c 0
 1436 332 1453 402 1453 480 c 0
 1453 501 1453 523 1453 545 c 0
 1453 671 1382 750 1318 791 c 0
 1269 823 1204 838 1107 838 c 2
 142 838 l 1
 200 939 261 1021 347 1116 c 1
 352 1077 353 1024 396 1024 c 2
 1165 1023 l 2
 1378 1023 1506 904 1551 757 c 0
 1568 697 1576 632 1576 566 c 0
 1576 441 1547 315 1496 221 c 0
 1426 95 1336 0 1179 0 c 2
EndSplineSet
LCarets2: 1 0 
MultipleSubs2: "Add hairspace before low marked Qof" kaf.wide hairspace
EndChar

StartChar: lamed.wide
Encoding: 64293 64293 117
Width: 1681
GlyphClass: 2
Flags: W
HStem: -12 21G<894 948.5> 838 186<204.253 1384.18>
VStem: 74 130<1024.14 1240.58> 1415 148<523.177 810.326>
AnchorPoint: "A-69" 936 0 basechar 0
AnchorPoint: "A-68" 936 0 basechar 0
AnchorPoint: "A-67" 936 0 basechar 0
AnchorPoint: "A-66" 936 0 basechar 0
AnchorPoint: "A-65" 936 0 basechar 0
AnchorPoint: "A-64" 936 0 basechar 0
AnchorPoint: "A-63" 936 0 basechar 0
AnchorPoint: "A-62" 936 0 basechar 0
AnchorPoint: "A-61" 936 0 basechar 0
AnchorPoint: "A-59" 6 0 basechar 0
AnchorPoint: "A-55" 1356 0 basechar 0
AnchorPoint: "A-42" 1036 0 basechar 0
AnchorPoint: "A-39" 786 0 basechar 0
AnchorPoint: "A-36" 786 0 basechar 0
AnchorPoint: "A-21" -424 0 basechar 0
AnchorPoint: "A-16" 1036 0 basechar 0
AnchorPoint: "A-15" 1036 0 basechar 0
AnchorPoint: "A-14" 1036 0 basechar 0
AnchorPoint: "A-13" 886 0 basechar 0
AnchorPoint: "A-12" 886 0 basechar 0
AnchorPoint: "A-11" 886 0 basechar 0
AnchorPoint: "A-10" 1036 0 basechar 0
AnchorPoint: "A-9" 1036 0 basechar 0
AnchorPoint: "A-8" 1036 0 basechar 0
AnchorPoint: "A-41" 876 0 basechar 0
AnchorPoint: "A-40" 1036 0 basechar 0
AnchorPoint: "A-32" 856 0 basechar 0
AnchorPoint: "A-31" 786 0 basechar 0
AnchorPoint: "A-30" 266 0 basechar 0
AnchorPoint: "A-29" 236 0 basechar 0
AnchorPoint: "A-28" 191 0 basechar 0
AnchorPoint: "A-27" 986 0 basechar 0
AnchorPoint: "A-26" 1356 0 basechar 0
AnchorPoint: "A-25" -214 0 basechar 0
AnchorPoint: "A-24" 786 0 basechar 0
AnchorPoint: "A-23" 786 0 basechar 0
AnchorPoint: "A-20" -333 0 basechar 0
AnchorPoint: "A-7" 1036 0 basechar 0
AnchorPoint: "A-6" 1036 0 basechar 0
AnchorPoint: "A-5" 1036 0 basechar 0
AnchorPoint: "A-4" 1036 0 basechar 0
AnchorPoint: "A-3" 726 0 basechar 0
AnchorPoint: "A-2" 786 0 basechar 0
AnchorPoint: "A-1" 786 0 basechar 0
AnchorPoint: "A-0" 786 0 basechar 0
LayerCount: 2
Fore
SplineSet
171 1425 m 1
 200 1403 200 1333 200 1285 c 0
 200 1200 204 1157 204 1075 c 16
 204 1039 226 1024 250 1024 c 2
 1380 1024 l 2
 1549 1024 1563 887 1563 761 c 8
 1563 511 1430 323 1283 184 c 0
 1157 67 1021 -12 876 -12 c 1
 912 68 946 135 992 202 c 1
 1094 231 1218 273 1304 364 c 0
 1397 463 1415 546 1415 672 c 0
 1415 765 1377 838 1310 838 c 2
 168 838 l 2
 129 838 96 853 96 905 c 8
 96 981 74 1010 74 1099 c 0
 74 1161 57 1212 33 1242 c 1
 76 1318 117 1372 171 1425 c 1
EndSplineSet
LCarets2: 1 0 
MultipleSubs2: "Add hairspace before low marked Qof" lamed.wide hairspace
MultipleSubs2: "Add thispace after Lamed subtable" lamed.wide thinspace
EndChar

StartChar: finalmem.wide
Encoding: 64294 64294 118
Width: 1845
GlyphClass: 2
Flags: W
HStem: -5 21G<327.5 1536> 838 188<336.689 1548.46>
VStem: 205 124<201.837 829.8> 1611 142<191.411 766.956>
AnchorPoint: "A-69" 945 0 basechar 0
AnchorPoint: "A-68" 945 0 basechar 0
AnchorPoint: "A-67" 945 0 basechar 0
AnchorPoint: "A-66" 945 0 basechar 0
AnchorPoint: "A-65" 945 0 basechar 0
AnchorPoint: "A-64" 945 0 basechar 0
AnchorPoint: "A-63" 945 0 basechar 0
AnchorPoint: "A-62" 945 0 basechar 0
AnchorPoint: "A-61" 945 0 basechar 0
AnchorPoint: "A-59" 65 0 basechar 0
AnchorPoint: "A-55" 1625 0 basechar 0
AnchorPoint: "A-42" 945 0 basechar 0
AnchorPoint: "A-39" 965 0 basechar 0
AnchorPoint: "A-36" 965 0 basechar 0
AnchorPoint: "A-21" -365 0 basechar 0
AnchorPoint: "A-16" 945 0 basechar 0
AnchorPoint: "A-15" 945 0 basechar 0
AnchorPoint: "A-14" 945 0 basechar 0
AnchorPoint: "A-13" 945 0 basechar 0
AnchorPoint: "A-12" 945 0 basechar 0
AnchorPoint: "A-11" 945 0 basechar 0
AnchorPoint: "A-10" 945 0 basechar 0
AnchorPoint: "A-9" 945 0 basechar 0
AnchorPoint: "A-8" 945 0 basechar 0
AnchorPoint: "A-41" 1205 0 basechar 0
AnchorPoint: "A-40" 945 0 basechar 0
AnchorPoint: "A-32" 965 0 basechar 0
AnchorPoint: "A-31" 965 0 basechar 0
AnchorPoint: "A-30" 665 0 basechar 0
AnchorPoint: "A-29" 665 0 basechar 0
AnchorPoint: "A-28" 550 0 basechar 0
AnchorPoint: "A-27" 1165 0 basechar 0
AnchorPoint: "A-26" 1625 0 basechar 0
AnchorPoint: "A-25" 105 0 basechar 0
AnchorPoint: "A-24" 965 0 basechar 0
AnchorPoint: "A-23" 965 0 basechar 0
AnchorPoint: "A-20" 25 0 basechar 0
AnchorPoint: "A-7" 945 0 basechar 0
AnchorPoint: "A-6" 945 0 basechar 0
AnchorPoint: "A-5" 945 0 basechar 0
AnchorPoint: "A-4" 945 0 basechar 0
AnchorPoint: "A-3" 965 0 basechar 0
AnchorPoint: "A-2" 965 0 basechar 0
AnchorPoint: "A-1" 965 0 basechar 0
AnchorPoint: "A-0" 965 0 basechar 0
LayerCount: 2
Fore
SplineSet
1453 838 m 2
 336 833 l 1
 336 681 329 521 329 321 c 16
 329 254 344 181 455 181 c 2
 1541 188 l 2
 1611 188 1611 241 1611 289 c 16
 1611 412 1598 500 1598 616 c 0
 1598 724 1560 838 1463 838 c 0
 1453 838 l 2
107 867 m 1
 174 959 242 1033 331 1111 c 1
 336 1072 339 1019 380 1019 c 2
 1476 1026 l 2
 1478 1026 l 0
 1641 1026 1722 912 1737 787 c 0
 1748 702 1753 610 1753 524 c 0
 1753 406 1744 301 1732 238 c 0
 1714 145 1627 1 1536 0 c 10
 391 -5 l 18
 264 -5 205 130 205 231 c 0
 205 365 205 522 205 708 c 16
 205 812 176 819 107 867 c 1
EndSplineSet
LCarets2: 1 0 
MultipleSubs2: "Add hairspace before low marked Qof" finalmem.wide hairspace
EndChar

StartChar: resh.wide
Encoding: 64295 64295 119
Width: 1716
GlyphClass: 2
Flags: W
HStem: 838 186<301.667 1405.54>
AnchorPoint: "A-69" 1411 0 basechar 0
AnchorPoint: "A-68" 1311 0 basechar 0
AnchorPoint: "A-67" 1211 0 basechar 0
AnchorPoint: "A-66" 1411 0 basechar 0
AnchorPoint: "A-65" 1311 0 basechar 0
AnchorPoint: "A-64" 1211 0 basechar 0
AnchorPoint: "A-63" 1411 0 basechar 0
AnchorPoint: "A-62" 1311 0 basechar 0
AnchorPoint: "A-61" 1211 0 basechar 0
AnchorPoint: "A-59" 91 0 basechar 0
AnchorPoint: "A-55" 1501 0 basechar 0
AnchorPoint: "A-42" 1321 0 basechar 0
AnchorPoint: "A-39" 861 0 basechar 0
AnchorPoint: "A-36" 861 0 basechar 0
AnchorPoint: "A-21" -339 0 basechar 0
AnchorPoint: "A-19" 1221 0 basechar 0
AnchorPoint: "A-18" 1311 0 basechar 0
AnchorPoint: "A-17" 1371 0 basechar 0
AnchorPoint: "A-16" 1221 0 basechar 0
AnchorPoint: "A-15" 1311 0 basechar 0
AnchorPoint: "A-14" 1371 0 basechar 0
AnchorPoint: "A-13" 1071 0 basechar 0
AnchorPoint: "A-12" 1161 0 basechar 0
AnchorPoint: "A-11" 1221 0 basechar 0
AnchorPoint: "A-10" 1221 0 basechar 0
AnchorPoint: "A-9" 1311 0 basechar 0
AnchorPoint: "A-8" 1371 0 basechar 0
AnchorPoint: "A-41" 1171 0 basechar 0
AnchorPoint: "A-40" 1421 0 basechar 0
AnchorPoint: "A-32" 861 0 basechar 0
AnchorPoint: "A-31" 861 0 basechar 0
AnchorPoint: "A-30" 561 0 basechar 0
AnchorPoint: "A-29" 661 0 basechar 0
AnchorPoint: "A-28" 576 0 basechar 0
AnchorPoint: "A-27" 1061 0 basechar 0
AnchorPoint: "A-26" 1501 0 basechar 0
AnchorPoint: "A-25" 91 0 basechar 0
AnchorPoint: "A-24" 861 0 basechar 0
AnchorPoint: "A-23" 861 0 basechar 0
AnchorPoint: "A-20" 1 0 basechar 0
AnchorPoint: "A-7" 1281 0 basechar 0
AnchorPoint: "A-6" 1341 0 basechar 0
AnchorPoint: "A-5" 1481 0 basechar 0
AnchorPoint: "A-4" 1521 0 basechar 0
AnchorPoint: "A-3" 841 0 basechar 0
AnchorPoint: "A-2" 861 0 basechar 0
AnchorPoint: "A-1" 861 0 basechar 0
AnchorPoint: "A-0" 861 0 basechar 0
LayerCount: 2
Fore
SplineSet
1460 682 m 0
 1453 745 1438 783 1407 807 c 0
 1376 832 1336 841 1284 841 c 2
 91 838 l 1
 149 942 200 1012 294 1116 c 1
 299 1077 303 1024 344 1024 c 2
 1267 1027 l 2
 1373 1027 1455 1001 1513 950 c 0
 1574 894 1605 819 1605 684 c 0
 1605 436 1626 107 1626 107 c 1
 1581 47 1539 5 1479 -40 c 1
 1479 204 1475 549 1460 682 c 0
EndSplineSet
LCarets2: 1 0 
MultipleSubs2: "Add hairspace before low marked Qof" resh.wide hairspace
EndChar

StartChar: tav.wide
Encoding: 64296 64296 120
Width: 1937
GlyphClass: 2
Flags: W
HStem: 0 21G<73 452> 838 186<456 1625.72>
VStem: 406 109<189.793 551.692> 1677 140<180.643 790.653> 1704 113<78.595 409.14>
AnchorPoint: "A-69" 1019 0 basechar 0
AnchorPoint: "A-68" 1019 0 basechar 0
AnchorPoint: "A-67" 1019 0 basechar 0
AnchorPoint: "A-66" 1019 0 basechar 0
AnchorPoint: "A-65" 1019 0 basechar 0
AnchorPoint: "A-64" 1019 0 basechar 0
AnchorPoint: "A-63" 1019 0 basechar 0
AnchorPoint: "A-62" 1019 0 basechar 0
AnchorPoint: "A-61" 1019 0 basechar 0
AnchorPoint: "A-59" 9 0 basechar 0
AnchorPoint: "A-55" 1719 0 basechar 0
AnchorPoint: "A-42" 1019 0 basechar 0
AnchorPoint: "A-39" 1009 0 basechar 0
AnchorPoint: "A-36" 1009 0 basechar 0
AnchorPoint: "A-21" -396 0 basechar 0
AnchorPoint: "A-16" 1019 0 basechar 0
AnchorPoint: "A-15" 1019 0 basechar 0
AnchorPoint: "A-14" 1019 0 basechar 0
AnchorPoint: "A-13" 1019 0 basechar 0
AnchorPoint: "A-12" 1019 0 basechar 0
AnchorPoint: "A-11" 1019 0 basechar 0
AnchorPoint: "A-10" 1019 0 basechar 0
AnchorPoint: "A-9" 1019 0 basechar 0
AnchorPoint: "A-8" 1019 0 basechar 0
AnchorPoint: "A-41" 1319 0 basechar 0
AnchorPoint: "A-40" 1019 0 basechar 0
AnchorPoint: "A-32" 1009 0 basechar 0
AnchorPoint: "A-31" 1009 0 basechar 0
AnchorPoint: "A-30" 709 0 basechar 0
AnchorPoint: "A-29" 809 0 basechar 0
AnchorPoint: "A-28" 494 0 basechar 0
AnchorPoint: "A-27" 1209 0 basechar 0
AnchorPoint: "A-26" 1719 0 basechar 0
AnchorPoint: "A-25" 129 0 basechar 0
AnchorPoint: "A-24" 1009 0 basechar 0
AnchorPoint: "A-23" 1009 0 basechar 0
AnchorPoint: "A-20" 49 0 basechar 0
AnchorPoint: "A-7" 1019 0 basechar 0
AnchorPoint: "A-6" 1019 0 basechar 0
AnchorPoint: "A-5" 1019 0 basechar 0
AnchorPoint: "A-4" 1019 0 basechar 0
AnchorPoint: "A-3" 1019 0 basechar 0
AnchorPoint: "A-2" 1009 0 basechar 0
AnchorPoint: "A-1" 1009 0 basechar 0
AnchorPoint: "A-0" 1009 0 basechar 0
LayerCount: 2
Fore
SplineSet
456 838 m 17xf0
 483 674 515 404 515 314 c 0
 515 227 481 137 423 0 c 1
 73 0 l 1
 104 68 136 125 177 186 c 1
 406 186 l 1
 406 428 300 838 300 838 c 25
 111 838 l 1
 176 937 258 1026 350 1116 c 1
 355 1077 357 1024 399 1024 c 2
 1533 1023 l 2
 1755 1023 1817 868 1817 733 c 2xf0
 1817 103 l 1
 1783 43 1755 -1 1704 -44 c 1xe8
 1704 195 1677 656 1677 656 c 1
 1677 796 1596 838 1496 838 c 2
 456 838 l 17xf0
EndSplineSet
LCarets2: 1 0 
MultipleSubs2: "Add hairspace before low marked Qof" tav.wide hairspace
EndChar

StartChar: hebrewplussign
Encoding: 64297 64297 121
Width: 1249
VWidth: 1822
GlyphClass: 2
Flags: W
HStem: 474 140<216.23 556 693 1032.21>
VStem: 556 137<614 945.245>
LayerCount: 2
Fore
SplineSet
171 474 m 1
 181 526 195 570 224 614 c 1
 556 614 l 1
 556 937 l 1
 597 963 638 981 693 992 c 1
 693 614 l 1
 1077 614 l 1
 1067 560 1050 515 1024 474 c 1
 171 474 l 1
EndSplineSet
Validated: 1
EndChar

StartChar: aleflamed
Encoding: 64335 64335 154
Width: 1073
GlyphClass: 3
Flags: HW
VStem: -48 135<888.662 1230.2> -27 114<888.662 1197.04> 742 166<688.156 978.907>
AnchorPoint: "A-63" 880 0 basechar 0
AnchorPoint: "A-62" 1040 0 basechar 0
AnchorPoint: "A-61" 1100 0 basechar 0
AnchorPoint: "A-20" 160 0 basechar 0
AnchorPoint: "A-7" 642 0 basechar 0
AnchorPoint: "A-6" 740 0 basechar 0
AnchorPoint: "A-5" 690 0 basechar 0
AnchorPoint: "A-4" 640 0 basechar 0
LayerCount: 2
Fore
SplineSet
927 -43 m 1xa0
 607 288 309 541 7 754 c 0
 -15 769 -27 795 -27 829 c 0x60
 -27 914 -48 989 -48 1059 c 0
 -48 1133 -65 1194 -89 1232 c 1
 -48 1307 -9 1360 49 1414 c 1
 78 1389 87 1303 87 1210 c 0
 87 1131 87 1053 87 954 c 16
 87 928 94 911 106 902 c 0
 312 759 459 640 630 489 c 1
 701 605 742 699 742 785 c 0
 742 832 730 878 703 925 c 1
 741 989 788 1042 834 1082 c 1
 887 1034 908 969 908 897 c 0
 908 725 790 517 710 421 c 1
 828 320 928 232 1007 138 c 1
 988 78 961 15 927 -43 c 1xa0
EndSplineSet
Ligature2: "'ccmp' Alef Lamed Ligature subtable" alef .null lamed
Ligature2: "'ccmp' Alef Lamed Ligature subtable" alef cgj lamed
LCarets2: 2 0 0 
MultipleSubs2: "Add thispace after Lamed subtable" aleflamed thinspace
Ligature2: "'ccmp' Alef Lamed Ligature subtable" alef zerojoin lamed
EndChar

StartChar: hatafsegol_meteg
Encoding: 65547 -1 164
Width: 0
GlyphClass: 4
Flags: W
HStem: -590 412
VStem: 94 95<-580.977 -184.023>
AnchorPoint: "A-48" 89 0 basemark 0
AnchorPoint: "A-47" 89 0 basemark 0
AnchorPoint: "A-46" 119 0 basemark 0
AnchorPoint: "A-45" -601 0 basemark 0
AnchorPoint: "A-44" -601 0 basemark 0
AnchorPoint: "A-43" -581 0 basemark 0
AnchorPoint: "A-7" -1 0 mark 0
LayerCount: 2
Fore
SplineSet
-294 -501 m 1
 -270 -463 -243 -436 -205 -412 c 1
 -168 -436 -140 -463 -116 -501 c 1
 -140 -540 -168 -567 -205 -590 c 1
 -243 -567 -270 -540 -294 -501 c 1
-155 -267 m 1
 -133 -228 -105 -200 -66 -178 c 1
 -28 -200 -1 -228 21 -267 c 1
 -1 -304 -28 -332 -66 -356 c 1
 -105 -332 -133 -304 -155 -267 c 1
-431 -267 m 1
 -409 -227 -382 -200 -344 -178 c 1
 -305 -200 -277 -227 -255 -267 c 1
 -277 -304 -305 -331 -344 -355 c 1
 -382 -331 -409 -304 -431 -267 c 1
189 -190 m 1
 189 -575 l 1
 173 -579 158 -581 141 -581 c 0
 125 -581 110 -579 94 -575 c 1
 94 -190 l 17
 110 -186 125 -184 141 -184 c 0
 158 -184 173 -186 189 -190 c 1
254 -488 m 1
 278 -450 305 -423 342 -399 c 1
 380 -423 407 -450 431 -488 c 1
 407 -527 380 -554 342 -577 c 1
 305 -554 278 -527 254 -488 c 1
254 -268 m 1
 278 -228 305 -201 342 -179 c 1
 380 -201 407 -228 431 -268 c 1
 407 -305 380 -332 342 -356 c 1
 305 -332 278 -305 254 -268 c 1
EndSplineSet
Validated: 1
Ligature2: "'ccmp' Hataf Meteg substitutions subtable" hatafsegol .null meteg
Ligature2: "'ccmp' Hataf Meteg substitutions subtable" hatafsegol cgj meteg
LCarets2: 1 0 
Ligature2: "'ccmp' Hataf Meteg substitutions subtable" hatafsegol zerojoin meteg
MultipleSubs2: "Add hairspace after last low mark subtable" hatafsegol_meteg hairspace
MultipleSubs2: "Add thinspace before narrow letter subtable" hatafsegol_meteg thinspace
MultipleSubs2: "Add hairspace before low marked Qof" hatafsegol_meteg hairspace
EndChar

StartChar: hatafpatah_meteg
Encoding: 65548 -1 165
Width: 0
GlyphClass: 4
Flags: W
HStem: -289 97<-355.675 -59.402>
VStem: 48 94<-578.977 -182.023>
AnchorPoint: "A-48" 44.5 0 basemark 0
AnchorPoint: "A-47" 44.5 0 basemark 0
AnchorPoint: "A-46" 74.5 0 basemark 0
AnchorPoint: "A-45" -585.5 0 basemark 0
AnchorPoint: "A-44" -585.5 0 basemark 0
AnchorPoint: "A-43" -585.5 0 basemark 0
AnchorPoint: "A-7" -5.5 0 mark 0
LayerCount: 2
Fore
SplineSet
-354 -192 m 1
 -36 -192 l 1
 -36 -227 -50 -258 -66 -289 c 1
 -386 -289 l 17
 -386 -252 -372 -223 -354 -192 c 1
142 -188 m 1
 142 -573 l 1
 126 -577 112 -579 94 -579 c 0
 78 -579 64 -577 48 -573 c 1
 48 -188 l 17
 64 -184 78 -182 94 -182 c 0
 112 -182 126 -184 142 -188 c 1
210 -485 m 1
 234 -447 260 -420 298 -396 c 1
 336 -420 362 -447 386 -485 c 1
 362 -524 336 -551 298 -574 c 1
 260 -551 234 -524 210 -485 c 1
210 -265 m 1
 234 -225 260 -198 298 -176 c 1
 336 -198 362 -225 386 -265 c 1
 362 -302 336 -329 298 -353 c 1
 260 -329 234 -302 210 -265 c 1
EndSplineSet
Validated: 1
Ligature2: "'ccmp' Hataf Meteg substitutions subtable" hatafpatah .null meteg
Ligature2: "'ccmp' Hataf Meteg substitutions subtable" hatafpatah cgj meteg
LCarets2: 2 0 0 
Ligature2: "'ccmp' Hataf Meteg substitutions subtable" hatafpatah zerojoin meteg
MultipleSubs2: "Add hairspace after last low mark subtable" hatafpatah_meteg hairspace
MultipleSubs2: "Add thinspace before narrow letter subtable" hatafpatah_meteg thinspace
MultipleSubs2: "Add hairspace before low marked Qof" hatafpatah_meteg hairspace
EndChar

StartChar: hatafqamats_meteg
Encoding: 65549 -1 166
Width: 0
GlyphClass: 4
Flags: W
HStem: -286 97<-361.755 -260 -163 -50.8753>
VStem: -260 97<-528.994 -286> 50 95<-575.977 -179.023>
AnchorPoint: "A-48" 49 0 basemark 0
AnchorPoint: "A-47" 49 0 basemark 0
AnchorPoint: "A-46" 79 0 basemark 0
AnchorPoint: "A-45" -581 0 basemark 0
AnchorPoint: "A-44" -581 0 basemark 0
AnchorPoint: "A-43" -581 0 basemark 0
AnchorPoint: "A-7" -1 0 mark 0
LayerCount: 2
Fore
SplineSet
-58 -286 m 1
 -163 -286 l 1
 -163 -526 l 1
 -180 -529 -197 -529 -214 -529 c 1
 -230 -529 -243 -529 -260 -526 c 1
 -260 -286 l 1
 -393 -286 l 17
 -389 -249 -379 -220 -360 -189 c 1
 -26 -189 l 1
 -30 -224 -40 -255 -58 -286 c 1
145 -185 m 1
 145 -570 l 1
 129 -574 114 -576 97 -576 c 0
 81 -576 66 -574 50 -570 c 1
 50 -185 l 17
 66 -181 81 -179 97 -179 c 0
 114 -179 129 -181 145 -185 c 1
216 -485 m 1
 240 -447 267 -420 304 -396 c 1
 342 -420 369 -447 393 -485 c 1
 369 -524 342 -551 304 -574 c 1
 267 -551 240 -524 216 -485 c 1
216 -265 m 1
 240 -225 267 -198 304 -176 c 1
 342 -198 369 -225 393 -265 c 1
 369 -302 342 -329 304 -353 c 1
 267 -329 240 -302 216 -265 c 1
EndSplineSet
Validated: 1
Ligature2: "'ccmp' Hataf Meteg substitutions subtable" hatafqamats .null meteg
Ligature2: "'ccmp' Hataf Meteg substitutions subtable" hatafqamats cgj meteg
LCarets2: 1 0 
MultipleSubs2: "Add hairspace after last low mark subtable" hatafqamats_meteg hairspace
MultipleSubs2: "Add thinspace before narrow letter subtable" hatafqamats_meteg thinspace
MultipleSubs2: "Add hairspace before low marked Qof" hatafqamats_meteg hairspace
Ligature2: "'ccmp' Hataf Meteg substitutions subtable" hatafqamats zerojoin meteg
EndChar

StartChar: exclam
Encoding: 33 33 167
Width: 605
VWidth: 1706
Flags: W
VStem: 259 154<487.342 871.969>
LayerCount: 2
Fore
SplineSet
305 249 m 1
 364 201 401 155 437 97 c 1
 403 43 360 -5 309 -43 c 1
 256 0 208 44 171 102 c 1
 210 162 254 208 305 249 c 1
374 1188 m 1
 396 1128 413 986 413 836 c 0
 413 708 401 575 370 483 c 1
 335 440 302 413 259 384 c 1
 259 602 222 862 195 990 c 1
 241 1068 295 1130 374 1188 c 1
EndSplineSet
Validated: 1
EndChar

StartChar: quotedbl
Encoding: 34 34 168
Width: 687
VWidth: 1706
Flags: W
HStem: 703 659
VStem: 150 185<1004.1 1256.09> 488 184<1004.1 1256.09>
LayerCount: 2
Fore
SplineSet
263 1362 m 1
 314 1312 335 1253 335 1188 c 0
 335 1026 203 833 102 703 c 1
 89 703 67 712 60 720 c 1
 106 852 150 973 150 1080 c 0
 150 1126 142 1171 121 1212 c 1
 157 1271 205 1316 263 1362 c 1
601 1362 m 1
 652 1312 672 1253 672 1188 c 0
 672 1026 541 833 440 703 c 1
 428 703 406 712 398 720 c 1
 444 852 488 973 488 1080 c 0
 488 1126 480 1171 459 1212 c 1
 498 1273 548 1321 601 1362 c 1
EndSplineSet
Validated: 1
EndChar

StartChar: numbersign
Encoding: 35 35 169
Width: 1163
VWidth: 1706
Flags: W
HStem: 317 127<122.273 268 444 649 824 963.718> 761 126<233.273 387 563 768 944 1074.72>
VStem: 268 145<253.416 317> 649 146<254.877 317> 797 147<887 951.421>
LayerCount: 2
Fore
SplineSet
495 1242 m 1
 522 1249 553 1256 585 1256 c 0
 616 1256 649 1249 679 1242 c 1
 633 1109 596 995 563 887 c 1
 797 887 l 1
 876 1242 l 1
 905 1249 935 1256 966 1256 c 0
 998 1256 1031 1249 1060 1242 c 1
 1014 1109 976 995 944 887 c 1
 1113 887 l 1
 1103 833 1092 802 1067 761 c 1
 908 761 l 1
 877 654 850 551 824 444 c 1
 1002 444 l 1
 992 389 981 358 956 317 c 1
 795 317 l 1
 708 -60 l 1
 676 -67 645 -70 613 -70 c 0
 585 -70 556 -67 526 -60 c 1
 573 75 613 198 649 317 c 1
 413 317 l 1
 328 -60 l 1
 295 -67 265 -70 232 -70 c 0
 205 -70 176 -67 145 -60 c 1
 191 75 232 198 268 317 c 1
 85 317 l 1
 96 369 102 399 131 444 c 1
 304 444 l 1
 335 550 362 654 387 761 c 1
 196 761 l 1
 207 812 213 843 242 887 c 1
 416 887 l 1
 495 1242 l 1
526 761 m 1
 497 654 469 551 444 444 c 1
 684 444 l 1
 715 550 742 654 768 761 c 1
 526 761 l 1
EndSplineSet
Validated: 1
EndChar

StartChar: dollar
Encoding: 36 36 170
Width: 1049
VWidth: 1706
Flags: W
HStem: -10 170<248.872 490> 1000 21G<796 835.5> 1029 167<587 818.65>
VStem: 157 101<821.799 953.665> 490 97<-129.322 0 172 495 729 1022 1196 1313.39> 811 112<258.06 409.205>
LayerCount: 2
Fore
SplineSet
587 172 m 1
 681 188 770 224 799 273 c 0
 807 287 811 302 811 317 c 0
 811 365 773 413 730 437 c 0
 695 459 643 476 587 495 c 1
 587 172 l 1
490 160 m 1
 490 527 l 1
 399 558 307 596 241 652 c 0
 177 708 157 773 157 828 c 0
 157 858 164 884 172 905 c 0
 224 1024 329 1113 456 1167 c 0
 466 1172 478 1176 490 1179 c 1
 490 1302 l 1
 519 1328 551 1343 587 1348 c 1
 587 1196 l 1
 679 1196 790 1193 879 1152 c 1
 865 1094 850 1050 821 1000 c 1
 771 1019 712 1029 645 1029 c 0
 626 1029 606 1029 587 1029 c 1
 587 695 l 1
 686 659 787 620 850 563 c 0
 906 515 923 454 923 401 c 0
 923 357 911 317 899 295 c 0
 831 162 732 72 596 20 c 0
 594 19 591 19 587 17 c 1
 587 -119 l 1
 556 -145 526 -160 490 -166 c 1
 490 0 l 1
 457 -5 422 -10 386 -10 c 0
 295 -10 183 22 137 44 c 1
 167 118 196 147 241 207 c 1
 285 189 370 160 466 160 c 0
 473 160 481 160 490 160 c 1
490 1022 m 1
 399 1022 324 986 268 920 c 0
 261 911 258 901 258 893 c 0
 258 857 299 817 345 792 c 0
 382 770 433 749 490 729 c 1
 490 1022 l 1
EndSplineSet
Validated: 1
EndChar

StartChar: percent
Encoding: 37 37 171
Width: 1298
VWidth: 1706
Flags: W
HStem: -24 135<911.707 1043.22> 468 134<305.707 437.249> 577 143<888.297 1008.26> 1068 144<282.298 402.759>
VStem: 123 114<687.346 1055.62> 463 119<641.786 1004.61> 724 119<195.409 557.52> 1068 120<149.786 513.742>
LayerCount: 2
Fore
SplineSet
869 567 m 1xbf
 847 515 843 476 843 427 c 0
 843 411 843 394 843 375 c 0
 843 280 882 184 923 142 c 0
 945 119 966 111 985 111 c 0
 1010 111 1031 128 1043 148 c 0
 1063 186 1068 230 1068 280 c 0
 1068 357 l 8
 1068 437 1036 514 992 551 c 0
 971 570 945 577 920 577 c 0
 903 577 886 573 869 567 c 1xbf
906 717 m 1
 923 720 940 720 957 720 c 0
 1068 720 1149 655 1174 522 c 0
 1181 483 1188 430 1188 372 c 0
 1188 307 1181 239 1155 171 c 0
 1120 68 1039 -24 947 -24 c 0
 898 -24 824 10 783 70 c 16
 746 126 724 220 724 323 c 0
 724 338 724 355 724 372 c 0
 724 381 722 389 724 398 c 0
 737 521 788 635 906 717 c 1
263 1058 m 1
 239 1007 237 968 237 918 c 0
 237 903 237 886 237 867 c 0
 237 771 276 676 317 633 c 0
 340 611 360 602 379 602 c 0xdf
 404 602 425 620 437 640 c 0
 457 678 463 722 463 771 c 0
 463 848 l 8
 463 928 430 1005 386 1043 c 0
 365 1062 340 1068 316 1068 c 0
 299 1068 280 1065 263 1058 c 1
300 1208 m 1
 317 1212 335 1212 352 1212 c 0
 463 1212 543 1147 568 1014 c 0
 575 975 582 922 582 864 c 0
 582 799 575 730 550 662 c 0
 514 560 433 468 341 468 c 0
 292 468 218 502 177 561 c 16
 131 631 123 761 123 889 c 0
 123 1012 183 1126 300 1208 c 1
939 1217 m 1
 954 1219 971 1220 988 1220 c 0
 1031 1220 1077 1213 1113 1200 c 1
 782 715 652 473 367 -34 c 1
 350 -34 331 -38 314 -38 c 0
 275 -38 234 -31 196 -17 c 1
 505 435 688 759 939 1217 c 1
EndSplineSet
Validated: 1
EndChar

StartChar: ampersand
Encoding: 38 38 172
Width: 1201
VWidth: 1706
Flags: W
HStem: -20 102<356.729 636.756> 0 70<1010 1166> 539 69<795 889 1038.27 1142> 1087 79<367.588 580.814>
VStem: 90 157<195.701 475.58> 176 136<790.641 1030.28> 638 142<759.707 1032.58>
LayerCount: 2
Fore
SplineSet
471 666 m 1x36
 585 719 638 790 638 901 c 0
 638 1014 573 1087 471 1087 c 0
 381 1087 312 1017 312 920 c 0
 312 831 367 758 471 666 c 1x36
531 609 m 1
 824 292 l 1
 876 365 908 430 920 493 c 1
 889 526 l 1
 795 539 l 1
 795 608 l 1
 1142 608 l 1
 1142 539 l 1
 1019 522 l 1
 988 416 942 319 877 232 c 1
 1010 70 l 1
 1166 70 l 1
 1166 0 l 1
 865 0 l 1x76
 865 41 l 1
 788 126 l 1
 676 29 567 -20 454 -20 c 0
 241 -20 90 126 90 316 c 0xba
 90 452 166 553 316 621 c 1
 224 712 176 790 176 882 c 0
 176 1039 307 1166 486 1166 c 0
 667 1166 780 1051 780 910 c 0
 780 773 703 689 531 609 c 1
381 572 m 1
 290 510 247 444 247 352 c 0
 247 196 352 82 498 82 c 0xba
 585 82 662 114 736 184 c 1
 381 572 l 1
EndSplineSet
Validated: 1
EndChar

StartChar: quotesingle
Encoding: 39 39 173
Width: 349
VWidth: 1706
Flags: W
HStem: 703 659
VStem: 150 185<1004.1 1257.41>
LayerCount: 2
Fore
SplineSet
263 1362 m 1
 314 1312 335 1253 335 1188 c 0
 335 1026 203 833 102 703 c 1
 89 703 67 712 60 720 c 1
 106 852 150 973 150 1080 c 0
 150 1126 142 1171 121 1212 c 1
 160 1278 208 1324 263 1362 c 1
EndSplineSet
Validated: 1
EndChar

StartChar: parenleft
Encoding: 40 40 174
Width: 624
VWidth: 1706
Flags: W
VStem: 172 132<338.674 792.257>
LayerCount: 2
Fore
SplineSet
352 1219 m 1
 423 1254 488 1271 556 1271 c 1
 413 980 304 864 304 589 c 8
 304 346 440 123 519 0 c 1
 490 -75 456 -126 399 -172 c 1
 246 22 172 171 172 416 c 16
 172 715 263 993 352 1219 c 1
EndSplineSet
Validated: 1
EndChar

StartChar: parenright
Encoding: 41 41 175
Width: 602
VWidth: 1706
Flags: W
VStem: 329 128<301.285 764.57>
LayerCount: 2
Fore
SplineSet
276 -125 m 1
 207 -160 145 -169 77 -169 c 1
 220 123 329 239 329 514 c 8
 329 756 193 978 114 1101 c 1
 143 1176 172 1220 230 1266 c 1
 384 1072 457 923 457 678 c 16
 457 379 365 101 276 -125 c 1
EndSplineSet
Validated: 1
EndChar

StartChar: asterisk
Encoding: 42 42 176
Width: 931
VWidth: 1672
Flags: W
HStem: 811 20G<131 190.622 740.621 797.5> 1001 20G<449 540.414>
LayerCount: 2
Fore
SplineSet
778 831 m 1
 817 794 847 744 847 667 c 0
 847 655 845 642 843 626 c 1
 527 601 l 1
 761 386 l 1
 722 324 664 282 587 258 c 1
 464 532 l 1
 341 256 l 1
 268 282 208 324 167 386 c 1
 404 601 l 1
 87 626 l 1
 87 724 108 787 154 831 c 1
 425 683 l 1
 358 992 l 1
 394 1010 430 1021 468 1021 c 0
 573 992 l 1
 507 686 l 1
 778 831 l 1
EndSplineSet
Validated: 1
EndChar

StartChar: plus
Encoding: 43 43 177
Width: 1249
VWidth: 1822
Flags: W
HStem: 474 144<217.205 556 693 1032.25>
VStem: 556 137<147.205 474 618 945.245>
LayerCount: 2
Fore
SplineSet
693 155 m 1
 649 126 608 111 556 101 c 1
 556 474 l 1
 171 474 l 1
 181 526 196 573 225 618 c 1
 556 618 l 1
 556 937 l 1
 597 963 638 981 693 992 c 1
 693 618 l 1
 1079 618 l 1
 1068 563 1050 515 1024 474 c 1
 693 474 l 1
 693 155 l 1
EndSplineSet
Validated: 1
EndChar

StartChar: comma
Encoding: 44 44 178
Width: 445
VWidth: 1706
Flags: W
HStem: -379 630
VStem: 164 181<-123.73 150.291>
LayerCount: 2
Fore
SplineSet
265 251 m 1
 321 196 345 130 345 61 c 0
 345 -87 239 -256 142 -379 c 1
 130 -377 108 -369 99 -362 c 1
 138 -251 164 -155 164 -68 c 0
 164 -10 152 46 123 101 c 1
 160 162 215 213 265 251 c 1
EndSplineSet
Validated: 1
EndChar

StartChar: hyphen
Encoding: 45 45 179
Width: 788
VWidth: 1706
Flags: W
HStem: 442 169<164.016 650.943>
VStem: 102 601
LayerCount: 2
Fore
SplineSet
102 442 m 1
 114 498 137 561 172 611 c 1
 703 611 l 1
 693 548 672 492 643 442 c 1
 102 442 l 1
EndSplineSet
Validated: 1
EndChar

StartChar: period
Encoding: 46 46 180
Width: 471
VWidth: 1706
Flags: W
HStem: -41 294
VStem: 102 267
LayerCount: 2
Fore
SplineSet
237 253 m 1
 295 203 333 157 369 99 c 1
 335 44 292 -3 241 -41 c 1
 188 2 140 46 102 104 c 1
 142 166 186 210 237 253 c 1
EndSplineSet
Validated: 1
EndChar

StartChar: slash
Encoding: 47 47 181
Width: 873
VWidth: 1706
Flags: W
LayerCount: 2
Fore
SplineSet
630 1242 m 1
 659 1249 693 1256 727 1256 c 0
 759 1256 794 1249 823 1242 c 1
 553 727 457 473 242 -60 c 1
 208 -67 176 -70 142 -70 c 0
 111 -70 82 -67 51 -60 c 1
 304 422 442 763 630 1242 c 1
EndSplineSet
Validated: 1
EndChar

StartChar: zero
Encoding: 48 48 182
Width: 993
VWidth: 1706
Flags: W
HStem: -29 150<429.21 630.967> 1043 170<395.95 585.882>
VStem: 126 144<364.171 900.341> 736 155<322.9 847.374>
LayerCount: 2
Fore
SplineSet
353 1027 m 1
 275 901 270 806 270 657 c 16
 270 471 323 278 403 189 c 0
 447 140 493 121 534 121 c 0
 585 121 628 150 655 188 c 0
 732 294 736 442 736 589 c 8
 736 749 693 901 608 981 c 0
 561 1024 507 1043 449 1043 c 0
 416 1043 384 1038 353 1027 c 1
420 1207 m 1
 449 1212 476 1213 503 1213 c 0
 689 1213 824 1104 867 882 c 0
 879 814 891 725 891 628 c 0
 891 524 877 408 838 297 c 0
 775 125 642 -29 490 -29 c 0
 406 -29 285 27 217 128 c 16
 140 244 126 461 126 674 c 0
 126 879 225 1068 420 1207 c 1
EndSplineSet
Validated: 1
EndChar

StartChar: one
Encoding: 49 49 183
Width: 827
VWidth: 1706
Flags: W
HStem: 0 21G<94 672.5>
VStem: 381 141<186 911.568>
LayerCount: 2
Fore
SplineSet
522 1227 m 1
 522 874 522 585 522 186 c 1
 751 186 l 1
 730 113 698 58 647 0 c 1
 94 0 l 1
 113 72 147 135 186 186 c 1
 381 186 l 1
 381 435 381 591 381 799 c 0
 381 862 365 896 307 935 c 8
 246 975 205 988 147 1029 c 1
 278 1120 381 1179 522 1227 c 1
EndSplineSet
Validated: 1
EndChar

StartChar: two
Encoding: 50 50 184
Width: 841
VWidth: 1706
Flags: W
HStem: 0 21G<104 697.5> 1046 164<222.665 479.383>
VStem: 555 187<739.366 972.701>
LayerCount: 2
Fore
SplineSet
230 1191 m 1
 290 1203 346 1210 399 1210 c 0
 503 1210 596 1181 674 1099 c 0
 720 1050 742 980 742 910 c 0
 742 843 722 773 684 717 c 0
 611 606 502 546 394 432 c 16
 336 369 266 273 266 186 c 1
 765 186 l 1
 748 109 719 58 676 0 c 1
 104 0 l 1
 104 104 108 179 150 282 c 16
 210 425 324 526 459 654 c 0
 524 717 555 788 555 853 c 0
 555 910 532 959 492 992 c 0
 439 1034 370 1046 304 1046 c 0
 246 1046 189 1036 150 1027 c 1
 167 1092 189 1137 230 1191 c 1
EndSplineSet
Validated: 1
EndChar

StartChar: three
Encoding: 51 51 185
Width: 882
VWidth: 1706
Flags: W
HStem: -19 176<235.178 541.307> 548 130<316.995 432.922> 1039 173<277.995 480.822>
VStem: 555 155<797.198 972.579> 662 135<246.784 464.848>
LayerCount: 2
Fore
SplineSet
280 1200 m 1xf0
 321 1207 364 1212 408 1212 c 0
 497 1212 585 1191 649 1123 c 0
 689 1079 710 1010 710 945 c 0xf0
 710 913 705 882 695 857 c 0
 667 787 628 739 568 691 c 1
 645 683 758 623 785 521 c 0
 794 493 797 463 797 430 c 0
 797 345 768 251 705 171 c 8
 611 51 507 -19 360 -19 c 0
 275 -19 166 9 94 48 c 1
 121 116 160 167 210 213 c 1
 244 196 338 157 425 157 c 16
 529 157 662 196 662 345 c 0xe8
 662 517 486 548 295 548 c 1
 295 594 300 633 323 678 c 1
 433 703 555 785 555 872 c 0
 555 877 555 881 555 886 c 0
 532 1038 345 1039 183 1039 c 1
 208 1108 237 1155 280 1200 c 1xf0
EndSplineSet
Validated: 1
EndChar

StartChar: four
Encoding: 52 52 186
Width: 931
VWidth: 1706
Flags: W
HStem: 335 186<212 565 708 828.352>
VStem: 565 143<69.7527 335 521 993>
LayerCount: 2
Fore
SplineSet
565 993 m 1
 375 898 253 713 212 521 c 1
 565 521 l 1
 565 993 l 1
742 1200 m 1
 729 1159 713 1099 713 1033 c 16
 713 956 708 521 708 521 c 1
 889 521 l 1
 877 451 853 391 821 335 c 1
 708 335 l 1
 708 79 l 1
 667 29 625 -10 565 -43 c 1
 565 335 l 1
 131 335 l 1
 116 399 111 456 111 522 c 1
 131 696 184 806 242 889 c 0
 372 1079 591 1200 742 1200 c 1
EndSplineSet
Validated: 1
EndChar

StartChar: five
Encoding: 53 53 187
Width: 884
VWidth: 1706
Flags: W
HStem: -17 184<164.004 538.573> 600 163<319 550.702> 998 186<321.545 727.23>
VStem: 191 128<764.933 997.233> 659 118<259.666 500.993>
LayerCount: 2
Fore
SplineSet
317 1256 m 1
 323 1222 324 1201 340 1184 c 1
 807 1184 l 1
 794 1126 753 1046 717 998 c 1
 312 998 l 1
 312 865 319 821 319 763 c 1
 336 763 l 0
 442 763 623 760 717 642 c 0
 759 589 777 525 777 457 c 0
 777 352 734 239 671 152 c 0
 589 41 503 -17 362 -17 c 0
 268 -17 143 15 94 39 c 1
 125 114 145 154 191 213 c 1
 239 195 335 167 415 167 c 0
 543 167 659 237 659 372 c 8
 659 476 587 551 493 582 c 0
 448 596 407 600 368 600 c 0
 313 600 263 592 213 592 c 1
 201 708 191 806 191 908 c 0
 191 960 194 1013 200 1070 c 1
 232 1147 265 1195 317 1256 c 1
EndSplineSet
Validated: 1
EndChar

StartChar: six
Encoding: 54 54 188
Width: 957
VWidth: 1706
Flags: W
HStem: -14 159<387.583 655.242> 611 142<418.336 623.191>
VStem: 111 171<248.12 547.894> 724 141<230.155 509.646>
LayerCount: 2
Fore
SplineSet
335 565 m 1
 304 510 282 449 282 387 c 0
 282 335 299 280 340 230 c 0
 391 169 473 145 546 145 c 0
 594 145 637 154 669 171 c 1
 705 215 724 280 724 346 c 0
 724 410 708 473 671 521 c 0
 625 582 555 611 483 611 c 0
 430 611 379 596 335 565 c 1
510 1161 m 1
 591 1195 650 1215 729 1215 c 1
 587 990 555 927 399 700 c 1
 488 741 546 753 604 753 c 0
 681 753 763 710 812 630 c 16
 843 579 865 507 865 428 c 0
 865 387 860 346 847 304 c 0
 804 160 753 109 654 29 c 0
 613 -3 570 -14 509 -14 c 0
 353 -14 210 68 148 200 c 0
 123 256 111 312 111 369 c 0
 111 461 142 551 186 635 c 0
 309 865 510 1161 510 1161 c 1
EndSplineSet
Validated: 1
EndChar

StartChar: seven
Encoding: 55 55 189
Width: 872
VWidth: 1706
Flags: W
HStem: 998 186<255.425 659>
VStem: 222 198<69.9418 317.084>
LayerCount: 2
Fore
SplineSet
829 1184 m 17
 829 1121 816 1067 794 998 c 1
 732 809 625 664 509 463 c 8
 440 346 420 265 420 128 c 1
 372 58 324 5 259 -39 c 1
 234 3 222 55 222 109 c 0
 222 203 254 309 307 404 c 0
 381 541 580 785 659 998 c 9
 77 998 l 1
 123 1101 171 1174 249 1271 c 1
 256 1229 254 1184 302 1184 c 2
 829 1184 l 17
EndSplineSet
Validated: 1
EndChar

StartChar: eight
Encoding: 56 56 190
Width: 930
VWidth: 1706
Flags: W
HStem: -22 160<352.049 628.094>
VStem: 111 148<222.073 444.954> 159 138<804.845 1017.81> 654 153<788.95 1001.2> 712 126<194.422 403.307>
LayerCount: 2
Fore
SplineSet
394 565 m 1xc8
 343 509 259 433 259 338 c 0
 259 329 259 321 261 312 c 8
 280 191 411 138 515 138 c 0
 626 138 701 201 712 278 c 0
 712 285 712 292 712 297 c 0
 712 433 524 509 394 565 c 1xc8
531 689 m 1
 608 761 654 800 654 886 c 16
 654 990 572 1073 428 1089 c 1
 365 1058 297 986 297 911 c 0xb0
 297 901 299 893 300 884 c 0
 323 775 433 739 531 689 c 1
451 1212 m 1
 674 1212 807 1118 807 935 c 0xb0
 807 799 701 707 626 645 c 1
 715 602 838 514 838 365 c 0
 838 355 838 346 836 336 c 8
 814 133 655 -22 449 -22 c 0
 273 -22 111 92 111 307 c 0xc8
 111 440 230 531 304 613 c 1
 196 684 159 770 159 860 c 0
 159 889 162 920 169 949 c 0
 201 1089 326 1172 451 1212 c 1
EndSplineSet
Validated: 1
EndChar

StartChar: nine
Encoding: 57 57 191
Width: 926
VWidth: 1706
Flags: W
HStem: 430 147<341.811 542.234> 1043 169<383.007 590.742>
VStem: 111 138<668.746 932.661> 700 150<633.096 932.54>
LayerCount: 2
Fore
SplineSet
316 1009 m 1
 271 949 249 877 249 812 c 0
 249 729 283 655 348 618 c 0
 396 591 444 577 493 577 c 0
 548 577 602 594 657 631 c 1
 686 679 700 730 700 780 c 0
 700 853 672 922 628 968 c 0
 577 1021 507 1043 442 1043 c 0
 396 1043 350 1031 316 1009 c 1
408 1201 m 1
 435 1208 461 1212 488 1212 c 0
 635 1212 777 1120 828 971 c 0
 843 927 850 879 850 829 c 0
 850 729 821 625 780 553 c 0
 703 420 596 234 457 22 c 1
 384 -12 348 -22 261 -32 c 1
 311 75 476 316 594 498 c 1
 551 476 509 461 445 442 c 0
 425 435 399 430 372 430 c 0
 348 430 324 433 300 444 c 0
 167 495 111 613 111 739 c 0
 111 787 119 836 135 884 c 0
 186 1033 288 1128 408 1201 c 1
EndSplineSet
Validated: 1
EndChar

StartChar: colon
Encoding: 58 58 192
Width: 471
VWidth: 1706
Flags: W
VStem: 102 267
LayerCount: 2
Fore
SplineSet
237 879 m 1
 295 831 333 785 369 727 c 1
 335 671 292 623 241 587 c 1
 188 628 140 674 102 730 c 1
 142 792 186 838 237 879 c 1
237 249 m 1
 295 201 333 155 369 97 c 1
 335 43 292 -5 241 -43 c 1
 188 0 140 44 102 102 c 1
 142 162 186 208 237 249 c 1
EndSplineSet
Validated: 1
EndChar

StartChar: semicolon
Encoding: 59 59 193
Width: 471
VWidth: 1706
Flags: W
VStem: 164 181<-123.73 150.291>
LayerCount: 2
Fore
SplineSet
265 251 m 1
 321 196 345 130 345 61 c 0
 345 -87 239 -256 142 -379 c 1
 130 -377 108 -369 99 -362 c 1
 138 -251 164 -155 164 -68 c 0
 164 -10 152 46 123 101 c 1
 160 162 215 213 265 251 c 1
237 879 m 1
 297 831 335 785 369 727 c 1
 336 672 292 625 241 587 c 1
 188 628 138 674 99 730 c 1
 138 792 188 838 237 879 c 1
EndSplineSet
Validated: 1
EndChar

StartChar: less
Encoding: 60 60 194
Width: 884
VWidth: 1706
Flags: W
LayerCount: 2
Fore
SplineSet
51 466 m 17
 58 524 73 580 102 637 c 9
 790 1082 l 17
 790 1014 766 951 739 896 c 9
 217 563 l 25
 799 222 l 17
 780 159 754 114 708 67 c 9
 51 466 l 17
EndSplineSet
Validated: 1
EndChar

StartChar: equal
Encoding: 61 61 195
Width: 1317
VWidth: 1706
Flags: W
HStem: 302 143<251.205 1066.28> 620 143<251.205 1066.28>
LayerCount: 2
Fore
SplineSet
259 445 m 1
 1113 445 l 1
 1103 391 1084 343 1058 302 c 1
 205 302 l 1
 215 353 230 401 259 445 c 1
259 763 m 1
 1113 763 l 1
 1103 708 1084 660 1058 620 c 1
 205 620 l 1
 215 671 230 719 259 763 c 1
EndSplineSet
Validated: 1
EndChar

StartChar: greater
Encoding: 62 62 196
Width: 884
VWidth: 1706
Flags: W
LayerCount: 2
Fore
SplineSet
833 654 m 17
 826 596 811 539 782 483 c 9
 94 32 l 17
 99 101 117 163 145 219 c 9
 667 556 l 25
 85 893 l 17
 104 955 131 999 176 1048 c 9
 833 654 l 17
EndSplineSet
Validated: 1
EndChar

StartChar: question
Encoding: 63 63 197
Width: 851
VWidth: 1706
Flags: W
HStem: 1000 150<233.983 471.777>
VStem: 335 179<461.541 640.459> 555 177<797.375 934.128>
LayerCount: 2
Fore
SplineSet
246 1150 m 1
 445 1150 710 1135 732 934 c 0
 732 928 732 925 732 920 c 0
 732 843 666 749 580 683 c 0
 534 647 514 620 514 592 c 0
 514 561 538 532 575 492 c 1
 527 445 471 408 410 381 c 1
 355 433 335 466 335 546 c 0
 335 671 555 734 555 855 c 0
 555 858 555 864 555 867 c 0
 541 985 319 1000 160 1000 c 1
 183 1060 208 1108 246 1150 c 1
437 249 m 1
 495 201 532 155 568 97 c 1
 534 43 492 -5 440 -43 c 1
 386 0 340 44 302 102 c 1
 340 162 386 208 437 249 c 1
EndSplineSet
Validated: 1
EndChar

StartChar: at
Encoding: 64 64 198
Width: 1607
VWidth: 1706
Flags: W
HStem: -261 84<620.819 1081.57> 97 104<665.611 822.384 1026 1226.78> 771 69<789.764 940> 1108 73<692.466 1119.91>
VStem: 130 121<185.43 685.328> 478 145<242.572 572.104> 940 127<194.393 241> 1408 79<419.271 836.512>
LayerCount: 2
Fore
SplineSet
1193 833 m 1
 1171 777 1161 715 1147 650 c 1
 1080 357 l 2
 1070 312 1067 282 1067 263 c 0
 1067 218 1096 189 1138 189 c 0
 1183 189 1239 218 1289 278 c 0
 1364 367 1408 500 1408 643 c 0
 1408 910 1213 1108 925 1108 c 0
 739 1108 584 1050 463 937 c 0
 321 806 251 642 251 440 c 0
 251 67 495 -177 860 -177 c 0
 1012 -177 1166 -137 1309 -53 c 1
 1333 -111 l 1
 1152 -212 975 -261 814 -261 c 0
 623 -261 452 -195 321 -68 c 0
 195 53 130 218 130 420 c 0
 130 647 213 836 377 986 c 0
 512 1109 705 1181 901 1181 c 0
 1263 1181 1487 963 1487 637 c 0
 1487 510 1454 398 1391 300 c 0
 1306 169 1176 94 1067 94 c 0
 985 94 940 138 940 225 c 0
 940 241 l 1
 848 145 768 97 689 97 c 0
 568 97 478 203 478 370 c 0
 478 478 512 579 573 662 c 0
 657 775 782 840 903 840 c 0
 957 840 1012 824 1070 794 c 1
 1101 833 l 1
 1193 833 l 1
940 771 m 1
 937 771 935 771 932 771 c 0
 906 771 l 0
 749 771 623 613 623 391 c 0
 623 266 674 201 765 201 c 0
 826 201 881 239 940 314 c 1
 1014 672 l 1
 940 771 l 1
EndSplineSet
Validated: 1
EndChar

StartChar: A
Encoding: 65 65 199
Width: 1090
VWidth: 1706
Flags: W
HStem: 0 70<-14 56.9632 210 321 722 828 1035.89 1109> 428 79<343 688> 1139 20G<477.516 604.671>
LayerCount: 2
Fore
SplineSet
485 1159 m 1
 597 1159 l 1
 1007 90 l 1
 1109 70 l 1
 1109 0 l 1
 722 0 l 1
 722 70 l 1
 828 79 l 1
 840 102 l 1
 717 428 l 1
 314 428 l 1
 193 102 l 1
 210 79 l 1
 321 70 l 1
 321 0 l 1
 -14 0 l 1
 -14 70 l 1
 85 90 l 1
 485 1159 l 1
512 980 m 1
 343 507 l 1
 688 507 l 1
 512 980 l 1
EndSplineSet
Validated: 1
EndChar

StartChar: B
Encoding: 66 66 200
Width: 1030
VWidth: 1706
Flags: W
HStem: 0 21G<56 652> 550 75<336 599.579> 1070 75<56 154 336 614.895>
VStem: 183 153<102 544.907 626 1043> 713 169<727.929 991.744> 785 167<175.559 466.865>
LayerCount: 2
Fore
SplineSet
56 1145 m 1xf4
 492 1145 l 2
 753 1145 882 1056 882 869 c 0xf8
 882 739 799 652 635 608 c 1
 838 608 952 502 952 335 c 0
 952 119 797 0 507 0 c 2
 56 0 l 1
 56 70 l 1
 154 79 l 1
 183 102 l 1
 183 1043 l 1
 154 1070 l 1
 56 1077 l 1
 56 1145 l 1xf4
336 626 m 1
 358 626 381 625 401 625 c 0
 614 625 713 696 713 862 c 0
 713 1000 621 1070 433 1070 c 0
 411 1070 379 1065 336 1065 c 1
 336 626 l 1
336 85 m 1
 377 85 415 80 451 80 c 0
 679 80 785 150 785 323 c 0xf4
 785 478 693 550 503 550 c 0
 459 550 403 548 336 541 c 1
 336 85 l 1
EndSplineSet
Validated: 1
EndChar

StartChar: C
Encoding: 67 67 201
Width: 1078
VWidth: 1706
Flags: W
HStem: -20 90<487.791 852.51> 1075 91<478.378 857.357>
VStem: 73 176<344.972 814.139> 908 96<237.32 309 845 930.465>
LayerCount: 2
Fore
SplineSet
1004 39 m 1
 891 0 773 -20 659 -20 c 0
 546 -20 447 3 369 48 c 0
 186 152 73 350 73 573 c 0
 73 928 311 1166 666 1166 c 0
 766 1166 879 1147 1004 1108 c 1
 1004 845 l 1
 908 845 l 1
 882 1000 l 1
 860 1031 l 1
 797 1060 736 1075 669 1075 c 0
 415 1075 249 891 249 585 c 0
 249 261 418 70 695 70 c 0
 742 70 792 77 843 92 c 1
 870 119 l 1
 908 309 l 1
 1004 309 l 1
 1004 39 l 1
EndSplineSet
Validated: 1
EndChar

StartChar: D
Encoding: 68 68 202
Width: 1182
VWidth: 1706
Flags: W
HStem: 0 79<56 154 336 693.77> 1067 78<56 154 336 686.16>
VStem: 183 153<102 1043> 935 173<329.446 813.613>
LayerCount: 2
Fore
SplineSet
478 1145 m 2
 882 1145 1108 932 1108 573 c 0
 1108 370 1034 212 894 106 c 0
 778 19 649 0 478 0 c 2
 56 0 l 1
 56 70 l 1
 154 79 l 1
 183 102 l 1
 183 1043 l 1
 154 1067 l 1
 56 1077 l 1
 56 1145 l 1
 478 1145 l 2
336 1067 m 1
 336 79 l 1
 471 79 l 2
 783 79 935 242 935 573 c 0
 935 906 783 1067 471 1067 c 2
 336 1067 l 1
EndSplineSet
Validated: 1
EndChar

StartChar: E
Encoding: 69 69 203
Width: 983
VWidth: 1706
Flags: W
HStem: 0 79<56 154 336 794> 556 79<336 616> 1067 78<56 154 336 730>
VStem: 183 153<102 556 635 1043> 657 80<408 511.725 678.432 783> 778 96<896 982.613> 847 88<195.807 278>
LayerCount: 2
Fore
SplineSet
56 0 m 1xfa
 56 70 l 1
 154 79 l 1
 183 102 l 1
 183 1043 l 1
 154 1067 l 1
 56 1077 l 1
 56 1145 l 1
 874 1145 l 1
 874 896 l 1
 778 896 l 1xfc
 754 1041 l 1
 730 1067 l 1
 336 1067 l 1
 336 635 l 1
 616 635 l 1
 640 659 l 1
 657 783 l 1
 737 783 l 1
 737 408 l 1
 657 408 l 1
 640 531 l 1
 616 556 l 1
 336 556 l 1
 336 79 l 1
 794 79 l 1
 817 106 l 1
 847 278 l 1
 935 278 l 1
 935 0 l 1
 56 0 l 1xfa
EndSplineSet
Validated: 1
EndChar

StartChar: F
Encoding: 70 70 204
Width: 916
VWidth: 1706
Flags: W
HStem: 0 70<56 154 365 486> 539 79<336 616> 1067 78<43 154 336 720>
VStem: 183 153<102 539 618 1043> 657 80<389 494.412 661.432 766> 768 94<879 968.324>
LayerCount: 2
Fore
SplineSet
56 0 m 1
 56 70 l 1
 154 79 l 1
 183 102 l 1
 183 1043 l 1
 154 1067 l 1
 43 1077 l 1
 43 1145 l 1
 862 1145 l 1
 862 879 l 1
 768 879 l 1
 742 1041 l 1
 720 1067 l 1
 336 1067 l 1
 336 618 l 1
 616 618 l 1
 640 642 l 1
 657 766 l 1
 737 766 l 1
 737 389 l 1
 657 389 l 1
 640 514 l 1
 616 539 l 1
 336 539 l 1
 336 102 l 1
 365 79 l 1
 486 70 l 1
 486 0 l 1
 56 0 l 1
EndSplineSet
Validated: 1
EndChar

StartChar: G
Encoding: 71 71 205
Width: 1184
VWidth: 1706
Flags: W
HStem: -20 90<487.404 859.271> 480 70<712 833 1044 1138> 1075 91<476.403 866.65>
VStem: 73 176<340.83 815.841> 862 153<83.2942 447> 918 96<845 933.883>
LayerCount: 2
Fore
SplineSet
712 550 m 1xf8
 1138 550 l 1
 1138 480 l 1
 1044 471 l 1
 1015 447 l 1
 1015 39 l 1xf8
 881 0 763 -20 662 -20 c 0
 548 -20 447 3 369 48 c 0
 184 152 73 350 73 573 c 0
 73 934 309 1166 686 1166 c 0
 790 1166 901 1149 1014 1116 c 1
 1014 845 l 1
 918 845 l 1xf4
 893 1000 l 1
 869 1031 l 1
 806 1060 742 1075 674 1075 c 0
 413 1075 249 893 249 585 c 0
 249 263 420 70 688 70 c 0
 737 70 795 77 862 92 c 1
 862 447 l 1
 833 471 l 1
 712 480 l 1
 712 550 l 1xf8
EndSplineSet
Validated: 1
EndChar

StartChar: H
Encoding: 72 72 206
Width: 1259
VWidth: 1706
Flags: W
HStem: 0 70<56 154 365 471 788 894 1106 1203> 561 79<336 923> 1077 68<56 154 365 471 788 894 1106 1203>
VStem: 183 153<102 561 640 1043> 923 154<102 561 640 1043>
LayerCount: 2
Fore
SplineSet
56 1145 m 1
 471 1145 l 1
 471 1077 l 1
 365 1067 l 1
 336 1043 l 1
 336 640 l 1
 923 640 l 1
 923 1043 l 1
 894 1067 l 1
 788 1077 l 1
 788 1145 l 1
 1203 1145 l 1
 1203 1077 l 1
 1106 1067 l 1
 1077 1043 l 1
 1077 102 l 1
 1106 79 l 1
 1203 70 l 1
 1203 0 l 1
 788 0 l 1
 788 70 l 1
 894 79 l 1
 923 102 l 1
 923 561 l 1
 336 561 l 1
 336 102 l 1
 365 79 l 1
 471 70 l 1
 471 0 l 1
 56 0 l 1
 56 70 l 1
 154 79 l 1
 183 102 l 1
 183 1043 l 1
 154 1067 l 1
 56 1077 l 1
 56 1145 l 1
EndSplineSet
Validated: 1
EndChar

StartChar: I
Encoding: 73 73 207
Width: 552
VWidth: 1706
Flags: W
HStem: 0 70<60 169 382 492> 1077 68<60 169 382 492>
VStem: 198 155<102 1043>
LayerCount: 2
Fore
SplineSet
60 0 m 1
 60 70 l 1
 169 79 l 1
 198 102 l 1
 198 1043 l 1
 169 1067 l 1
 60 1077 l 1
 60 1145 l 1
 492 1145 l 1
 492 1077 l 1
 382 1067 l 1
 353 1043 l 1
 353 102 l 1
 382 79 l 1
 492 70 l 1
 492 0 l 1
 60 0 l 1
EndSplineSet
Validated: 1
EndChar

StartChar: J
Encoding: 74 74 208
Width: 757
VWidth: 1706
Flags: W
HStem: -20 81<168.725 367.245> 1077 68<319 433 645 751>
VStem: 20 96<229.823 305> 463 153<170.951 1043>
LayerCount: 2
Fore
SplineSet
463 1043 m 1
 433 1067 l 1
 319 1077 l 1
 319 1145 l 1
 751 1145 l 1
 751 1077 l 1
 645 1067 l 1
 616 1043 l 1
 616 437 l 2
 616 128 505 -20 244 -20 c 0
 172 -20 99 -7 20 20 c 1
 20 305 l 1
 116 305 l 1
 157 90 l 1
 181 68 l 1
 203 63 224 61 241 61 c 0
 403 61 463 183 463 430 c 2
 463 1043 l 1
EndSplineSet
Validated: 1
EndChar

StartChar: K
Encoding: 75 75 209
Width: 1042
VWidth: 1706
Flags: W
HStem: 0 70<56 154 365 471 945 1070> 510 70<336 401> 1077 68<56 154 365 471 674 770 921.002 1029>
VStem: 183 153<102 510 580 1043>
LayerCount: 2
Fore
SplineSet
56 0 m 1
 56 70 l 1
 154 79 l 1
 183 102 l 1
 183 1043 l 1
 154 1067 l 1
 56 1077 l 1
 56 1145 l 1
 471 1145 l 1
 471 1077 l 1
 365 1067 l 1
 336 1043 l 1
 336 580 l 1
 401 580 l 1
 780 1043 l 1
 770 1067 l 1
 674 1077 l 1
 674 1145 l 1
 1029 1145 l 1
 1029 1077 l 1
 916 1062 l 1
 558 635 l 1
 945 79 l 1
 1070 70 l 1
 1070 0 l 1
 788 0 l 1
 788 51 l 1
 463 510 l 1
 336 510 l 1
 336 102 l 1
 365 79 l 1
 471 70 l 1
 471 0 l 1
 56 0 l 1
EndSplineSet
Validated: 1
EndChar

StartChar: L
Encoding: 76 76 210
Width: 887
VWidth: 1706
Flags: W
HStem: 0 79<46 154 336 722> 1077 68<46 154 365 463>
VStem: 183 153<102 1043> 775 89<209.659 311>
LayerCount: 2
Fore
SplineSet
46 0 m 1
 46 70 l 1
 154 79 l 1
 183 102 l 1
 183 1043 l 1
 154 1067 l 1
 46 1077 l 1
 46 1145 l 1
 463 1145 l 1
 463 1077 l 1
 365 1067 l 1
 336 1043 l 1
 336 79 l 1
 722 79 l 1
 746 106 l 1
 775 311 l 1
 864 311 l 1
 864 0 l 1
 46 0 l 1
EndSplineSet
Validated: 1
EndChar

StartChar: M
Encoding: 77 77 211
Width: 1477
VWidth: 1706
Flags: W
HStem: 0 70<53 155 309 413 1015 1128 1316 1423> 1077 68<51 164 1316 1423>
VStem: 186 92<116 1043> 1145 150<102 1043>
LayerCount: 2
Fore
SplineSet
53 0 m 1
 53 70 l 1
 155 84 l 1
 186 116 l 1
 186 1043 l 1
 164 1067 l 1
 51 1077 l 1
 51 1145 l 1
 413 1145 l 1
 413 1099 l 1
 734 242 l 1
 1058 1092 l 1
 1058 1145 l 1
 1423 1145 l 1
 1423 1077 l 1
 1316 1067 l 1
 1295 1043 l 1
 1295 102 l 1
 1316 79 l 1
 1423 70 l 1
 1423 0 l 1
 1015 0 l 1
 1015 70 l 1
 1128 79 l 1
 1145 102 l 1
 1145 1065 l 1
 741 0 l 1
 667 0 l 1
 278 1048 l 1
 278 116 l 1
 309 84 l 1
 413 70 l 1
 413 0 l 1
 53 0 l 1
EndSplineSet
Validated: 1
EndChar

StartChar: N
Encoding: 78 78 212
Width: 1216
VWidth: 1706
Flags: W
HStem: 0 70<49 154 307 410> 1077 68<44 154 814 911.485 1074.52 1172>
VStem: 184 92<116 969> 947 92<229 1031>
LayerCount: 2
Fore
SplineSet
49 0 m 1
 49 70 l 1
 154 84 l 1
 184 116 l 1
 184 1043 l 1
 154 1067 l 1
 44 1077 l 1
 44 1145 l 1
 365 1145 l 1
 365 1103 l 1
 947 229 l 1
 947 1031 l 1
 916 1062 l 1
 814 1077 l 1
 814 1145 l 1
 1172 1145 l 1
 1172 1077 l 1
 1070 1062 l 1
 1039 1031 l 1
 1039 0 l 1
 927 0 l 1
 276 969 l 1
 276 116 l 1
 307 84 l 1
 410 70 l 1
 410 0 l 1
 49 0 l 1
EndSplineSet
Validated: 1
EndChar

StartChar: O
Encoding: 79 79 213
Width: 1247
VWidth: 1706
Flags: W
HStem: -27 90<456.091 792.678> 1082 92<455.888 792.874>
VStem: 73 178<321.944 824.455> 997 179<323.951 820.236>
LayerCount: 2
Fore
SplineSet
625 1174 m 0
 771 1174 898 1123 1000 1024 c 0
 1114 913 1176 759 1176 573 c 0
 1176 447 1147 335 1089 236 c 0
 993 72 823 -27 625 -27 c 0
 480 -27 348 24 249 119 c 0
 133 232 73 387 73 573 c 0
 73 759 133 913 247 1024 c 0
 350 1123 478 1174 625 1174 c 0
625 1082 m 0
 403 1082 251 894 251 573 c 0
 251 256 403 63 625 63 c 0
 845 63 997 256 997 573 c 0
 997 891 845 1082 625 1082 c 0
EndSplineSet
Validated: 1
EndChar

StartChar: P
Encoding: 80 80 214
Width: 952
VWidth: 1706
Flags: W
HStem: 0 70<56 154 365 486> 430 82<336 620.323> 1067 78<43 154 337.453 621.099>
VStem: 183 153<102 439 516.254 1043> 748 158<628.957 962.771>
LayerCount: 2
Fore
SplineSet
56 0 m 1
 56 70 l 1
 154 79 l 1
 183 102 l 1
 183 1043 l 1
 154 1067 l 1
 43 1077 l 1
 43 1145 l 1
 432 1145 l 2
 759 1145 906 1056 906 797 c 0
 906 579 739 430 464 430 c 0
 432 430 389 433 336 439 c 1
 336 102 l 1
 365 79 l 1
 486 70 l 1
 486 0 l 1
 56 0 l 1
336 521 m 1
 386 515 423 512 449 512 c 0
 643 512 748 613 748 800 c 0
 748 983 643 1067 425 1067 c 0
 398 1067 367 1067 336 1063 c 1
 336 521 l 1
EndSplineSet
Validated: 1
EndChar

StartChar: Q
Encoding: 81 81 215
Width: 1247
VWidth: 1706
Flags: W
HStem: -300 78<789.859 1105.47> -19 86<464.53 544 707 786.446> 1084 92<454.303 795.348>
VStem: 67 180<328.178 823.135> 544 163<-150.031 -11.4748> 1002 181<328.87 822.475>
LayerCount: 2
Fore
SplineSet
707 -19 m 1
 712 -154 792 -222 949 -222 c 0
 995 -222 1048 -217 1109 -203 c 1
 1109 -273 l 1
 1019 -292 939 -300 869 -300 c 0
 652 -300 544 -210 544 -19 c 1
 251 26 67 254 67 575 c 0
 67 761 128 916 246 1027 c 0
 348 1125 478 1176 625 1176 c 0
 771 1176 903 1125 1005 1027 c 0
 1121 916 1183 761 1183 575 c 0
 1183 256 1000 29 707 -19 c 1
625 67 m 0
 850 67 1002 259 1002 575 c 0
 1002 893 850 1084 625 1084 c 0
 399 1084 247 896 247 575 c 0
 247 259 401 67 625 67 c 0
EndSplineSet
Validated: 1
EndChar

StartChar: R
Encoding: 82 82 216
Width: 1102
VWidth: 1706
Flags: W
HStem: 0 70<56 154 365 463 937.711 1120> 512 77<336 590.883> 1067 78<56 154 336 621.847>
VStem: 183 153<102 509 591 1043> 732 171<689.63 976.836>
LayerCount: 2
Fore
SplineSet
56 1145 m 1
 492 1145 l 2
 768 1145 903 1048 903 838 c 0
 903 691 811 596 626 555 c 1
 710 532 768 497 802 440 c 0
 850 362 852 268 882 188 c 0
 920 87 975 67 1104 67 c 0
 1120 67 l 1
 1120 0 l 1
 1068 -11 1026 -14 986 -14 c 0
 910 -14 853 2 814 36 c 0
 732 108 725 218 689 328 c 0
 643 468 577 512 422 512 c 0
 396 512 367 510 336 509 c 1
 336 102 l 1
 365 79 l 1
 463 70 l 1
 463 0 l 1
 56 0 l 1
 56 70 l 1
 154 79 l 1
 183 102 l 1
 183 1043 l 1
 154 1067 l 1
 56 1077 l 1
 56 1145 l 1
336 1067 m 1
 336 591 l 1
 389 589 420 589 430 589 c 0
 635 589 732 655 732 824 c 0
 732 1002 630 1067 418 1067 c 2
 336 1067 l 1
EndSplineSet
Validated: 1
EndChar

StartChar: S
Encoding: 83 83 217
Width: 948
VWidth: 1706
Flags: W
HStem: -20 90<246.338 607.388> 1080 86<361.052 667.741>
VStem: 102 101<200.515 335> 121 159<760.494 1000.62> 695 157<161.411 399.237> 717 89<853 942.324>
LayerCount: 2
Fore
SplineSet
102 34 m 1xe8
 102 335 l 1
 203 335 l 1
 224 138 l 1
 246 109 l 1
 295 84 360 70 437 70 c 0
 602 70 695 155 695 275 c 0xe8
 695 416 596 447 410 527 c 0
 220 609 121 672 121 838 c 0
 121 1031 273 1166 515 1166 c 0
 609 1166 705 1150 806 1118 c 1
 806 853 l 1
 717 853 l 1
 691 1015 l 1
 666 1044 l 1
 623 1068 572 1080 512 1080 c 0
 367 1080 280 998 280 874 c 0xd4
 280 759 362 717 519 650 c 0
 606 614 698 587 777 510 c 0
 826 461 852 398 852 323 c 0
 852 121 683 -20 410 -20 c 0
 287 -20 181 0 102 34 c 1xe8
EndSplineSet
Validated: 1
EndChar

StartChar: T
Encoding: 84 84 218
Width: 1018
VWidth: 1706
Flags: W
HStem: 0 70<287 401 618 732> 882 263<27 121 898 992> 1067 78<169 432 587 850>
VStem: 27 94<882 976.976> 432 155<102 1067> 898 94<882 976.976>
CounterMasks: 1 1c
LayerCount: 2
Fore
SplineSet
27 1145 m 1xdc
 992 1145 l 1
 992 882 l 1
 898 882 l 1xdc
 874 1041 l 1
 850 1067 l 1
 587 1067 l 1
 587 102 l 1
 618 79 l 1
 732 70 l 1
 732 0 l 1
 287 0 l 1
 287 70 l 1
 401 79 l 1
 432 102 l 1
 432 1067 l 1
 169 1067 l 1xbc
 145 1041 l 1
 121 882 l 1
 27 882 l 1
 27 1145 l 1xdc
EndSplineSet
Validated: 1
EndChar

StartChar: U
Encoding: 85 85 219
Width: 1184
VWidth: 1706
Flags: W
HStem: -20 105<443.33 815.336> 1077 68<43 140 355 461 799 896.485 1060.56 1159>
VStem: 169 155<208.934 1043> 934 92<208.934 1031>
LayerCount: 2
Fore
SplineSet
43 1145 m 1
 461 1145 l 1
 461 1077 l 1
 355 1067 l 1
 324 1043 l 1
 324 425 l 2
 324 193 411 85 630 85 c 0
 845 85 934 193 934 425 c 2
 934 1031 l 1
 901 1062 l 1
 799 1077 l 1
 799 1145 l 1
 1159 1145 l 1
 1159 1077 l 1
 1056 1062 l 1
 1026 1031 l 1
 1026 410 l 2
 1026 285 1017 189 951 109 c 0
 886 31 759 -20 597 -20 c 0
 435 -20 309 31 244 109 c 0
 177 189 169 283 169 410 c 2
 169 1043 l 1
 140 1067 l 1
 43 1077 l 1
 43 1145 l 1
EndSplineSet
Validated: 1
EndChar

StartChar: V
Encoding: 86 86 220
Width: 1054
VWidth: 1706
Flags: W
HStem: -9 21G<463.469 596.362> 1077 68<-39 35.4107 259 358 748 853 1014.64 1087>
LayerCount: 2
Fore
SplineSet
-39 1145 m 1
 358 1145 l 1
 358 1077 l 1
 259 1067 l 1
 241 1043 l 1
 561 183 l 1
 870 1043 l 1
 853 1067 l 1
 748 1077 l 1
 748 1145 l 1
 1087 1145 l 1
 1087 1077 l 1
 981 1056 l 1
 589 -9 l 1
 471 -9 l 1
 70 1056 l 1
 -39 1077 l 1
 -39 1145 l 1
EndSplineSet
Validated: 1
EndChar

StartChar: W
Encoding: 87 87 221
Width: 1583
VWidth: 1706
Flags: W
HStem: 0 21G<388.568 515.06 1073.83 1201.17> 1077 68<0 64.512 275 382 1229 1306.82 1513.9 1582>
LayerCount: 2
Fore
SplineSet
394 0 m 1
 108 1053 l 1
 0 1077 l 1
 0 1145 l 1
 382 1145 l 1
 382 1077 l 1
 275 1063 l 1
 261 1039 l 1
 481 251 l 1
 756 1145 l 1
 876 1145 l 1
 1155 232 l 1
 1362 1033 l 1
 1343 1056 l 1
 1229 1077 l 1
 1229 1145 l 1
 1582 1145 l 1
 1582 1077 l 1
 1468 1053 l 1
 1196 0 l 1
 1080 0 l 1
 792 934 l 1
 509 0 l 1
 394 0 l 1
EndSplineSet
Validated: 1
EndChar

StartChar: X
Encoding: 88 88 222
Width: 1024
VWidth: 1706
Flags: W
HStem: 0 70<-15 57.9833 234 348 608 722 955.851 1039> 1077 68<19 91.9833 328 430 666 760.618 922.081 1014>
LayerCount: 2
Fore
SplineSet
19 1145 m 1
 430 1145 l 1
 430 1077 l 1
 328 1067 l 1
 314 1046 l 1
 538 695 l 1
 780 1039 l 1
 765 1062 l 1
 666 1077 l 1
 666 1145 l 1
 1014 1145 l 1
 1014 1077 l 1
 905 1060 l 1
 592 614 l 1
 923 90 l 1
 1039 70 l 1
 1039 0 l 1
 608 0 l 1
 608 70 l 1
 722 82 l 1
 734 106 l 1
 493 493 l 1
 224 111 l 1
 234 80 l 1
 348 70 l 1
 348 0 l 1
 -15 0 l 1
 -15 70 l 1
 97 92 l 1
 440 572 l 1
 131 1055 l 1
 19 1077 l 1
 19 1145 l 1
EndSplineSet
Validated: 1
EndChar

StartChar: Y
Encoding: 89 89 223
Width: 1000
VWidth: 1706
Flags: W
HStem: 0 70<278 394 604 720> 1077 68<-22 65.7026 276 374 688 766.471 968.23 1036>
VStem: 422 155<102 464>
LayerCount: 2
Fore
SplineSet
-22 1145 m 1
 374 1145 l 1
 374 1077 l 1
 276 1067 l 1
 259 1048 l 1
 521 579 l 1
 807 1034 l 1
 792 1058 l 1
 688 1077 l 1
 688 1145 l 1
 1036 1145 l 1
 1036 1077 l 1
 932 1055 l 1
 577 486 l 1
 577 102 l 1
 604 79 l 1
 720 70 l 1
 720 0 l 1
 278 0 l 1
 278 70 l 1
 394 79 l 1
 422 102 l 1
 422 464 l 1
 82 1060 l 1
 -22 1077 l 1
 -22 1145 l 1
EndSplineSet
Validated: 1
EndChar

StartChar: Z
Encoding: 90 90 224
Width: 1000
VWidth: 1706
Flags: W
HStem: 0 84<263 778> 1063 82<268 724>
VStem: 114 94<881 962.92> 828 92<215.122 309>
LayerCount: 2
Fore
SplineSet
114 1145 m 1
 911 1145 l 1
 911 1073 l 1
 263 84 l 1
 778 84 l 1
 797 106 l 1
 828 309 l 1
 920 309 l 1
 920 0 l 1
 77 0 l 1
 77 70 l 1
 724 1063 l 1
 268 1063 l 1
 236 1041 l 1
 208 881 l 1
 114 881 l 1
 114 1145 l 1
EndSplineSet
Validated: 1
EndChar

StartChar: bracketleft
Encoding: 91 91 225
Width: 795
VWidth: 1706
Flags: W
HStem: -229 169<369 623.206> 1128 169<369 645.998>
VStem: 237 132<-60 1125.38>
LayerCount: 2
Fore
SplineSet
369 1128 m 1
 369 -60 l 1
 703 -60 l 1
 689 -118 649 -183 613 -229 c 1
 237 -229 l 1
 237 1116 l 1
 261 1183 295 1244 336 1297 c 1
 729 1297 l 1
 715 1241 674 1172 635 1128 c 1
 369 1128 l 1
EndSplineSet
Validated: 1
EndChar

StartChar: backslash
Encoding: 92 92 226
Width: 873
VWidth: 1706
Flags: W
LayerCount: 2
Fore
SplineSet
630 -60 m 1
 442 420 304 761 51 1242 c 1
 82 1249 111 1256 142 1256 c 0
 176 1256 208 1249 242 1242 c 1
 457 710 553 456 823 -60 c 1
 794 -67 759 -70 727 -70 c 0
 693 -70 659 -67 630 -60 c 1
EndSplineSet
Validated: 1
EndChar

StartChar: bracketright
Encoding: 93 93 227
Width: 795
VWidth: 1706
Flags: W
HStem: -229 169<161.003 439> 1128 169<184.77 439>
VStem: 439 131<-57.2544 1128>
LayerCount: 2
Fore
SplineSet
439 -60 m 1
 439 1128 l 1
 104 1128 l 1
 118 1186 159 1251 195 1297 c 1
 570 1297 l 1
 570 -48 l 1
 546 -114 512 -176 471 -229 c 1
 79 -229 l 1
 92 -172 133 -104 172 -60 c 1
 439 -60 l 1
EndSplineSet
Validated: 1
EndChar

StartChar: asciicircum
Encoding: 94 94 228
Width: 1706
VWidth: 1706
Flags: W
HStem: 748 471
LayerCount: 2
Fore
SplineSet
778 1219 m 1
 927 1219 l 1
 1360 748 l 1
 1283 748 l 1
 852 1111 l 1
 418 748 l 1
 343 748 l 1
 778 1219 l 1
EndSplineSet
Validated: 1
EndChar

StartChar: underscore
Encoding: 95 95 229
Width: 853
VWidth: 1706
Flags: W
HStem: -403 99<0 853>
LayerCount: 2
Fore
SplineSet
0 -304 m 1
 853 -304 l 1
 853 -403 l 1
 0 -403 l 1
 0 -304 l 1
EndSplineSet
Validated: 1
EndChar

StartChar: grave
Encoding: 96 96 230
Width: 853
VWidth: 1706
Flags: W
HStem: 932 324
VStem: 177 335
LayerCount: 2
Fore
SplineSet
177 1256 m 1
 346 1256 l 1
 512 932 l 1
 427 932 l 1
 177 1256 l 1
EndSplineSet
Validated: 1
EndChar

StartChar: a
Encoding: 97 97 231
Width: 865
VWidth: 1706
Flags: W
HStem: -12 92<253.648 456.41> 0 61<742 833> 457 60<478.923 570> 763 75<287.266 528.645>
VStem: 72 150<113.035 329.344> 113 170<592.228 743.927> 570 142<133.631 457 509.399 730.951>
LayerCount: 2
Fore
SplineSet
570 99 m 1x76
 463 26 372 -12 290 -12 c 0
 155 -12 72 79 72 207 c 0xba
 72 384 229 435 570 517 c 1
 570 572 l 2
 570 707 536 763 413 763 c 0
 370 763 329 754 283 736 c 1
 283 592 l 1
 166 592 l 2
 126 592 113 604 113 645 c 0
 113 749 242 838 457 838 c 0
 637 838 712 765 712 592 c 2
 712 97 l 1
 742 70 l 1
 833 61 l 1
 833 0 l 1
 592 0 l 1
 570 99 l 1x76
570 157 m 1
 570 457 l 1
 329 391 222 345 222 220 c 0
 222 137 273 80 358 80 c 0
 415 80 485 108 570 157 c 1
EndSplineSet
Validated: 1
EndChar

StartChar: b
Encoding: 98 98 232
Width: 919
VWidth: 1706
Flags: W
HStem: 0 77<288 568.191> 748 90<322.14 589.5> 1142 53<14 63.3534>
VStem: 147 141<79 732.183 778 1142> 707 153<225.179 618.994>
LayerCount: 2
Fore
SplineSet
224 1256 m 1
 288 1256 l 1
 288 778 l 1
 370 817 447 838 522 838 c 0
 724 838 860 681 860 449 c 0
 860 155 691 0 365 0 c 2
 147 0 l 1
 147 1142 l 1
 14 1142 l 1
 14 1195 l 1
 224 1256 l 1
288 79 m 1
 341 77 374 77 382 77 c 0
 604 77 707 181 707 416 c 0
 707 630 609 748 439 748 c 0
 396 748 345 737 288 720 c 1
 288 79 l 1
EndSplineSet
Validated: 1
EndChar

StartChar: c
Encoding: 99 99 233
Width: 761
VWidth: 1706
Flags: W
HStem: -12 101<352.25 647.34> 770 68<351.596 547.776>
VStem: 63 155<230.349 617.1> 551 173<592.071 764.006>
LayerCount: 2
Fore
SplineSet
725 72 m 1
 631 17 539 -12 447 -12 c 0
 215 -12 63 159 63 411 c 0
 63 666 229 838 468 838 c 0
 631 838 724 770 724 671 c 0
 724 616 686 580 628 580 c 0
 602 580 577 589 551 606 c 1
 551 746 l 1
 526 761 498 770 469 770 c 0
 323 770 218 638 218 423 c 0
 218 213 331 89 509 89 c 0
 584 89 654 113 725 160 c 1
 725 72 l 1
EndSplineSet
Validated: 1
EndChar

StartChar: d
Encoding: 100 100 234
Width: 964
VWidth: 1706
Flags: W
HStem: -15 107<328.023 565.714> 0 61<824 906> 765 75<365.154 651.401> 1142 53<522 570.883>
VStem: 61 151<219.06 593.696> 654 141<127.583 749.183 821 1142>
LayerCount: 2
Fore
SplineSet
654 1142 m 1xbc
 522 1142 l 1
 522 1195 l 1
 730 1256 l 1
 795 1256 l 1
 795 97 l 1
 824 70 l 1
 906 61 l 1
 906 0 l 1
 654 0 l 1x7c
 654 89 l 1
 567 19 485 -15 391 -15 c 0
 205 -15 61 145 61 384 c 0
 61 657 242 840 502 840 c 0
 550 840 601 833 654 821 c 1
 654 1142 l 1xbc
654 152 m 1
 654 737 l 1
 596 754 544 765 503 765 c 0
 331 765 212 626 212 413 c 0
 212 213 314 92 468 92 c 0xbc
 529 92 591 113 654 152 c 1
EndSplineSet
Validated: 1
EndChar

StartChar: e
Encoding: 101 101 235
Width: 837
VWidth: 1706
Flags: W
HStem: -15 97<342.663 655.883> 161 20G<716 765> 449 72<218 613> 761 77<323.974 547.806>
VStem: 63 147<233.062 449 521 609.641> 613 152<521 691.944>
LayerCount: 2
Fore
SplineSet
765 181 m 1
 765 87 l 1
 662 19 551 -15 444 -15 c 0
 218 -15 63 154 63 404 c 0
 63 662 229 838 457 838 c 0
 643 838 765 712 765 502 c 0
 765 485 765 468 763 449 c 1
 210 449 l 1
 210 442 210 435 210 430 c 0
 210 212 324 82 497 82 c 0
 582 82 667 116 765 181 c 1
613 521 m 1
 613 529 613 539 613 548 c 0
 613 686 550 761 435 761 c 0
 326 761 229 666 218 521 c 1
 613 521 l 1
EndSplineSet
Validated: 1
EndChar

StartChar: f
Encoding: 102 102 236
Width: 547
VWidth: 1706
Flags: W
HStem: 0 61<49 140 341 447> 719 80<314 551> 719 54<61 121.652>
VStem: 171 141<97 719 799 1056.69>
LayerCount: 2
Fore
SplineSet
49 0 m 1xb0
 49 61 l 1
 140 70 l 1
 171 97 l 1
 171 719 l 1
 61 719 l 1
 61 773 l 1xb0
 171 799 l 1
 171 806 171 812 171 817 c 0
 171 1101 316 1270 517 1270 c 0
 596 1270 650 1227 650 1172 c 0
 650 1132 625 1099 580 1087 c 1
 425 1190 l 1
 352 1155 314 1067 314 923 c 2
 314 799 l 1
 551 799 l 1
 551 719 l 1xd0
 312 719 l 1
 312 97 l 1
 341 70 l 1
 447 61 l 1
 447 0 l 1
 49 0 l 1xb0
EndSplineSet
Validated: 1
EndChar

StartChar: g
Encoding: 103 103 237
Width: 892
VWidth: 1706
Flags: W
HStem: -372 78<290.032 585.755> 285 67<367.826 511.61> 710 80<686 874> 771 67<323.726 515.921>
VStem: 68 137<-222.801 -18.9903> 106 147<412.062 707.67> 236 124<167 250.63> 587 147<411.376 704.722> 691 126<-197.279 -18.5819>
LayerCount: 2
Fore
SplineSet
630 790 m 1xe4
 874 790 l 1
 874 710 l 1
 686 710 l 1
 719 660 734 611 734 551 c 0xe5
 734 399 606 285 408 285 c 0
 399 285 389 285 379 285 c 1
 367 261 360 236 360 208 c 0
 360 200 362 186 364 167 c 1
 527 142 l 2
 729 111 817 58 817 -68 c 0
 817 -131 782 -205 715 -259 c 0
 625 -333 507 -372 377 -372 c 0
 181 -372 68 -288 68 -152 c 0xea80
 68 -43 137 39 253 60 c 1xe4
 242 84 236 109 236 137 c 0xe2
 236 181 263 234 317 299 c 1
 186 328 106 428 106 556 c 0
 106 722 236 838 437 838 c 0xd4
 502 838 565 823 630 790 c 1xe4
420 771 m 0xd5
 321 771 253 693 253 561 c 0
 253 433 321 352 420 352 c 0
 519 352 587 433 587 561 c 0
 587 691 519 771 420 771 c 0xd5
352 51 m 1
 258 22 205 -41 205 -116 c 0
 205 -215 297 -294 437 -294 c 0
 589 -294 691 -208 691 -113 c 0xc880
 691 -20 637 -2 517 20 c 2
 352 51 l 1
EndSplineSet
Validated: 1
EndChar

StartChar: h
Encoding: 104 104 238
Width: 962
VWidth: 1706
Flags: W
HStem: 0 61<43 135 336 416 560 640 841 932> 725 113<419.671 630.449> 1142 53<32 81.1184>
VStem: 164 141<97 689.697 736 1142> 669 142<97 685.08>
LayerCount: 2
Fore
SplineSet
241 1256 m 1
 305 1256 l 1
 305 736 l 1
 420 799 509 838 582 838 c 0
 730 838 811 749 811 579 c 2
 811 97 l 1
 841 70 l 1
 932 61 l 1
 932 0 l 1
 560 0 l 1
 560 61 l 1
 640 70 l 1
 669 97 l 1
 669 550 l 2
 669 674 623 725 497 725 c 0
 442 725 379 707 305 669 c 1
 305 97 l 1
 336 70 l 1
 416 61 l 1
 416 0 l 1
 43 0 l 1
 43 61 l 1
 135 70 l 1
 164 97 l 1
 164 1142 l 1
 32 1142 l 1
 32 1195 l 1
 241 1256 l 1
EndSplineSet
Validated: 1
EndChar

StartChar: i
Encoding: 105 105 239
Width: 477
VWidth: 1706
Flags: W
HStem: 0 61<60 150 352 444> 715 53<60 106.063> 809 20G<191.738 321> 1012 196<179.516 344.914>
VStem: 164 198<1028.45 1191.18> 179 142<97 715>
LayerCount: 2
Fore
SplineSet
263 1208 m 0xf8
 317 1208 362 1164 362 1109 c 0
 362 1055 317 1012 263 1012 c 0
 208 1012 164 1055 164 1109 c 0
 164 1166 208 1208 263 1208 c 0xf8
256 829 m 1
 321 829 l 1
 321 97 l 1
 352 70 l 1
 444 61 l 1
 444 0 l 1
 60 0 l 1
 60 61 l 1
 150 70 l 1
 179 97 l 1
 179 715 l 1xf4
 60 715 l 1
 60 768 l 1
 256 829 l 1
EndSplineSet
Validated: 1
EndChar

